<?xml version="1.0" standalone="no"?>
<!DOCTYPE svg PUBLIC "-//W3C//DTD SVG 1.1//EN" "http://www.w3.org/Graphics/SVG/1.1/DTD/svg11.dtd" >
<svg>
<metadata>
Created by FontForge 20110222 at Mon Mar  7 13:16:13 2011
 By www-data
Generated in 2007 by FontLab Studio. Copyright info pending.
</metadata>
<defs>
<font id="Serif72Beta-Regular" horiz-adv-x="790" >
  <font-face 
    font-family="Serif72 Beta Rg"
    font-weight="400"
    font-stretch="normal"
    units-per-em="1000"
    panose-1="0 0 0 0 0 0 0 0 0 0"
    ascent="750"
    descent="-250"
    x-height="500"
    cap-height="714"
    bbox="-90 -260 1035 954.92"
    underline-thickness="50"
    underline-position="-50"
    unicode-range="U+0020-2122"
  />
    <missing-glyph />
    <glyph glyph-name="exclam" unicode="!" horiz-adv-x="314" 
d="M206 672l-32 -477c-1 -20 -32 -18 -33 0l-29 477c-2 29 22 50 49 51c26 1 47 -19 45 -51zM100 45c0 33 24 54 57 54s57 -21 57 -54s-24 -56 -57 -56s-57 23 -57 56z" />
    <glyph glyph-name="quotedbl" unicode="&#x22;" horiz-adv-x="370" 
d="M91 480l-14 202c-3 55 81 59 77 0l-14 -202h-49zM236 480l-14 202c-3 55 81 59 77 0l-14 -202h-49z" />
    <glyph glyph-name="numbersign" unicode="#" horiz-adv-x="528" 
d="M257 0l35 207h-101l-35 -207h-44l35 207h-117l3 43h122l35 206h-140l3 43h145l37 215h44l-37 -215h101l37 215h44l-37 -215h117l-3 -43h-122l-35 -206h140l-3 -43h-145l-35 -207h-44zM234 456l-35 -206h101l35 206h-101z" />
    <glyph glyph-name="dollar" unicode="$" horiz-adv-x="541" 
d="M86 204c10 -105 53 -169 128 -188l27 306c-144 70 -186 139 -186 220c0 113 117 181 205 181c5 0 11 0 16 -1l8 89h34l-9 -94c49 -11 86 -37 102 -56l10 54h30v-192h-25c-8 100 -56 158 -118 176l-25 -279l17 -9c122 -65 183 -129 183 -214c0 -132 -100 -207 -212 -207
c-9 0 -18 1 -26 1l-7 -89h-34l8 94c-51 11 -89 37 -116 69l-9 -64h-27v202zM407 159c0 74 -70 113 -134 146l-26 -294h17c85 0 143 63 143 148zM125 563c0 -61 59 -92 126 -127l24 269c-5 1 -9 1 -13 1c-92 0 -137 -62 -137 -143z" />
    <glyph glyph-name="percent" unicode="%" horiz-adv-x="831" 
d="M102 566c0 87 60 158 158 158s158 -71 158 -158c0 -92 -60 -166 -158 -166s-158 75 -158 166zM178 566c0 -78 20 -149 82 -149c61 0 82 70 82 149c0 74 -21 140 -82 140c-62 0 -82 -66 -82 -140zM190 0l413 714h44l-413 -714h-44zM422 156c0 87 60 158 158 158
s158 -71 158 -158c0 -92 -60 -166 -158 -166s-158 75 -158 166zM498 156c0 -78 20 -148 82 -148c61 0 82 69 82 148c0 74 -21 140 -82 140c-62 0 -82 -66 -82 -140z" />
    <glyph glyph-name="ampersand" unicode="&#x26;" horiz-adv-x="691" 
d="M618 47c14 0 27 7 37 22l8 -6c-20 -56 -60 -70 -98 -70c-32 0 -66 22 -103 62c-44 -37 -98 -63 -165 -63c-138 0 -223 60 -223 178c0 90 94 154 165 199l2 2l-24 39c-28 43 -55 94 -54 152c1 91 60 158 159 158c68 0 131 -44 131 -126c0 -87 -72 -148 -129 -189l84 -134
c34 -51 66 -98 95 -136c23 31 41 64 53 95c-8 30 -30 42 -30 72c0 20 10 40 34 40c28 0 39 -23 30 -61c-10 -47 -34 -109 -72 -164c37 -43 70 -70 100 -70zM314 256l-60 94c-54 -39 -80 -89 -80 -155c0 -98 58 -171 137 -171c50 0 96 20 134 50c-38 45 -81 107 -131 182z
M392 584c0 66 -23 114 -67 114c-48 0 -86 -34 -86 -106c0 -53 29 -97 61 -148l13 -21c41 37 79 87 79 161z" />
    <glyph glyph-name="quotesingle" unicode="'" horiz-adv-x="185" 
d="M71 480l-14 202c-3 55 81 59 77 0l-14 -202h-49z" />
    <glyph glyph-name="parenleft" unicode="(" horiz-adv-x="335" 
d="M315 -214l-6 -15c-154 84 -239 313 -239 526c0 193 85 413 239 497l6 -15c-118 -94 -154 -318 -154 -482c0 -182 36 -417 154 -511z" />
    <glyph glyph-name="parenright" unicode=")" horiz-adv-x="335" 
d="M20 779l6 15c154 -84 239 -313 239 -526c0 -193 -85 -413 -239 -497l-6 15c118 94 154 318 154 482c0 182 -36 417 -154 511z" />
    <glyph glyph-name="asterisk" unicode="*" horiz-adv-x="482" 
d="M185 717h55l-5 -153l143 53l16 -54l-146 -42l92 -119l-45 -32l-84 122l-81 -122l-45 32l91 118l-146 43l18 53l142 -53z" />
    <glyph glyph-name="plus" unicode="+" horiz-adv-x="482" 
d="M215 500h53v-174h184v-53h-184v-175h-53v175h-185v53h185v174z" />
    <glyph glyph-name="comma" unicode="," horiz-adv-x="211" 
d="M52 45c0 33 24 54 57 54s57 -29 57 -74c0 -88 -73 -158 -102 -175l-19 22c31 25 62 54 65 110c-32 5 -58 34 -58 63z" />
    <glyph glyph-name="hyphen" unicode="-" horiz-adv-x="482" 
d="M80 276v73h322v-73h-322z" />
    <glyph glyph-name="period" unicode="." horiz-adv-x="204" 
d="M45 45c0 33 24 54 57 54s57 -21 57 -54s-24 -56 -57 -56s-57 23 -57 56z" />
    <glyph glyph-name="slash" unicode="/" horiz-adv-x="462" 
d="M35 -108l343 839h44l-343 -839h-44z" />
    <glyph glyph-name="zero" unicode="0" horiz-adv-x="620" 
d="M60 357c0 208 90 367 250 367s250 -159 250 -367s-90 -366 -250 -366s-250 158 -250 366zM166 357c0 -194 35 -341 144 -341s144 147 144 341s-35 342 -144 342s-144 -148 -144 -342z" />
    <glyph glyph-name="one" unicode="1" horiz-adv-x="386" 
d="M238 35l88 -13v-24l-132 2l-133 -2v24l89 11v579h-90l1 31c53 3 107 23 131 71l46 2v-681z" />
    <glyph glyph-name="two" unicode="2" horiz-adv-x="501" 
d="M98 81h341l11 27l21 -1l-20 -107h-418l-3 45c258 255 317 378 317 504c0 70 -35 136 -117 136c-39 0 -87 -18 -122 -48c16 -28 34 -60 34 -94c0 -28 -22 -53 -57 -53c-46 0 -63 66 -39 109c45 70 128 120 216 120c110 0 183 -62 186 -185c3 -131 -188 -299 -350 -450v-3z
" />
    <glyph glyph-name="three" unicode="3" horiz-adv-x="555" 
d="M173 340l-12 28h1l-4 5c216 32 231 107 231 182c0 65 -41 141 -130 141c-33 0 -73 -10 -102 -33c10 -28 19 -53 19 -94c0 -36 -24 -53 -57 -53c-51 0 -64 62 -40 106c39 76 141 100 206 100c97 0 202 -50 202 -170c0 -83 -63 -150 -201 -180l3 -8
c146 -1 226 -88 226 -178c0 -140 -130 -195 -260 -195c-94 0 -179 46 -203 91c-29 59 0 116 50 116c36 0 50 -29 50 -57c0 -34 -15 -65 -22 -78c15 -30 85 -49 125 -49c97 0 156 60 156 175c0 125 -81 182 -238 151z" />
    <glyph glyph-name="four" unicode="4" horiz-adv-x="551" 
d="M35 162v33h1l334 519l46 -1v-518h90v-33h-90v-133l75 -13v-18l-119 2l-118 -2v18l74 11v135h-293zM328 584l-253 -389h253v389z" />
    <glyph glyph-name="five" unicode="5" horiz-adv-x="527" 
d="M341 636h-179l-37 -236c35 30 84 49 150 49c152 0 202 -114 202 -210c0 -155 -102 -248 -242 -248c-84 0 -161 46 -183 91c-29 59 0 116 50 116c36 0 50 -29 50 -57c0 -34 -15 -65 -22 -78c13 -30 66 -49 105 -49c101 0 143 94 143 208c0 135 -46 194 -131 194
c-49 0 -89 -17 -122 -51h-5l-32 1l50 348h323v-115h-31c-8 19 -19 37 -89 37z" />
    <glyph glyph-name="six" unicode="6" horiz-adv-x="587" 
d="M507 588c-2 -30 -22 -43 -45 -43c-29 0 -48 19 -55 40c-7 24 -10 60 4 96c-25 12 -39 19 -70 19c-123 0 -172 -148 -175 -382c33 78 109 121 172 121c126 0 199 -85 199 -202c0 -126 -96 -247 -235 -247c-173 0 -239 169 -239 300c0 274 121 434 268 434
c74 0 181 -41 176 -136zM311 12c94 0 128 88 128 201s-35 186 -122 186c-68 0 -129 -45 -151 -132c1 -112 18 -255 145 -255z" />
    <glyph glyph-name="seven" unicode="7" horiz-adv-x="458" 
d="M249 40c0 -31 -17 -46 -45 -46c-31 0 -44 15 -44 46c0 166 67 386 232 591l-2 2h-297c-41 0 -48 -8 -67 -37l-21 1l16 117h417v-50c-160 -219 -189 -436 -189 -624z" />
    <glyph glyph-name="eight" unicode="8" horiz-adv-x="578" 
d="M503 561c0 -83 -66 -145 -155 -169c88 -37 184 -102 184 -199c0 -108 -90 -200 -234 -200s-234 77 -234 170c0 90 69 155 164 183c-76 36 -153 97 -153 185c0 103 82 190 214 190s214 -72 214 -160zM275 328l-25 9c-73 -28 -102 -96 -102 -164c0 -86 40 -160 150 -160
s150 70 150 150c0 86 -93 133 -173 165zM312 406l15 -5c65 26 92 85 92 150c0 80 -34 150 -130 150s-130 -66 -130 -140c0 -81 82 -126 153 -155z" />
    <glyph glyph-name="nine" unicode="9" horiz-adv-x="582" 
d="M88 95v1c-10 18 -12 88 41 88c35 0 51 -25 51 -53c0 -25 -10 -52 -28 -76c26 -20 60 -33 103 -33c141 0 171 236 171 382c-30 -89 -113 -124 -176 -124c-126 0 -200 88 -200 211c0 116 96 231 235 231c173 0 237 -180 237 -315c0 -275 -119 -412 -256 -412
c-99 0 -158 51 -178 100zM272 695c-94 0 -124 -91 -124 -210c0 -101 35 -174 122 -174c69 0 139 53 154 156c-7 108 -38 228 -152 228z" />
    <glyph glyph-name="colon" unicode=":" horiz-adv-x="224" 
d="M55 410c0 33 24 54 57 54s57 -21 57 -54s-24 -56 -57 -56s-57 23 -57 56zM55 45c0 33 24 54 57 54s57 -21 57 -54s-24 -56 -57 -56s-57 23 -57 56z" />
    <glyph glyph-name="semicolon" unicode=";" horiz-adv-x="231" 
d="M59 410c0 33 24 54 57 54s57 -21 57 -54s-24 -56 -57 -56s-57 23 -57 56zM62 45c0 33 24 54 57 54s57 -29 57 -74c0 -88 -73 -158 -102 -175l-19 22c31 25 62 54 65 110c-32 5 -58 34 -58 63z" />
    <glyph glyph-name="less" unicode="&#x3c;" horiz-adv-x="421" 
d="M401 441l-325 -149l325 -144v-48l-379 168v47l379 169v-43z" />
    <glyph glyph-name="equal" unicode="=" horiz-adv-x="522" 
d="M40 366v53h442v-53h-442zM40 203v53h442v-53h-442z" />
    <glyph glyph-name="greater" unicode="&#x3e;" horiz-adv-x="421" 
d="M22 143l325 149l-325 144v48l379 -168v-47l-379 -169v43z" />
    <glyph glyph-name="question" unicode="?" horiz-adv-x="488" 
d="M268 345v-150c0 -16 -73 -15 -73 0v134c115 39 153 132 153 206c0 100 -49 156 -131 156c-33 0 -73 -14 -102 -38c15 -25 26 -50 26 -80c0 -28 -22 -53 -57 -53c-46 0 -55 56 -31 95c43 64 122 110 206 110c104 0 176 -48 176 -160c0 -94 -84 -174 -167 -220zM172 45
c0 33 24 54 57 54s57 -21 57 -54s-24 -56 -57 -56s-57 23 -57 56z" />
    <glyph glyph-name="at" unicode="@" horiz-adv-x="888" 
d="M838 325c0 -136 -119 -289 -254 -289c-49 0 -78 31 -69 112l3 30c-24 -64 -70 -147 -150 -147c-75 0 -117 74 -108 169c16 186 147 255 210 255c36 0 57 -8 77 -36l13 29h62l-34 -299c-7 -72 7 -80 38 -80c99 0 179 138 179 255c0 143 -91 284 -300 285
c-208 1 -402 -156 -402 -417c0 -177 110 -320 321 -320c119 0 194 42 250 95l9 -12c-57 -60 -136 -109 -273 -109c-222 0 -345 161 -345 346c0 276 208 445 440 444c240 -1 333 -151 333 -311zM406 84c70 0 107 114 121 167l9 77c6 64 -16 103 -68 103
c-59 0 -114 -63 -130 -221c-8 -80 14 -126 68 -126z" />
    <glyph glyph-name="A" unicode="A" horiz-adv-x="676" 
d="M15 12l57 9s42 116 84 238l157 455h51l235 -689l61 -13v-14l-111 2l-112 -2v14l68 11l-66 196h-263c-37 -113 -56 -196 -56 -196l78 -11v-14l-94 2l-89 -2v14zM309 611l-120 -351h237z" />
    <glyph glyph-name="B" unicode="B" horiz-adv-x="646" 
d="M45 698l1 16h251c171 0 262 -78 262 -180c0 -101 -77 -149 -185 -167l1 -6c128 -12 225 -62 225 -178c0 -102 -92 -183 -262 -183h-174l-118 -2v14l69 11v666zM208 25l123 -1c131 -1 175 89 175 162s-35 165 -185 162h-113v-323zM208 371h72c150 -3 186 87 186 160
s-44 160 -176 159l-82 -1v-318z" />
    <glyph glyph-name="C" unicode="C" horiz-adv-x="654" 
d="M175 359c0 -205 84 -348 215 -348c117 0 182 58 195 183h24v-193h-24l-12 63c-24 -30 -96 -71 -185 -71c-133 0 -323 109 -323 365s190 365 323 365c89 0 161 -36 185 -61l12 53h24v-183h-24c-13 119 -78 173 -195 173c-131 0 -215 -143 -215 -346z" />
    <glyph glyph-name="D" unicode="D" horiz-adv-x="720" 
d="M193 25l92 -1c215 -4 268 188 268 339c0 145 -72 328 -278 327l-82 -1v-664zM31 714h261c231 0 364 -162 364 -348c0 -239 -158 -366 -364 -366h-143l-118 -2v14l69 11v666l-70 9z" />
    <glyph glyph-name="E" unicode="E" horiz-adv-x="609" 
d="M46 714h496l11 -187h-31l-10 31c-28 88 -71 133 -171 132h-133v-317h43c70 -1 121 19 121 82v20h30v-232h-30v20c0 63 -48 88 -118 87h-46v-326h164c100 -1 143 44 171 132l10 31h31l-11 -187h-409l-118 -2v14l69 11v666l-70 9z" />
    <glyph glyph-name="F" unicode="F" horiz-adv-x="568" 
d="M46 714h496l11 -187h-31l-10 31c-28 88 -71 133 -171 132h-133v-316h86c69 -1 120 19 120 82v20h31v-232h-31v20c0 63 -49 87 -118 86h-88v-325l71 -8v-19l-115 2l-118 -2v14l69 11v666l-70 9z" />
    <glyph glyph-name="G" unicode="G" horiz-adv-x="736" 
d="M175 359v-2c0 -203 84 -341 215 -341c148 0 171 50 171 69v178l-71 19v22l115 -3l106 3v-20l-61 -19v-194l1 -75l-19 -2l-23 47c-54 -29 -138 -48 -221 -48c-133 0 -323 109 -323 365s190 365 323 365c94 0 166 -43 191 -71l11 63h29v-172h-24c-24 102 -82 157 -205 157
c-131 0 -215 -138 -215 -341z" />
    <glyph glyph-name="H" unicode="H" horiz-adv-x="783" 
d="M208 25l68 -13v-14l-112 2l-118 -2v14l69 11v666l-70 9l1 16l116 -2l113 2v-16l-67 -9v-320h369v320l-69 9l1 16l115 -2l113 2v-16l-66 -9v-664l67 -13v-14l-112 2l-117 -2v14l68 11v317h-369v-315z" />
    <glyph glyph-name="I" unicode="I" horiz-adv-x="343" 
d="M218 25l68 -13v-14l-112 2l-118 -2v14l69 11v666l-70 9l1 16l116 -3l113 3v-16l-67 -9v-664z" />
    <glyph glyph-name="J" unicode="J" horiz-adv-x="475" 
d="M263 689l-68 9l1 16l111 -3l118 3v-16l-69 -11l-1 -412c0 -165 -84 -281 -232 -281c-59 0 -103 29 -103 58c0 20 15 38 41 38c54 0 54 -72 115 -72c52 0 87 50 87 185v486z" />
    <glyph glyph-name="K" unicode="K" horiz-adv-x="692" 
d="M208 25l68 -13v-14l-112 2l-118 -2v14l69 11v666l-70 9l1 16l116 -3l113 3v-16l-67 -9v-380l273 361l-2 16l-64 4l2 24l101 -2l97 2v-23l-73 -9l-227 -275l305 -377l53 -14l-1 -16l-99 1l-127 -1v15l55 12l-1 11l-240 303l-52 -63v-253z" />
    <glyph glyph-name="L" unicode="L" horiz-adv-x="599" 
d="M208 689v-664h153c100 -1 142 47 172 141l10 31h30l-11 -197h-398l-118 -2v14l69 11v666l-70 9l1 16l116 -3l113 3v-16z" />
    <glyph glyph-name="M" unicode="M" horiz-adv-x="915" 
d="M807 25l67 -13v-14l-117 2l-112 -2v14l68 11v558l-265 -581h-24l-267 549v-221c0 -178 5 -303 5 -303l72 -13v-14l-97 2l-96 -2v14l72 11s6 124 6 303v302c0 55 -38 64 -78 70l1 16h133l290 -583l267 583h141v-16l-66 -9v-664z" />
    <glyph glyph-name="N" unicode="N" horiz-adv-x="738" 
d="M582 687l-80 13v14l106 -2l100 2v-14l-76 -11s-7 -129 -7 -264v-425h-52l-418 560v-253c0 -173 8 -282 8 -282l71 -13v-14l-97 2l-96 -2v14l71 11s6 102 6 284v316c0 55 -38 69 -78 75l1 16l124 -3l424 -574v290c0 135 -7 260 -7 260z" />
    <glyph glyph-name="O" unicode="O" 
d="M65 357c0 208 128 367 330 367s330 -159 330 -367s-128 -366 -330 -366s-330 158 -330 366zM176 357c0 -194 57 -341 219 -341s219 147 219 341s-57 342 -219 342s-219 -148 -219 -342z" />
    <glyph glyph-name="P" unicode="P" horiz-adv-x="616" 
d="M208 25l68 -13v-14l-112 2l-118 -2v14l69 11v666l-70 9l1 16h252c182 0 282 -86 282 -200c0 -136 -125 -206 -282 -206h-90v-283zM290 687h-82v-352h93c150 -4 185 92 185 176c0 83 -49 177 -196 176z" />
    <glyph glyph-name="Q" unicode="Q" 
d="M65 357c0 208 128 367 330 367s330 -159 330 -367c0 -182 -98 -326 -258 -359l-121 -48c108 -27 162 -97 256 -97c41 0 61 2 85 15c6 3 5 30 28 30c19 0 21 -16 9 -24c-29 -30 -97 -79 -160 -79c-136 0 -193 72 -278 106c-15 6 -36 3 -66 -16c-23 27 -11 42 25 47l153 59
h-3c-202 0 -330 158 -330 366zM176 357c0 -194 57 -341 219 -341s219 147 219 341s-57 342 -219 342s-219 -148 -219 -342z" />
    <glyph glyph-name="R" unicode="R" horiz-adv-x="682" 
d="M208 25l68 -13v-14l-112 2l-118 -2v14l69 11v666l-70 9l1 16h251c171 0 262 -73 262 -175c0 -97 -75 -144 -174 -164l5 -8c112 -3 162 -71 162 -162v-47c0 -88 17 -119 45 -119c21 0 32 10 47 46l16 -9c-20 -43 -52 -82 -97 -82c-70 0 -103 63 -103 163v49
c0 68 -32 146 -104 146h-148v-327zM290 690h-82v-310h62c150 -3 191 83 191 156s-40 155 -171 154z" />
    <glyph glyph-name="S" unicode="S" horiz-adv-x="541" 
d="M86 204c12 -126 72 -193 178 -193c85 0 143 63 143 148c0 87 -96 126 -165 163c-145 70 -187 139 -187 220c0 113 117 181 205 181c74 0 130 -37 151 -62l10 54h30v-192h-25c-9 124 -81 183 -164 183c-92 0 -137 -62 -137 -143c0 -75 91 -105 175 -152
c122 -65 183 -129 183 -214c0 -132 -100 -207 -212 -207c-81 0 -138 32 -175 75l-9 -64h-27v202z" />
    <glyph glyph-name="T" unicode="T" horiz-adv-x="615" 
d="M419 689h-61v-666l69 -9l-1 -16l-112 3l-116 -3v16l66 9v666h-67c-82 1 -116 -37 -141 -111l-10 -30h-31l11 166h563l11 -166h-30l-10 30c-25 74 -59 112 -141 111z" />
    <glyph glyph-name="U" unicode="U" horiz-adv-x="716" 
d="M353 -2c-127 0 -248 72 -248 219v472l-70 9l1 16l111 -3l118 3v-16l-67 -9v-470c0 -122 71 -178 185 -178c121 0 199 59 199 188v460l-71 9v16l86 -3l88 3l1 -16l-69 -9v-462c0 -154 -109 -229 -264 -229z" />
    <glyph glyph-name="V" unicode="V" horiz-adv-x="676" 
d="M666 701l-67 -13l-235 -688h-51l-236 688l-67 13v14l117 -2l112 2v-14l-68 -11l195 -575l195 575l-68 11v14l85 -2l88 2v-14z" />
    <glyph glyph-name="W" unicode="W" horiz-adv-x="1000" 
d="M305 0h-43l-185 682l-67 17l1 16l117 -2l120 1v-20l-69 -11l-1 -9l141 -536l191 576h45l202 -577l123 539v8l-85 13v16l95 -2l100 2v-18l-67 -14l-168 -681h-42l-206 592z" />
    <glyph glyph-name="X" unicode="X" horiz-adv-x="687" 
d="M35 11l65 13l204 334l-190 331l-61 13v14l106 -2l128 2v-14l-64 -11l133 -247l149 247l-71 11v14l83 -2l95 2v-14l-63 -13l-174 -278l15 -28l211 -359l61 -13v-14l-118 2l-123 -2v14l67 11l-166 303l-178 -303l69 -11v-14l-87 2l-91 -2v14z" />
    <glyph glyph-name="Y" unicode="Y" horiz-adv-x="653" 
d="M76 689l-61 13v14l111 -2l118 2v-14l-62 -11v-10l170 -340l171 335v14l-66 11v15l100 -2l81 2v-15l-65 -13l-199 -383v-280l67 -13v-14l-112 2l-117 -2v14l68 11v274z" />
    <glyph glyph-name="Z" unicode="Z" horiz-adv-x="585" 
d="M76 714h448v-25l-385 -666h227c107 0 131 78 145 124l10 34l34 -1l-16 -181h-499v39l384 655h-161c-66 0 -150 -5 -163 -114l-4 -33l-31 2z" />
    <glyph glyph-name="bracketleft" unicode="[" horiz-adv-x="343" 
d="M208 -119l88 -13v-19h-161v925h160v-21l-87 -9v-863z" />
    <glyph glyph-name="backslash" unicode="\" horiz-adv-x="462" 
d="M79 731l343 -839h-44l-343 839h44z" />
    <glyph glyph-name="bracketright" unicode="]" horiz-adv-x="343" 
d="M135 742l-88 13v19h161v-925h-160v21l87 9v863z" />
    <glyph glyph-name="asciicircum" unicode="^" horiz-adv-x="324" 
d="M246 432l-87 230l-82 -230h-47l109 279h47l108 -279h-48z" />
    <glyph glyph-name="underscore" unicode="_" horiz-adv-x="482" 
d="M30 -86v43h422v-43h-422z" />
    <glyph glyph-name="grave" unicode="`" horiz-adv-x="279" 
d="M198 565l-111 96c-10 10 -15 21 -13 32c2 22 22 38 44 33c9 -2 19 -8 25 -19l76 -125z" />
    <glyph glyph-name="a" unicode="a" horiz-adv-x="520" 
d="M124 331c-46 0 -59 57 -35 89c39 56 108 90 176 90c93 0 156 -38 156 -159v-256c0 -32 6 -57 25 -57c15 0 29 10 41 35l14 -9c-17 -39 -48 -73 -105 -69c-42 3 -61 34 -61 78v28c-25 -67 -82 -107 -148 -107c-90 0 -142 52 -142 116c0 79 48 119 205 155l85 21v70
c0 78 -28 125 -96 125c-27 0 -59 -10 -82 -33c10 -19 20 -43 20 -72c0 -28 -25 -45 -53 -45zM214 35c45 0 96 22 121 96v132l-78 -20c-100 -25 -124 -76 -124 -117c0 -58 36 -91 81 -91z" />
    <glyph glyph-name="b" unicode="b" horiz-adv-x="567" 
d="M73 143v551l-53 10l2 40l138 12v-373c28 75 95 127 166 127c127 0 195 -121 195 -254c0 -121 -77 -256 -241 -256c-57 0 -115 30 -151 61l-40 -64l-23 4c4 37 7 81 7 142zM160 310v-182c6 -48 31 -104 122 -104c113 0 147 131 147 232c0 111 -40 205 -126 205
c-74 0 -143 -63 -143 -151z" />
    <glyph glyph-name="c" unicode="c" horiz-adv-x="494" 
d="M365 470c-28 12 -44 16 -75 16c-98 0 -150 -106 -150 -242c0 -107 61 -198 154 -198c65 0 121 29 149 104l16 -4c-28 -91 -99 -156 -183 -156c-155 0 -231 131 -231 244c0 134 99 276 236 276c67 0 122 -22 152 -69c25 -35 19 -99 -36 -99c-28 0 -53 25 -53 50
c0 29 6 49 21 78z" />
    <glyph glyph-name="d" unicode="d" horiz-adv-x="575" 
d="M405 694l-53 10l2 40l138 12v-694l58 -19v-27l-134 -22l-9 122c-27 -71 -90 -126 -157 -126c-134 0 -205 128 -205 251c0 129 77 269 241 269c42 0 85 -10 119 -32v216zM268 41c67 0 133 54 137 133v208c0 50 -30 104 -121 104c-113 0 -147 -95 -147 -245
c0 -101 38 -200 131 -200z" />
    <glyph glyph-name="e" unicode="e" horiz-adv-x="501" 
d="M451 298h-313c-1 -20 -2 -40 -2 -62c0 -91 56 -191 167 -191c57 0 113 24 142 89l14 -5c-34 -82 -109 -139 -194 -139c-148 0 -221 133 -221 246c0 129 77 274 224 274c93 0 183 -57 183 -178v-34zM266 486c-67 0 -109 -57 -124 -157h227c0 112 -49 157 -103 157z" />
    <glyph glyph-name="f" unicode="f" horiz-adv-x="330" 
d="M18 465v16l75 13v24c0 126 61 234 177 234c51 0 106 -15 117 -59c7 -26 -11 -48 -38 -49c-38 -2 -60 40 -63 83c-5 3 -13 6 -28 6c-57 0 -78 -73 -78 -165v-68h137v-35h-137v-441l68 -12l-1 -15l-111 3l-108 -3l-2 15l67 10v443h-75z" />
    <glyph glyph-name="g" unicode="g" horiz-adv-x="532" 
d="M48 341c0 93 78 169 204 169c27 0 51 -4 73 -10l171 10l-5 -40h-93v-7c37 -31 58 -74 58 -122c0 -87 -78 -166 -204 -166c-29 0 -55 4 -78 11c-31 -16 -50 -38 -50 -75c0 -29 23 -48 64 -50l122 -5c145 -5 194 -69 194 -133c0 -95 -131 -183 -263 -183
c-107 0 -216 41 -216 122c0 52 41 91 135 120v9c-51 11 -88 45 -87 85c1 59 51 102 82 117c-68 28 -107 85 -107 148zM298 -15l-107 1c-69 -41 -86 -70 -86 -116c0 -60 60 -102 136 -101c115 1 187 45 187 132c0 49 -41 83 -130 84zM322 465v3c-17 14 -40 22 -70 22
c-82 0 -110 -54 -110 -149c0 -89 28 -146 110 -146s110 58 110 146c0 56 -10 98 -35 123z" />
    <glyph glyph-name="h" unicode="h" horiz-adv-x="592" 
d="M93 22v672l-53 10l2 40l138 12v-399c28 90 100 153 172 153c84 0 147 -36 147 -149v-337l68 -12l-1 -15l-110 3l-108 -3l-2 15l67 10v329c0 71 -25 110 -86 110c-72 0 -144 -75 -147 -183v-254l68 -12l-1 -15l-111 3l-108 -3l-2 15z" />
    <glyph glyph-name="i" unicode="i" horiz-adv-x="282" 
d="M97 22v421l-53 10l2 40l137 12l1 -481l68 -12l-1 -15l-111 3l-108 -3l-2 15zM82 658c0 33 21 51 54 51s54 -18 54 -51s-21 -53 -54 -53s-54 20 -54 53z" />
    <glyph glyph-name="j" unicode="j" horiz-adv-x="260" 
d="M179 505v-471c0 -165 -52 -281 -186 -281c-47 0 -83 24 -83 48c0 20 14 38 41 38c44 0 44 -57 95 -57c36 0 47 52 47 180v481l-53 10l2 40zM82 658c0 33 21 51 54 51s54 -18 54 -51s-21 -53 -54 -53s-54 20 -54 53z" />
    <glyph glyph-name="k" unicode="k" horiz-adv-x="547" 
d="M93 22v672l-53 10l2 40l138 12v-532l187 232l-2 16l-63 4l2 23l99 -2l103 2v-22l-72 -9l-159 -170l226 -268l49 -11l-1 -16l-104 -1l-108 -1v15l56 11l-1 16l-173 195l-39 -42v-172l58 -12l-1 -15l-101 3l-108 -3l-2 15z" />
    <glyph glyph-name="l" unicode="l" horiz-adv-x="282" 
d="M97 23v671l-53 10l2 40l138 12v-731l68 -12l-1 -16l-111 3l-108 -3l-2 16z" />
    <glyph glyph-name="m" unicode="m" horiz-adv-x="898" 
d="M93 22v421l-53 10l2 40l138 12v-145c28 89 97 150 169 150c85 0 148 -33 150 -134h1c29 78 90 134 154 134c87 0 150 -36 150 -149v-337l68 -12l-1 -15l-110 3l-108 -3l-2 15l67 10v329c0 71 -25 110 -86 110c-59 0 -118 -56 -133 -138v-299l68 -12l-1 -15l-110 3
l-108 -3l-2 15l67 10v339c0 64 -25 100 -86 100c-72 0 -144 -75 -147 -183v-254l68 -12l-1 -15l-111 3l-108 -3l-2 15z" />
    <glyph glyph-name="n" unicode="n" horiz-adv-x="590" 
d="M92 22v421l-53 10l2 40l137 12v-149c29 91 101 154 174 154c83 0 145 -36 145 -149v-337l68 -12l-1 -15l-110 3l-108 -3l-2 15l67 10v329c0 71 -25 110 -86 110c-72 0 -144 -75 -147 -183v-254l68 -12l-1 -15l-110 3l-108 -3l-2 15z" />
    <glyph glyph-name="o" unicode="o" horiz-adv-x="578" 
d="M45 250c0 144 94 260 244 260s244 -116 244 -260s-94 -259 -244 -259s-244 115 -244 259zM139 250c0 -130 40 -237 150 -237s150 107 150 237s-40 239 -150 239s-150 -109 -150 -239z" />
    <glyph glyph-name="p" unicode="p" horiz-adv-x="590" 
d="M185 -222l68 -12l-1 -15l-111 3l-108 -3l-2 15l67 10v651l-58 19v37l134 22l9 -123c26 72 89 127 157 127c134 0 205 -128 205 -251c0 -129 -77 -269 -241 -269c-43 0 -86 12 -119 36v-247zM185 319v-197c0 -50 30 -109 121 -109c113 0 147 95 147 245
c0 101 -38 200 -131 200c-69 0 -137 -57 -137 -139z" />
    <glyph glyph-name="q" unicode="q" horiz-adv-x="587" 
d="M494 -224l68 -12l-1 -15l-111 3l-108 -3l-2 15l67 10v351c-27 -74 -91 -130 -161 -130c-127 0 -200 121 -200 254c-7 121 77 256 241 256c50 0 101 -24 137 -51l54 54l23 -4c-4 -37 -7 -81 -7 -142v-586zM264 44c72 0 139 60 143 144v184c-6 48 -31 109 -122 109
c-113 0 -147 -131 -147 -232c0 -111 40 -205 126 -205z" />
    <glyph glyph-name="r" unicode="r" horiz-adv-x="402" 
d="M93 22v421l-53 10l2 40l132 12v-166h3c22 69 70 169 145 169c38 0 70 -22 70 -58c0 -27 -19 -54 -51 -54c-35 0 -54 21 -65 47c-52 -18 -93 -93 -97 -157l1 -262l68 -12l-1 -15l-111 3l-108 -3l-2 15z" />
    <glyph glyph-name="s" unicode="s" horiz-adv-x="450" 
d="M85 159c24 -95 55 -149 135 -149c59 0 100 42 100 95c0 60 -70 88 -122 115c-102 53 -132 101 -132 160c0 85 90 128 160 128c52 0 90 -21 111 -43l8 35h28v-139h-24c-15 73 -60 129 -121 129c-62 0 -95 -40 -95 -89s65 -73 122 -104c92 -49 138 -92 138 -155
c0 -99 -76 -153 -166 -153c-60 0 -110 26 -135 60l-6 -49h-26v158z" />
    <glyph glyph-name="t" unicode="t" horiz-adv-x="335" 
d="M10 465v19l65 10v124l87 17v-135h137v-35h-137v-324c0 -56 13 -97 55 -99c37 -4 68 15 94 43l14 -14c-40 -52 -87 -73 -144 -74c-39 -1 -105 30 -105 133l-1 335h-65z" />
    <glyph glyph-name="u" unicode="u" horiz-adv-x="590" 
d="M502 510v-466l53 -10l-2 -30l-132 -12v164c-25 -99 -97 -169 -174 -169c-87 0 -149 36 -149 149v312l-63 12l1 40l147 10v-364c0 -71 25 -110 86 -110c72 0 143 75 147 182v230l-63 12l1 40z" />
    <glyph glyph-name="v" unicode="v" horiz-adv-x="545" 
d="M295 -5h-37l-196 474l-57 17l1 15l101 -2l115 1v-17l-65 -11l1 -11l143 -373l130 376l-5 8l-81 14v15l95 -2l100 2v-17l-67 -14z" />
    <glyph glyph-name="w" unicode="w" 
d="M15 485l1 16l101 -2l105 1v-20l-62 -11l1 -9l100 -344l137 384h39l145 -389l87 351l-4 8l-75 13v16l90 -2l95 2v-18l-62 -14l-132 -467h-37l-149 399l-145 -399h-37l-141 468z" />
    <glyph glyph-name="x" unicode="x" horiz-adv-x="541" 
d="M175 460l106 -153l111 154v8l-68 11v19l85 -2l100 2v-18l-71 -14l-137 -189l172 -247l52 -17l-1 -16l-101 2l-115 -1v18l62 11l-1 11l-117 167l-119 -168v-8l68 -11v-19l-85 2l-100 -2v18l71 14l145 203l-161 233l-52 17l1 16l101 -2l115 1v-15l-62 -14z" />
    <glyph glyph-name="y" unicode="y" horiz-adv-x="525" 
d="M285 -5l-37 -105c-34 -96 -90 -125 -134 -125c-40 0 -80 11 -91 54c-7 28 12 57 51 57c42 0 54 -35 71 -64c22 0 55 34 70 79l34 104h-1l-196 474l-57 17l1 15l101 -2l115 1v-17l-65 -11l1 -11l143 -373l130 376l-5 8l-81 14v15l95 -2l100 2v-17l-67 -14z" />
    <glyph glyph-name="z" unicode="z" horiz-adv-x="465" 
d="M69 500h350v-24l-288 -442v-5h190c61 0 72 60 85 99h24l-5 -128h-390v39l287 433v3h-152c-52 0 -72 -59 -82 -102l-30 2z" />
    <glyph glyph-name="braceleft" unicode="{" horiz-adv-x="332" 
d="M80 288c84 -26 107 -155 98 -219c-20 -158 12 -226 114 -272l-6 -15c-136 24 -209 106 -189 287c10 89 8 192 -67 211v16c75 19 77 122 67 211c-20 181 53 263 189 287l6 -15c-102 -46 -134 -114 -114 -272c9 -64 -14 -193 -98 -219z" />
    <glyph glyph-name="bar" unicode="|" horiz-adv-x="244" 
d="M144 731v-899h-44v899h44z" />
    <glyph glyph-name="braceright" unicode="}" horiz-adv-x="332" 
d="M252 288c-84 26 -107 155 -98 219c20 158 -12 226 -114 272l6 15c136 -24 209 -106 189 -287c-10 -89 -8 -192 67 -211v-16c-75 -19 -77 -122 -67 -211c20 -181 -53 -263 -189 -287l-6 15c102 46 134 114 114 272c-9 64 14 193 98 219z" />
    <glyph glyph-name="asciitilde" unicode="~" horiz-adv-x="662" 
d="M367 326c23 -33 52 -73 117 -73c40 0 77 28 93 75c-12 17 -29 32 -31 52c0 22 9 46 30 46c24 0 35 -33 29 -61c-17 -102 -86 -177 -163 -177c-76 0 -113 38 -158 99c-23 30 -48 73 -107 73c-38 0 -75 -28 -92 -75c12 -17 28 -32 31 -52c-1 -22 -10 -46 -31 -46
c-26 0 -35 33 -29 61c17 102 78 177 165 177c70 0 106 -37 146 -99z" />
    <glyph glyph-name="exclamdown" unicode="&#xa1;" horiz-adv-x="314" 
d="M140 304l-32 -477c-2 -32 19 -52 45 -51c27 1 51 22 49 51l-29 477c-1 18 -32 20 -33 0zM214 454c0 -33 -24 -54 -57 -54s-57 21 -57 54s24 56 57 56s57 -23 57 -56z" />
    <glyph glyph-name="cent" unicode="&#xa2;" horiz-adv-x="484" 
d="M355 470c-24 10 -39 15 -61 16l-46 -435c11 -3 23 -5 36 -5c65 0 121 29 149 104l16 -4c-28 -91 -99 -156 -183 -156c-9 0 -17 0 -25 1l-10 -99h-33l12 105c-118 26 -175 138 -175 237c0 133 98 274 233 276l13 111l28 -1l-12 -111c55 -5 100 -27 126 -68
c25 -35 19 -99 -36 -99c-28 0 -53 25 -53 50c0 29 6 49 21 78zM130 244c0 -79 33 -149 87 -181l48 422c-88 -10 -135 -112 -135 -241z" />
    <glyph glyph-name="sterling" unicode="&#xa3;" horiz-adv-x="567" 
d="M312 720c69 0 107 -35 126 -59l11 53h29v-173h-24c-18 93 -59 158 -146 158c-98 0 -111 -70 -101 -230l4 -69c0 -12 1 -23 1 -34h212l-5 -35h-207c-4 -157 -55 -241 -93 -285c25 11 51 17 70 18c113 5 221 -54 266 -54c22 0 43 15 43 23c-12 13 -22 34 -22 53
c0 24 12 43 40 43c21 0 31 -20 31 -48c0 -37 -59 -110 -134 -110c-78 -2 -159 30 -236 32c-11 0 -34 1 -79 -5l-47 -6l-3 5c5 7 12 13 20 19c55 51 63 133 56 315h-71l5 35h65c-1 6 -1 13 -1 20l-3 60c-8 166 50 274 193 274z" />
    <glyph glyph-name="yen" unicode="&#xa5;" horiz-adv-x="653" 
d="M638 701l-65 -13l-188 -360h164v-37h-175v-77h175v-37h-175v-152l67 -13v-14l-112 2l-117 -2v14l68 11v154h-164v37h164v77h-164v37h148l-188 361l-61 13v14l111 -2l118 2v-14l-62 -11v-10l170 -340l171 335v14l-66 11v15l100 -2l81 2v-15z" />
    <glyph glyph-name="brokenbar" unicode="&#xa6;" horiz-adv-x="244" 
d="M144 -168h-44v383h44v-383zM144 731v-354h-44v354h44z" />
    <glyph glyph-name="section" unicode="&#xa7;" horiz-adv-x="537" 
d="M81 552c0 104 105 167 186 167c71 0 123 -42 142 -61l10 54h26v-178h-22c-18 96 -76 166 -154 166c-84 0 -126 -54 -126 -130c0 -68 86 -96 164 -140c108 -60 180 -106 180 -199c0 -85 -47 -143 -111 -168c47 -40 71 -83 71 -135c0 -115 -85 -173 -179 -173
c-76 0 -132 40 -164 73l-8 -63h-24v187l23 1c30 -116 70 -176 170 -176c69 0 114 44 114 117c0 80 -84 114 -146 148c-128 66 -183 125 -183 219c0 71 48 123 102 149c-53 45 -71 91 -71 142zM420 196c0 80 -103 117 -164 151c-35 17 -64 33 -87 50
c-38 -22 -57 -65 -57 -116c0 -69 98 -112 172 -156c26 -15 49 -29 69 -44c41 21 67 63 67 115z" />
    <glyph glyph-name="dieresis" unicode="&#xa8;" horiz-adv-x="458" 
d="M284 674c0 27 20 45 48 45s48 -18 48 -45c0 -28 -20 -47 -48 -47s-48 19 -48 47zM87 674c0 27 20 45 48 45s48 -18 48 -45c0 -28 -20 -47 -48 -47s-48 19 -48 47z" />
    <glyph glyph-name="ordfeminine" unicode="&#xaa;" horiz-adv-x="436" 
d="M112 582c-36 0 -47 45 -28 70c29 43 78 70 128 70c66 0 111 -30 111 -124v-160c0 -25 4 -42 19 -42c11 0 24 4 33 17l11 -7c-14 -26 -45 -48 -82 -46c-33 4 -48 27 -48 61v14c-17 -42 -58 -75 -105 -75c-64 0 -101 36 -101 80c0 56 35 90 150 111l56 10v41
c0 61 -19 98 -64 98c-19 0 -40 -8 -54 -23c7 -14 15 -37 15 -59c0 -23 -20 -36 -41 -36zM172 398c30 0 66 11 84 67v75l-51 -10c-70 -14 -87 -49 -87 -78c0 -38 24 -54 54 -54z" />
    <glyph glyph-name="guillemotleft" unicode="&#xab;" horiz-adv-x="468" 
d="M229 379l-96 -186l96 -187l-19 -9l-160 189v16l160 189zM418 379l-96 -186l96 -187l-19 -9l-160 189v16l160 189z" />
    <glyph glyph-name="macron" unicode="&#xaf;" horiz-adv-x="432" 
d="M50 671v43h332v-43h-332z" />
    <glyph glyph-name="degree" unicode="&#xb0;" horiz-adv-x="288" 
d="M35 612c0 61 48 109 109 109s109 -48 109 -109s-48 -109 -109 -109s-109 48 -109 109zM68 612c0 -42 34 -76 76 -76s76 34 76 76s-34 76 -76 76s-76 -34 -76 -76z" />
    <glyph glyph-name="plusminus" unicode="&#xb1;" horiz-adv-x="482" 
d="M215 500h53v-174h184v-53h-184v-175h-53v175h-185v53h185v174zM30 1v43h422v-43h-422z" />
    <glyph glyph-name="twosuperior" unicode="&#xb2;" horiz-adv-x="361" 
d="M107 352h209l8 20l15 -1l-14 -82h-279l-1 32c169 152 205 225 205 300c0 41 -25 74 -84 74c-28 0 -55 -12 -81 -34c12 -21 26 -37 26 -62c0 -20 -17 -38 -42 -38c-33 0 -45 47 -28 78c33 50 84 86 148 86c79 0 133 -36 133 -112c0 -65 -95 -171 -215 -261z" />
    <glyph glyph-name="threesuperior" unicode="&#xb3;" horiz-adv-x="400" 
d="M118 494l-2 16l-3 4c147 20 157 61 157 108c0 46 -21 81 -84 81c-23 0 -52 -7 -73 -30c8 -17 14 -25 14 -51s-17 -37 -42 -37c-36 0 -45 38 -28 67c28 53 101 72 148 72c65 0 136 -30 136 -104c0 -51 -40 -88 -125 -106l2 -7c97 0 143 -50 143 -97
c0 -88 -89 -122 -177 -122c-68 0 -129 33 -146 65c-22 38 0 74 36 74c25 0 36 -20 36 -44c0 -17 -11 -29 -16 -35c10 -22 40 -41 90 -41c70 0 102 38 102 105c0 61 -56 96 -168 82z" />
    <glyph glyph-name="acute" unicode="&#xb4;" horiz-adv-x="279" 
d="M205 661l-111 -96l-21 17l76 125c6 11 16 17 25 19c22 5 42 -11 44 -33c2 -11 -3 -22 -13 -32z" />
    <glyph glyph-name="mu" unicode="&#xb5;" horiz-adv-x="613" 
d="M433 227v221l-63 12l1 40l148 10v-466l53 -10l-2 -30l-132 -12v164c-25 -99 -97 -169 -174 -169c-23 0 -44 3 -63 9v-217l68 -12l-1 -16l-111 3l-108 -3l-2 16l67 10v671l-53 10l-9 2l1 40l147 10h1v-389c5 -55 31 -85 85 -85c74 0 147 79 147 191z" />
    <glyph glyph-name="mu" unicode="&#x3bc;" horiz-adv-x="613" 
d="M433 227v221l-63 12l1 40l148 10v-466l53 -10l-2 -30l-132 -12v164c-25 -99 -97 -169 -174 -169c-23 0 -44 3 -63 9v-217l68 -12l-1 -16l-111 3l-108 -3l-2 16l67 10v671l-53 10l-9 2l1 40l147 10h1v-389c5 -55 31 -85 85 -85c74 0 147 79 147 191z" />
    <glyph glyph-name="paragraph" unicode="&#xb6;" horiz-adv-x="522" 
d="M247 12l68 13v278c-149 5 -265 80 -265 211c0 114 100 200 282 200h174l1 -16l-70 -9v-666l69 -11v-14l-69 2h-78l-112 -2v14zM144 511c0 -82 33 -174 171 -176v351c-128 -9 -171 -97 -171 -175zM349 687v-352h54v352h-54zM349 19l54 2v282h-54v-284z" />
    <glyph glyph-name="periodcentered" unicode="&#xb7;" horiz-adv-x="204" 
d="M45 304c0 33 24 54 57 54s57 -21 57 -54s-24 -56 -57 -56s-57 23 -57 56z" />
    <glyph glyph-name="cedilla" unicode="&#xb8;" horiz-adv-x="484" 
d="M199 -99l36 114h26l-20 -67s24 9 60 9c51 0 94 -25 94 -71c0 -121 -201 -105 -201 -105l-2 18s142 -8 142 64c0 29 -28 39 -57 39c-27 0 -48 -4 -69 -10z" />
    <glyph glyph-name="onesuperior" unicode="&#xb9;" horiz-adv-x="278" 
d="M171 307l54 -9v-17l-86 2l-85 -2v17l54 7v338h-65l1 22c38 2 77 17 95 51h32v-409z" />
    <glyph glyph-name="ordmasculine" unicode="&#xba;" horiz-adv-x="416" 
d="M50 546c0 99 60 178 158 178s158 -79 158 -178c0 -104 -60 -186 -158 -186s-158 82 -158 186zM126 546c0 -88 20 -163 82 -163c61 0 82 75 82 163c0 84 -21 155 -82 155c-62 0 -82 -71 -82 -155z" />
    <glyph glyph-name="guillemotright" unicode="&#xbb;" horiz-adv-x="468" 
d="M50 9l96 186l-96 187l19 9l160 -189v-16l-160 -189zM239 9l96 186l-96 187l19 9l160 -189v-16l-160 -189z" />
    <glyph glyph-name="onequarter" unicode="&#xbc;" horiz-adv-x="811" 
d="M158 0l443 714h44l-443 -714h-44zM392 110v23h1l256 302l34 -1v-300h64v-24h-64v-90l54 -9v-11l-86 2l-85 -2v11l53 8v91h-227zM619 355l-187 -221h187v221zM208 307l54 -9v-17l-86 2l-85 -2v17l54 7v338h-65l1 22c38 2 77 17 95 51h32v-409z" />
    <glyph glyph-name="onehalf" unicode="&#xbd;" horiz-adv-x="867" 
d="M208 307l54 -9v-17l-86 2l-85 -2v17l54 7v338h-65l1 22c38 2 77 17 95 51h32v-409zM154 0l443 714h44l-443 -714h-44zM555 62h209l8 20l15 -1l-14 -82h-279l-1 32c169 152 205 225 205 300c0 41 -25 74 -84 74c-28 0 -55 -12 -81 -34c12 -21 26 -37 26 -62
c0 -20 -17 -38 -42 -38c-33 0 -45 47 -28 78c33 50 84 86 148 86c79 0 133 -36 133 -112c0 -65 -95 -171 -215 -261z" />
    <glyph glyph-name="threequarters" unicode="&#xbe;" horiz-adv-x="935" 
d="M169 494l-2 16l-3 4c147 20 157 61 157 108c0 46 -21 81 -84 81c-23 0 -52 -7 -73 -30c8 -17 14 -25 14 -51s-17 -37 -42 -37c-36 0 -45 38 -28 67c28 53 101 72 148 72c65 0 136 -30 136 -104c0 -51 -40 -88 -125 -106l2 -7c97 0 143 -50 143 -97
c0 -88 -89 -122 -177 -122c-68 0 -129 33 -146 65c-22 38 0 74 36 74c25 0 36 -20 36 -44c0 -17 -11 -29 -16 -35c10 -22 40 -41 90 -41c70 0 102 38 102 105c0 61 -56 96 -168 82zM282 0l443 714h44l-443 -714h-44zM516 110v23h1l256 302l34 -1v-300h64v-24h-64v-90l54 -9
v-11l-86 2l-85 -2v11l53 8v91h-227zM743 355l-187 -221h187v221z" />
    <glyph glyph-name="questiondown" unicode="&#xbf;" horiz-adv-x="488" 
d="M225 155v150c0 16 73 15 73 0v-134c-115 -39 -153 -132 -153 -206c0 -100 49 -156 131 -156c33 0 73 14 102 38c-15 25 -26 50 -26 80c0 28 22 53 57 53c46 0 55 -56 31 -95c-43 -64 -122 -110 -206 -110c-104 0 -176 48 -176 160c0 94 84 174 167 220zM321 455
c0 -33 -24 -54 -57 -54s-57 21 -57 54s24 56 57 56s57 -23 57 -56z" />
    <glyph glyph-name="AE" unicode="&#xc6;" horiz-adv-x="1009" 
d="M507 714h435l11 -187h-31l-10 31c-28 88 -71 133 -171 132h-133v-322h43c70 -1 121 24 121 87v20h30v-232h-30v20c0 63 -51 83 -121 82h-43v-321h164c100 -1 131 49 171 132l15 31h31l-16 -187h-409l-118 -2v14l69 11v215h-265l-135 -215l68 -11v-14l-84 2l-89 -2v14
l59 13zM276 279h239v378z" />
    <glyph glyph-name="Eth" unicode="&#xd0;" horiz-adv-x="720" 
d="M20 344v36h80v309l-70 9l1 16h261c231 0 364 -162 364 -348c0 -239 -158 -366 -364 -366h-143l-118 -2v14l69 11v321h-80zM193 25l92 -1c215 -4 268 188 268 339c0 145 -72 328 -278 327l-82 -1v-309h149v-36h-149v-319z" />
    <glyph glyph-name="multiply" unicode="&#xd7;" horiz-adv-x="482" 
d="M370 460l37 -38l-128 -128l128 -128l-37 -38l-129 128l-128 -128l-38 37l129 129l-129 129l38 37l128 -129z" />
    <glyph glyph-name="Oslash" unicode="&#xd8;" 
d="M191 -97l49 124c-110 59 -175 182 -175 330c0 208 128 367 330 367c42 0 80 -7 115 -20l39 97h45l-46 -114c111 -58 177 -182 177 -330c0 -208 -128 -366 -330 -366c-42 0 -81 7 -116 19l-42 -107h-46zM614 357c0 123 -23 228 -82 288l-240 -603c28 -17 62 -26 103 -26
c162 0 219 147 219 341zM176 357c0 -124 23 -228 81 -288l241 603c-28 17 -62 27 -103 27c-162 0 -219 -148 -219 -342z" />
    <glyph glyph-name="Thorn" unicode="&#xde;" horiz-adv-x="636" 
d="M208 25l68 -13v-14l-112 2l-118 -2v14l69 11v666l-70 9l1 16h242v-18l-80 -7v-125h128c176 0 259 -78 259 -180c0 -124 -108 -191 -259 -191h-128v-168zM328 537h-120v-317h131c142 -4 162 87 162 161c0 73 -34 157 -173 156z" />
    <glyph glyph-name="germandbls" unicode="&#xdf;" horiz-adv-x="571" 
d="M180 548l1 -548l-143 -3l-2 15l57 10v476c0 136 71 254 215 254c102 0 173 -49 173 -134c0 -93 -68 -139 -120 -197c82 -91 166 -140 166 -252c0 -108 -80 -178 -168 -178c-75 0 -123 40 -137 62c-8 22 2 44 20 44s34 -12 34 -43c0 -7 0 -14 -1 -25c16 -10 40 -19 65 -19
c53 0 116 28 116 120c0 57 -63 146 -149 223c-14 16 -10 27 4 41c80 72 96 148 96 217c0 61 -30 121 -111 121c-85 0 -116 -80 -116 -184z" />
    <glyph glyph-name="ae" unicode="&#xe6;" horiz-adv-x="782" 
d="M125 331c-46 0 -59 57 -35 89c39 56 108 90 176 90c65 0 115 -19 139 -71c37 42 89 71 154 71c93 0 183 -57 183 -178v-34h-313c-1 -20 -2 -40 -2 -62c0 -91 56 -191 167 -191c57 0 113 24 142 89l14 -5c-34 -82 -109 -139 -194 -139c-89 0 -151 48 -186 110
c-35 -66 -101 -106 -182 -106c-90 0 -142 52 -142 116c0 79 48 119 205 155l85 21v70c0 78 -28 125 -96 125c-27 0 -59 -10 -82 -33c10 -19 20 -43 20 -72c0 -28 -25 -45 -53 -45zM215 40c54 0 112 15 148 74c-19 39 -28 81 -28 122c0 7 0 15 1 22l-78 -20
c-100 -25 -124 -71 -124 -112c0 -58 36 -86 81 -86zM557 486c-67 0 -109 -57 -124 -157h227c0 112 -49 157 -103 157z" />
    <glyph glyph-name="eth" unicode="&#xf0;" horiz-adv-x="582" 
d="M194 547l-14 30l129 52c-39 30 -90 53 -157 64l7 29c74 -8 146 -30 205 -71l123 50l14 -30l-106 -43c76 -66 127 -169 127 -318c0 -135 -64 -315 -237 -315c-139 0 -235 120 -235 241c0 147 81 246 207 246c66 0 137 -38 166 -100c-7 78 -28 161 -87 222zM280 22
c132 0 145 160 146 278c-15 103 -85 156 -154 156c-87 0 -124 -89 -124 -214s38 -220 132 -220z" />
    <glyph glyph-name="divide" unicode="&#xf7;" horiz-adv-x="482" 
d="M20 275v53h442v-53h-442zM185 153c0 33 24 54 57 54s57 -21 57 -54s-24 -56 -57 -56s-57 23 -57 56zM183 454c0 33 24 54 57 54s57 -21 57 -54s-24 -56 -57 -56s-57 23 -57 56z" />
    <glyph glyph-name="oslash" unicode="&#xf8;" horiz-adv-x="578" 
d="M118 -81l48 103c-77 43 -121 129 -121 228c0 144 94 260 244 260c36 0 68 -7 97 -19l40 85h39l-47 -101c72 -45 115 -129 115 -225c0 -144 -94 -259 -244 -259c-33 0 -63 6 -90 15l-41 -87h-40zM139 250c0 -76 13 -143 46 -187l187 397c-22 18 -49 29 -83 29
c-110 0 -150 -109 -150 -239zM439 250c0 71 -13 137 -42 181l-184 -395c20 -15 45 -23 76 -23c110 0 150 107 150 237z" />
    <glyph glyph-name="thorn" unicode="&#xfe;" horiz-adv-x="590" 
d="M185 -222l68 -12l-1 -15l-111 3l-108 -3l-2 15l67 10v901l-58 19v37l144 22l1 -138v-216c27 63 89 108 155 108c134 0 205 -128 205 -251c0 -129 -77 -269 -241 -269c-42 0 -86 10 -119 32v-243zM322 458c-64 0 -128 -46 -137 -113v-223c0 -50 30 -109 121 -109
c113 0 147 95 147 245c0 101 -38 200 -131 200z" />
    <glyph glyph-name="OE" unicode="&#x152;" horiz-adv-x="1008" 
d="M531 714h410l11 -187h-31l-10 31c-28 88 -71 133 -171 132h-133v-317h43c70 -1 121 19 121 82v20h30v-232h-30v20c0 63 -51 83 -121 82h-43v-321h164c100 -1 143 44 171 132l10 31h31l-11 -187h-457c-32 -4 -72 -7 -117 -7c-137 0 -333 109 -333 365s196 365 333 365
c53 0 98 -4 133 -9zM175 359c0 -205 88 -343 225 -343c52 0 88 12 114 31v626c-27 17 -63 27 -114 27c-137 0 -225 -138 -225 -341z" />
    <glyph glyph-name="oe" unicode="&#x153;" horiz-adv-x="900" 
d="M45 250c0 144 94 260 244 260c89 0 158 -41 200 -105c37 61 97 105 178 105c93 0 183 -57 183 -178v-34h-313c-1 -20 -2 -40 -2 -62c0 -91 56 -191 167 -191c57 0 113 24 142 89l14 -5c-34 -82 -109 -139 -194 -139c-83 0 -143 41 -179 98c-42 -59 -110 -97 -196 -97
c-150 0 -244 115 -244 259zM139 250c0 -130 40 -237 150 -237s150 107 150 237s-40 239 -150 239s-150 -109 -150 -239zM665 486c-67 0 -109 -57 -124 -157h227c0 112 -49 157 -103 157z" />
    <glyph glyph-name="florin" unicode="&#x192;" horiz-adv-x="330" 
d="M18 460v21l75 13v24c0 126 61 234 177 234c51 0 106 -15 117 -59c7 -26 -11 -48 -38 -49c-38 -2 -60 35 -63 78c-5 3 -13 6 -28 6c-57 0 -78 -68 -78 -160v-68h137v-40h-137v-401c0 -165 -53 -281 -187 -281c-47 0 -83 24 -83 48c0 20 14 38 41 38c44 0 44 -52 95 -52
c36 0 47 47 47 175v473h-75z" />
    <glyph glyph-name="circumflex" unicode="&#x2c6;" horiz-adv-x="324" 
d="M149 711h32l116 -109h-52l-81 78l-84 -78h-50z" />
    <glyph glyph-name="tilde" unicode="&#x2dc;" horiz-adv-x="424" 
d="M271 614c-64 11 -70 37 -134 49c-33 5 -60 -15 -56 -54l-14 5c-9 66 30 112 86 101c63 -11 69 -37 134 -49c33 -5 60 15 56 54l14 -5c9 -66 -30 -112 -86 -101z" />
    <glyph glyph-name="endash" unicode="&#x2013;" horiz-adv-x="542" 
d="M50 276v63h442v-63h-442z" />
    <glyph glyph-name="emdash" unicode="&#x2014;" horiz-adv-x="642" 
d="M50 276v63h542v-63h-542z" />
    <glyph glyph-name="quoteleft" unicode="&#x2018;" horiz-adv-x="221" 
d="M164 560c0 -33 -24 -54 -57 -54s-57 29 -57 74c0 88 73 158 102 175l19 -22c-31 -25 -62 -54 -65 -110c32 -5 58 -34 58 -63z" />
    <glyph glyph-name="quoteright" unicode="&#x2019;" horiz-adv-x="221" 
d="M57 670c0 33 24 54 57 54s57 -29 57 -74c0 -88 -73 -158 -102 -175l-19 22c31 25 62 54 65 110c-32 5 -58 34 -58 63z" />
    <glyph glyph-name="quotesinglbase" unicode="&#x201a;" horiz-adv-x="211" 
d="M52 45c0 33 24 54 57 54s57 -29 57 -74c0 -88 -73 -158 -102 -175l-19 22c31 25 62 54 65 110c-32 5 -58 34 -58 63z" />
    <glyph glyph-name="quotedblleft" unicode="&#x201c;" horiz-adv-x="376" 
d="M319 550c0 -33 -24 -54 -57 -54s-57 29 -57 74c0 88 73 158 102 175l19 -22c-31 -25 -62 -54 -65 -110c32 -5 58 -34 58 -63zM164 550c0 -33 -24 -54 -57 -54s-57 29 -57 74c0 88 73 158 102 175l19 -22c-31 -25 -62 -54 -65 -110c32 -5 58 -34 58 -63z" />
    <glyph glyph-name="quotedblright" unicode="&#x201d;" horiz-adv-x="370" 
d="M57 670c0 33 24 54 57 54s57 -29 57 -74c0 -88 -73 -158 -102 -175l-19 22c31 25 62 54 65 110c-32 5 -58 34 -58 63zM206 670c0 33 24 54 57 54s57 -29 57 -74c0 -88 -73 -158 -102 -175l-19 22c31 25 62 54 65 110c-32 5 -58 34 -58 63z" />
    <glyph glyph-name="quotedblbase" unicode="&#x201e;" horiz-adv-x="359" 
d="M52 45c0 33 24 54 57 54s57 -29 57 -74c0 -88 -73 -158 -102 -175l-19 22c31 25 62 54 65 110c-32 5 -58 34 -58 63zM200 45c0 33 24 54 57 54s57 -29 57 -74c0 -88 -73 -158 -102 -175l-19 22c31 25 62 54 65 110c-32 5 -58 34 -58 63z" />
    <glyph glyph-name="dagger" unicode="&#x2020;" horiz-adv-x="363" 
d="M30 500h125v214h44v-214h134v-44h-134v-455h-44v455h-125v44z" />
    <glyph glyph-name="daggerdbl" unicode="&#x2021;" horiz-adv-x="363" 
d="M30 500h125v214h44v-214h134v-44h-134v-412h134v-44h-134v-239h-44v239h-125v44h125v412h-125v44z" />
    <glyph glyph-name="bullet" unicode="&#x2022;" horiz-adv-x="321" 
d="M50 313c0 64 47 104 111 104s110 -40 110 -104c0 -65 -46 -109 -110 -109s-111 44 -111 109z" />
    <glyph glyph-name="ellipsis" unicode="&#x2026;" horiz-adv-x="612" 
d="M45 45c0 33 24 54 57 54s57 -21 57 -54s-24 -56 -57 -56s-57 23 -57 56zM249 45c0 33 24 54 57 54s57 -21 57 -54s-24 -56 -57 -56s-57 23 -57 56zM453 45c0 33 24 54 57 54s57 -21 57 -54s-24 -56 -57 -56s-57 23 -57 56z" />
    <glyph glyph-name="perthousand" unicode="&#x2030;" horiz-adv-x="1099" 
d="M90 566c0 87 60 158 158 158s158 -71 158 -158c0 -92 -60 -166 -158 -166s-158 75 -158 166zM166 566c0 -78 20 -148 82 -148c61 0 82 69 82 148c0 74 -21 140 -82 140c-62 0 -82 -66 -82 -140zM87 170l662 491l23 -27l-662 -492zM350 156c0 87 60 158 158 158
s158 -71 158 -158c0 -92 -60 -166 -158 -166s-158 75 -158 166zM426 156c0 -78 20 -148 82 -148c61 0 82 69 82 148c0 74 -21 140 -82 140c-62 0 -82 -66 -82 -140zM719 156c0 87 60 158 158 158s158 -71 158 -158c0 -92 -60 -166 -158 -166s-158 75 -158 166zM795 156
c0 -78 20 -148 82 -148c61 0 82 69 82 148c0 74 -21 140 -82 140c-62 0 -82 -66 -82 -140z" />
    <glyph glyph-name="guilsinglleft" unicode="&#x2039;" horiz-adv-x="279" 
d="M229 379l-96 -186l96 -187l-19 -9l-160 189v16l160 189z" />
    <glyph glyph-name="guilsinglright" unicode="&#x203a;" horiz-adv-x="279" 
d="M50 9l96 186l-96 187l19 9l160 -189v-16l-160 -189z" />
    <glyph glyph-name="Euro" unicode="&#x20ac;" horiz-adv-x="708" 
d="M20 390v34h88c30 209 198 299 319 299c89 0 161 -36 185 -61l12 53h24v-183h-24c-13 119 -78 173 -195 173s-196 -113 -212 -281h338v-34h-341v-31c0 -13 0 -26 1 -38h340v-33h-338c17 -167 96 -277 212 -277c117 0 182 58 195 183h24v-193h-24l-12 63
c-24 -30 -96 -71 -185 -71c-120 0 -287 89 -318 295h-89v33h85c-1 12 -1 24 -1 37c0 11 0 21 1 32h-85z" />
    <glyph glyph-name="trademark" unicode="&#x2122;" horiz-adv-x="567" 
d="M496 527l21 -5v-10l-41 1l-41 -1v10l22 3v149l-73 -161h-9l-79 152v-138l24 -5v-10l-34 1l-32 -1v10l23 3v157c0 16 -11 20 -23 22l1 10h58l76 -143l64 143h64v-10l-21 -3v-174zM183 698h-19v-173l22 -2l-1 -11l-40 1l-41 -1v11l21 2v173h-21c-26 0 -42 -8 -42 -33v-9
h-12v58h185v-58h-12v9c0 25 -15 33 -40 33z" />
    <glyph glyph-name="O.small" horiz-adv-x="750" 
d="M65 283c0 166 120 297 310 297s310 -131 310 -297s-120 -292 -310 -292s-310 126 -310 292zM176 283c0 -152 51 -267 199 -267s199 115 199 267s-51 272 -199 272s-199 -120 -199 -272z" />
    <glyph glyph-name="Ccedilla" unicode="&#xc7;" horiz-adv-x="654" 
d="M342 -102l30 96c-132 8 -307 118 -307 364c0 256 190 365 323 365c89 0 161 -36 185 -61l12 53h24v-183h-24c-13 119 -78 173 -195 173c-131 0 -215 -143 -215 -346c0 -199 79 -339 203 -348v1h26v-1c108 5 168 63 181 183h24v-193h-24l-12 63c-23 -29 -91 -68 -175 -71
l-14 -48s24 9 60 9c51 0 94 -25 94 -71c0 -121 -201 -105 -201 -105l-2 18s142 -8 142 64c0 29 -28 39 -57 39c-27 0 -48 -4 -69 -10z" />
    <glyph glyph-name="ccedilla" unicode="&#xe7;" horiz-adv-x="494" 
d="M225 -102l29 93c-140 11 -209 135 -209 243c0 134 99 276 236 276c67 0 122 -22 152 -69c25 -35 19 -99 -36 -99c-28 0 -53 25 -53 50c0 29 6 49 21 78c-28 12 -44 16 -75 16c-98 0 -150 -106 -150 -242c0 -107 61 -198 154 -198c65 0 121 29 149 104l16 -4
c-28 -90 -97 -154 -179 -156l-13 -45s24 9 60 9c51 0 94 -25 94 -71c0 -121 -201 -105 -201 -105l-2 18s142 -8 142 64c0 29 -28 39 -57 39c-27 0 -48 -4 -69 -10z" />
    <glyph glyph-name="Zcaron" unicode="&#x17d;" horiz-adv-x="585" 
d="M307 769h-32l-116 109h52l81 -78l84 78h50zM76 714h448v-25l-385 -666h227c107 0 131 78 145 124l10 34l34 -1l-16 -181h-499v39l384 655h-161c-66 0 -150 -5 -163 -114l-4 -33l-31 2z" />
    <glyph glyph-name="zcaron" unicode="&#x17e;" horiz-adv-x="465" 
d="M69 500h350v-24l-288 -442v-5h190c61 0 72 60 85 99h24l-5 -128h-390v39l287 433v3h-152c-52 0 -72 -59 -82 -102l-30 2zM247 565h-32l-116 109h52l81 -78l84 78h50z" />
    <glyph glyph-name="Scaron" unicode="&#x160;" horiz-adv-x="541" 
d="M284 778h-32l-116 109h52l81 -78l84 78h50zM86 204c12 -126 72 -193 178 -193c85 0 143 63 143 148c0 87 -96 126 -165 163c-145 70 -187 139 -187 220c0 113 117 181 205 181c74 0 130 -37 151 -62l10 54h30v-192h-25c-9 124 -81 183 -164 183c-92 0 -137 -62 -137 -143
c0 -75 91 -105 175 -152c122 -65 183 -129 183 -214c0 -132 -100 -207 -212 -207c-81 0 -138 32 -175 75l-9 -64h-27v202z" />
    <glyph glyph-name="scaron" unicode="&#x161;" horiz-adv-x="450" 
d="M85 159c24 -95 55 -149 135 -149c59 0 100 42 100 95c0 60 -70 88 -122 115c-102 53 -132 101 -132 160c0 85 90 128 160 128c52 0 90 -21 111 -43l8 35h28v-139h-24c-15 73 -60 129 -121 129c-62 0 -95 -40 -95 -89s65 -73 122 -104c92 -49 138 -92 138 -155
c0 -99 -76 -153 -166 -153c-60 0 -110 26 -135 60l-6 -49h-26v158zM241 573h-32l-116 109h52l81 -78l84 78h50z" />
    <glyph glyph-name="Ydieresis" unicode="&#x178;" horiz-adv-x="653" 
d="M76 689l-61 13v14l111 -2l118 2v-14l-62 -11v-10l170 -340l171 335v14l-66 11v15l100 -2l81 2v-15l-65 -13l-199 -383v-280l67 -13v-14l-112 2l-117 -2v14l68 11v274zM386 857c0 33 24 54 57 54s57 -21 57 -54s-24 -56 -57 -56s-57 23 -57 56zM189 857c0 33 24 54 57 54
s57 -21 57 -54s-24 -56 -57 -56s-57 23 -57 56z" />
    <glyph glyph-name="Agrave" unicode="&#xc0;" horiz-adv-x="676" 
d="M15 12l57 9s42 116 84 238l157 455h51l235 -689l61 -13v-14l-111 2l-112 -2v14l68 11l-66 196h-263c-37 -113 -56 -196 -56 -196l78 -11v-14l-94 2l-89 -2v14zM309 611l-120 -351h237zM337 776l-111 96c-10 10 -15 21 -13 32c2 22 22 38 44 33c9 -2 19 -8 25 -19l76 -125
z" />
    <glyph glyph-name="Aacute" unicode="&#xc1;" horiz-adv-x="676" 
d="M15 12l57 9s42 116 84 238l157 455h51l235 -689l61 -13v-14l-111 2l-112 -2v14l68 11l-66 196h-263c-37 -113 -56 -196 -56 -196l78 -11v-14l-94 2l-89 -2v14zM309 611l-120 -351h237zM448 876l-111 -96l-21 17l76 125c6 11 16 17 25 19c22 5 42 -11 44 -33
c2 -11 -3 -22 -13 -32z" />
    <glyph glyph-name="Acircumflex" unicode="&#xc2;" horiz-adv-x="676" 
d="M15 12l57 9s42 116 84 238l157 455h51l235 -689l61 -13v-14l-111 2l-112 -2v14l68 11l-66 196h-263c-37 -113 -56 -196 -56 -196l78 -11v-14l-94 2l-89 -2v14zM309 611l-120 -351h237zM324 875h32l116 -109h-52l-81 78l-84 -78h-50z" />
    <glyph glyph-name="Atilde" unicode="&#xc3;" horiz-adv-x="676" 
d="M15 12l57 9s42 116 84 238l157 455h51l235 -689l61 -13v-14l-111 2l-112 -2v14l68 11l-66 196h-263c-37 -113 -56 -196 -56 -196l78 -11v-14l-94 2l-89 -2v14zM309 611l-120 -351h237zM397 771c-64 11 -70 37 -134 49c-33 5 -60 -15 -56 -54l-14 5c-9 66 30 112 86 101
c63 -11 69 -37 134 -49c33 -5 60 15 56 54l14 -5c9 -66 -30 -112 -86 -101z" />
    <glyph glyph-name="Adieresis" unicode="&#xc4;" horiz-adv-x="676" 
d="M15 12l57 9s42 116 84 238l157 455h51l235 -689l61 -13v-14l-111 2l-112 -2v14l68 11l-66 196h-263c-37 -113 -56 -196 -56 -196l78 -11v-14l-94 2l-89 -2v14zM309 611l-120 -351h237zM398 852c0 33 24 54 57 54s57 -21 57 -54s-24 -56 -57 -56s-57 23 -57 56zM201 852
c0 33 24 54 57 54s57 -21 57 -54s-24 -56 -57 -56s-57 23 -57 56z" />
    <glyph glyph-name="Aring" unicode="&#xc5;" horiz-adv-x="676" 
d="M254 850c0 46 38 84 84 84s84 -38 84 -84s-38 -84 -84 -84s-84 38 -84 84zM287 850c0 -27 24 -51 51 -51s51 24 51 51s-24 51 -51 51s-51 -24 -51 -51zM15 12l57 9s42 116 84 238l157 455h51l235 -689l61 -13v-14l-111 2l-112 -2v14l68 11l-66 196h-263
c-37 -113 -56 -196 -56 -196l78 -11v-14l-94 2l-89 -2v14zM309 611l-120 -351h237z" />
    <glyph glyph-name="Egrave" unicode="&#xc8;" horiz-adv-x="609" 
d="M46 714h496l11 -187h-31l-10 31c-28 88 -71 133 -171 132h-133v-317h43c70 -1 121 19 121 82v20h30v-232h-30v20c0 63 -48 88 -118 87h-46v-326h164c100 -1 143 44 171 132l10 31h31l-11 -187h-409l-118 -2v14l69 11v666l-70 9zM308 779l-111 96c-10 10 -15 21 -13 32
c2 22 22 38 44 33c9 -2 19 -8 25 -19l76 -125z" />
    <glyph glyph-name="Eacute" unicode="&#xc9;" horiz-adv-x="609" 
d="M542 714h-496l-1 -16l70 -9v-666l-69 -11v-14l118 2h409l11 187h-31l-10 -31c-28 -88 -71 -133 -171 -132h-164v326h46c70 1 118 -24 118 -87v-20h30v232h-30v-20c0 -63 -51 -83 -121 -82h-43v317h133c100 1 143 -44 171 -132l10 -31h31zM419 879l-111 -96l-21 17l76 125
c6 11 16 17 25 19c22 5 42 -11 44 -33c2 -11 -3 -22 -13 -32z" />
    <glyph glyph-name="Ecircumflex" unicode="&#xca;" horiz-adv-x="609" 
d="M46 714h496l11 -187h-31l-10 31c-28 88 -71 133 -171 132h-133v-317h43c70 -1 121 19 121 82v20h30v-232h-30v20c0 63 -48 88 -118 87h-46v-326h164c100 -1 143 44 171 132l10 31h31l-11 -187h-409l-118 -2v14l69 11v666l-70 9zM295 878h32l116 -109h-52l-81 78l-84 -78
h-50z" />
    <glyph glyph-name="Edieresis" unicode="&#xcb;" horiz-adv-x="609" 
d="M542 714h-496l-1 -16l70 -9v-666l-69 -11v-14l118 2h409l11 187h-31l-10 -31c-28 -88 -71 -133 -171 -132h-164v326h46c70 1 118 -24 118 -87v-20h30v232h-30v-20c0 -63 -51 -83 -121 -82h-43v317h133c100 1 143 -44 171 -132l10 -31h31zM369 855c0 33 24 54 57 54
s57 -21 57 -54s-24 -56 -57 -56s-57 23 -57 56zM172 855c0 33 24 54 57 54s57 -21 57 -54s-24 -56 -57 -56s-57 23 -57 56z" />
    <glyph glyph-name="Igrave" unicode="&#xcc;" horiz-adv-x="343" 
d="M218 25l68 -13v-14l-112 2l-118 -2v14l69 11v666l-70 9l1 16l116 -3l113 3v-16l-67 -9v-664zM169 779l-111 96c-10 10 -15 21 -13 32c2 22 22 38 44 33c9 -2 19 -8 25 -19l76 -125z" />
    <glyph glyph-name="Iacute" unicode="&#xcd;" horiz-adv-x="343" 
d="M218 25l68 -13v-14l-112 2l-118 -2v14l69 11v666l-70 9l1 16l116 -3l113 3v-16l-67 -9v-664zM280 879l-111 -96l-21 17l76 125c6 11 16 17 25 19c22 5 42 -11 44 -33c2 -11 -3 -22 -13 -32z" />
    <glyph glyph-name="Icircumflex" unicode="&#xce;" horiz-adv-x="343" 
d="M218 25l68 -13v-14l-112 2l-118 -2v14l69 11v666l-70 9l1 16l116 -3l113 3v-16l-67 -9v-664zM156 878h32l116 -109h-52l-81 78l-84 -78h-50z" />
    <glyph glyph-name="Idieresis" unicode="&#xcf;" horiz-adv-x="343" 
d="M218 25l68 -13v-14l-112 2l-118 -2v14l69 11v666l-70 9l1 16l116 -3l113 3v-16l-67 -9v-664zM230 855c0 33 24 54 57 54s57 -21 57 -54s-24 -56 -57 -56s-57 23 -57 56zM33 855c0 33 24 54 57 54s57 -21 57 -54s-24 -56 -57 -56s-57 23 -57 56z" />
    <glyph glyph-name="Ntilde" unicode="&#xd1;" horiz-adv-x="738" 
d="M582 687l-80 13v14l106 -2l100 2v-14l-76 -11s-7 -129 -7 -264v-425h-52l-418 560v-253c0 -173 8 -282 8 -282l71 -13v-14l-97 2l-96 -2v14l71 11s6 102 6 284v316c0 55 -38 69 -78 75l1 16l124 -3l424 -574v290c0 135 -7 260 -7 260zM428 774c-64 11 -70 37 -134 49
c-33 5 -60 -15 -56 -54l-14 5c-9 66 30 112 86 101c63 -11 69 -37 134 -49c33 -5 60 15 56 54l14 -5c9 -66 -30 -112 -86 -101z" />
    <glyph glyph-name="Ograve" unicode="&#xd2;" 
d="M65 357c0 208 128 367 330 367s330 -159 330 -367s-128 -366 -330 -366s-330 158 -330 366zM176 357c0 -194 57 -341 219 -341s219 147 219 341s-57 342 -219 342s-219 -148 -219 -342zM394 789l-111 96c-10 10 -15 21 -13 32c2 22 22 38 44 33c9 -2 19 -8 25 -19
l76 -125z" />
    <glyph glyph-name="Oacute" unicode="&#xd3;" 
d="M65 357c0 208 128 367 330 367s330 -159 330 -367s-128 -366 -330 -366s-330 158 -330 366zM176 357c0 -194 57 -341 219 -341s219 147 219 341s-57 342 -219 342s-219 -148 -219 -342zM505 889l-111 -96l-21 17l76 125c6 11 16 17 25 19c22 5 42 -11 44 -33
c2 -11 -3 -22 -13 -32z" />
    <glyph glyph-name="Ocircumflex" unicode="&#xd4;" 
d="M65 357c0 208 128 367 330 367s330 -159 330 -367s-128 -366 -330 -366s-330 158 -330 366zM176 357c0 -194 57 -341 219 -341s219 147 219 341s-57 342 -219 342s-219 -148 -219 -342zM381 888h32l116 -109h-52l-81 78l-84 -78h-50z" />
    <glyph glyph-name="Otilde" unicode="&#xd5;" 
d="M65 357c0 208 128 367 330 367s330 -159 330 -367s-128 -366 -330 -366s-330 158 -330 366zM176 357c0 -194 57 -341 219 -341s219 147 219 341s-57 342 -219 342s-219 -148 -219 -342zM454 784c-64 11 -70 37 -134 49c-33 5 -60 -15 -56 -54l-14 5c-9 66 30 112 86 101
c63 -11 69 -37 134 -49c33 -5 60 15 56 54l14 -5c9 -66 -30 -112 -86 -101z" />
    <glyph glyph-name="Odieresis" unicode="&#xd6;" 
d="M65 357c0 208 128 367 330 367s330 -159 330 -367s-128 -366 -330 -366s-330 158 -330 366zM176 357c0 -194 57 -341 219 -341s219 147 219 341s-57 342 -219 342s-219 -148 -219 -342zM455 865c0 33 24 54 57 54s57 -21 57 -54s-24 -56 -57 -56s-57 23 -57 56zM258 865
c0 33 24 54 57 54s57 -21 57 -54s-24 -56 -57 -56s-57 23 -57 56z" />
    <glyph glyph-name="Ugrave" unicode="&#xd9;" horiz-adv-x="716" 
d="M353 -2c-127 0 -248 72 -248 219v472l-70 9l1 16l111 -3l118 3v-16l-67 -9v-470c0 -122 71 -178 185 -178c121 0 199 59 199 188v460l-71 9v16l86 -3l88 3l1 -16l-69 -9v-462c0 -154 -109 -229 -264 -229zM359 779l-111 96c-10 10 -15 21 -13 32c2 22 22 38 44 33
c9 -2 19 -8 25 -19l76 -125z" />
    <glyph glyph-name="Uacute" unicode="&#xda;" horiz-adv-x="716" 
d="M353 -2c155 0 264 75 264 229v462l69 9l-1 16l-88 -3l-86 3v-16l71 -9v-460c0 -129 -78 -188 -199 -188c-114 0 -185 56 -185 178v470l67 9v16l-118 -3l-111 3l-1 -16l70 -9v-472c0 -147 121 -219 248 -219zM470 879l-111 -96l-21 17l76 125c6 11 16 17 25 19
c22 5 42 -11 44 -33c2 -11 -3 -22 -13 -32z" />
    <glyph glyph-name="Ucircumflex" unicode="&#xdb;" horiz-adv-x="716" 
d="M353 -2c-127 0 -248 72 -248 219v472l-70 9l1 16l111 -3l118 3v-16l-67 -9v-470c0 -122 71 -178 185 -178c121 0 199 59 199 188v460l-71 9v16l86 -3l88 3l1 -16l-69 -9v-462c0 -154 -109 -229 -264 -229zM346 878h32l116 -109h-52l-81 78l-84 -78h-50z" />
    <glyph glyph-name="Udieresis" unicode="&#xdc;" horiz-adv-x="716" 
d="M353 -2c155 0 264 75 264 229v462l69 9l-1 16l-88 -3l-86 3v-16l71 -9v-460c0 -129 -78 -188 -199 -188c-114 0 -185 56 -185 178v470l67 9v16l-118 -3l-111 3l-1 -16l70 -9v-472c0 -147 121 -219 248 -219zM420 855c0 33 24 54 57 54s57 -21 57 -54s-24 -56 -57 -56
s-57 23 -57 56zM223 855c0 33 24 54 57 54s57 -21 57 -54s-24 -56 -57 -56s-57 23 -57 56z" />
    <glyph glyph-name="Yacute" unicode="&#xdd;" horiz-adv-x="653" 
d="M76 689l-61 13v14l111 -2l118 2v-14l-62 -11v-10l170 -340l171 335v14l-66 11v15l100 -2l81 2v-15l-65 -13l-199 -383v-280l67 -13v-14l-112 2l-117 -2v14l68 11v274zM436 881l-111 -96l-21 17l76 125c6 11 16 17 25 19c22 5 42 -11 44 -33c2 -11 -3 -22 -13 -32z" />
    <glyph glyph-name="agrave" unicode="&#xe0;" horiz-adv-x="520" 
d="M124 331c-46 0 -59 57 -35 89c39 56 108 90 176 90c93 0 156 -38 156 -159v-256c0 -32 6 -57 25 -57c15 0 29 10 41 35l14 -9c-17 -39 -48 -73 -105 -69c-42 3 -61 34 -61 78v28c-25 -67 -82 -107 -148 -107c-90 0 -142 52 -142 116c0 79 48 119 205 155l85 21v70
c0 78 -28 125 -96 125c-27 0 -59 -10 -82 -33c10 -19 20 -43 20 -72c0 -28 -25 -45 -53 -45zM214 35c45 0 96 22 121 96v132l-78 -20c-100 -25 -124 -76 -124 -117c0 -58 36 -91 81 -91zM272 585l-111 96c-10 10 -15 21 -13 32c2 22 22 38 44 33c9 -2 19 -8 25 -19l76 -125z
" />
    <glyph glyph-name="aacute" unicode="&#xe1;" horiz-adv-x="520" 
d="M124 331c-46 0 -59 57 -35 89c39 56 108 90 176 90c93 0 156 -38 156 -159v-256c0 -32 6 -57 25 -57c15 0 29 10 41 35l14 -9c-17 -39 -48 -73 -105 -69c-42 3 -61 34 -61 78v28c-25 -67 -82 -107 -148 -107c-90 0 -142 52 -142 116c0 79 48 119 205 155l85 21v70
c0 78 -28 125 -96 125c-27 0 -59 -10 -82 -33c10 -19 20 -43 20 -72c0 -28 -25 -45 -53 -45zM214 35c45 0 96 22 121 96v132l-78 -20c-100 -25 -124 -76 -124 -117c0 -58 36 -91 81 -91zM383 685l-111 -96l-21 17l76 125c6 11 16 17 25 19c22 5 42 -11 44 -33
c2 -11 -3 -22 -13 -32z" />
    <glyph glyph-name="acircumflex" unicode="&#xe2;" horiz-adv-x="520" 
d="M124 331c-46 0 -59 57 -35 89c39 56 108 90 176 90c93 0 156 -38 156 -159v-256c0 -32 6 -57 25 -57c15 0 29 10 41 35l14 -9c-17 -39 -48 -73 -105 -69c-42 3 -61 34 -61 78v28c-25 -67 -82 -107 -148 -107c-90 0 -142 52 -142 116c0 79 48 119 205 155l85 21v70
c0 78 -28 125 -96 125c-27 0 -59 -10 -82 -33c10 -19 20 -43 20 -72c0 -28 -25 -45 -53 -45zM214 35c45 0 96 22 121 96v132l-78 -20c-100 -25 -124 -76 -124 -117c0 -58 36 -91 81 -91zM259 684h32l116 -109h-52l-81 78l-84 -78h-50z" />
    <glyph glyph-name="atilde" unicode="&#xe3;" horiz-adv-x="520" 
d="M124 331c-46 0 -59 57 -35 89c39 56 108 90 176 90c93 0 156 -38 156 -159v-256c0 -32 6 -57 25 -57c15 0 29 10 41 35l14 -9c-17 -39 -48 -73 -105 -69c-42 3 -61 34 -61 78v28c-25 -67 -82 -107 -148 -107c-90 0 -142 52 -142 116c0 79 48 119 205 155l85 21v70
c0 78 -28 125 -96 125c-27 0 -59 -10 -82 -33c10 -19 20 -43 20 -72c0 -28 -25 -45 -53 -45zM214 35c45 0 96 22 121 96v132l-78 -20c-100 -25 -124 -76 -124 -117c0 -58 36 -91 81 -91zM332 580c-64 11 -70 37 -134 49c-33 5 -60 -15 -56 -54l-14 5c-9 66 30 112 86 101
c63 -11 69 -37 134 -49c33 -5 60 15 56 54l14 -5c9 -66 -30 -112 -86 -101z" />
    <glyph glyph-name="adieresis" unicode="&#xe4;" horiz-adv-x="520" 
d="M124 331c-46 0 -59 57 -35 89c39 56 108 90 176 90c93 0 156 -38 156 -159v-256c0 -32 6 -57 25 -57c15 0 29 10 41 35l14 -9c-17 -39 -48 -73 -105 -69c-42 3 -61 34 -61 78v28c-25 -67 -82 -107 -148 -107c-90 0 -142 52 -142 116c0 79 48 119 205 155l85 21v70
c0 78 -28 125 -96 125c-27 0 -59 -10 -82 -33c10 -19 20 -43 20 -72c0 -28 -25 -45 -53 -45zM214 35c45 0 96 22 121 96v132l-78 -20c-100 -25 -124 -76 -124 -117c0 -58 36 -91 81 -91zM333 661c0 33 24 54 57 54s57 -21 57 -54s-24 -56 -57 -56s-57 23 -57 56zM136 661
c0 33 24 54 57 54s57 -21 57 -54s-24 -56 -57 -56s-57 23 -57 56z" />
    <glyph glyph-name="aring" unicode="&#xe5;" horiz-adv-x="520" 
d="M189 659c0 46 38 84 84 84s84 -38 84 -84s-38 -84 -84 -84s-84 38 -84 84zM222 659c0 -27 24 -51 51 -51s51 24 51 51s-24 51 -51 51s-51 -24 -51 -51zM124 331c-46 0 -59 57 -35 89c39 56 108 90 176 90c93 0 156 -38 156 -159v-256c0 -32 6 -57 25 -57
c15 0 29 10 41 35l14 -9c-17 -39 -48 -73 -105 -69c-42 3 -61 34 -61 78v28c-25 -67 -82 -107 -148 -107c-90 0 -142 52 -142 116c0 79 48 119 205 155l85 21v70c0 78 -28 125 -96 125c-27 0 -59 -10 -82 -33c10 -19 20 -43 20 -72c0 -28 -25 -45 -53 -45zM214 35
c45 0 96 22 121 96v132l-78 -20c-100 -25 -124 -76 -124 -117c0 -58 36 -91 81 -91z" />
    <glyph glyph-name="egrave" unicode="&#xe8;" horiz-adv-x="501" 
d="M451 298h-313c-1 -20 -2 -40 -2 -62c0 -91 56 -191 167 -191c57 0 113 24 142 89l14 -5c-34 -82 -109 -139 -194 -139c-148 0 -221 133 -221 246c0 129 77 274 224 274c93 0 183 -57 183 -178v-34zM266 486c-67 0 -109 -57 -124 -157h227c0 112 -49 157 -103 157z
M251 585l-111 96c-10 10 -15 21 -13 32c2 22 22 38 44 33c9 -2 19 -8 25 -19l76 -125z" />
    <glyph glyph-name="eacute" unicode="&#xe9;" horiz-adv-x="501" 
d="M451 298h-313c-1 -20 -2 -40 -2 -62c0 -91 56 -191 167 -191c57 0 113 24 142 89l14 -5c-34 -82 -109 -139 -194 -139c-148 0 -221 133 -221 246c0 129 77 274 224 274c93 0 183 -57 183 -178v-34zM266 486c-67 0 -109 -57 -124 -157h227c0 112 -49 157 -103 157z
M362 685l-111 -96l-21 17l76 125c6 11 16 17 25 19c22 5 42 -11 44 -33c2 -11 -3 -22 -13 -32z" />
    <glyph glyph-name="ecircumflex" unicode="&#xea;" horiz-adv-x="501" 
d="M451 298h-313c-1 -20 -2 -40 -2 -62c0 -91 56 -191 167 -191c57 0 113 24 142 89l14 -5c-34 -82 -109 -139 -194 -139c-148 0 -221 133 -221 246c0 129 77 274 224 274c93 0 183 -57 183 -178v-34zM266 486c-67 0 -109 -57 -124 -157h227c0 112 -49 157 -103 157z
M238 684h32l116 -109h-52l-81 78l-84 -78h-50z" />
    <glyph glyph-name="edieresis" unicode="&#xeb;" horiz-adv-x="501" 
d="M451 298h-313c-1 -20 -2 -40 -2 -62c0 -91 56 -191 167 -191c57 0 113 24 142 89l14 -5c-34 -82 -109 -139 -194 -139c-148 0 -221 133 -221 246c0 129 77 274 224 274c93 0 183 -57 183 -178v-34zM266 486c-67 0 -109 -57 -124 -157h227c0 112 -49 157 -103 157z
M312 661c0 33 24 54 57 54s57 -21 57 -54s-24 -56 -57 -56s-57 23 -57 56zM115 661c0 33 24 54 57 54s57 -21 57 -54s-24 -56 -57 -56s-57 23 -57 56z" />
    <glyph glyph-name="igrave" unicode="&#xec;" horiz-adv-x="282" 
d="M97 22v421l-53 10l2 40l137 12l1 -481l68 -12l-1 -15l-111 3l-108 -3l-2 15zM140 580l-111 96c-10 10 -15 21 -13 32c2 22 22 38 44 33c9 -2 19 -8 25 -19l76 -125z" />
    <glyph glyph-name="iacute" unicode="&#xed;" horiz-adv-x="282" 
d="M97 22v421l-53 10l2 40l137 12l1 -481l68 -12l-1 -15l-111 3l-108 -3l-2 15zM251 680l-111 -96l-21 17l76 125c6 11 16 17 25 19c22 5 42 -11 44 -33c2 -11 -3 -22 -13 -32z" />
    <glyph glyph-name="icircumflex" unicode="&#xee;" horiz-adv-x="282" 
d="M97 22v421l-53 10l2 40l137 12l1 -481l68 -12l-1 -15l-111 3l-108 -3l-2 15zM127 679h32l116 -109h-52l-81 78l-84 -78h-50z" />
    <glyph glyph-name="idieresis" unicode="&#xef;" horiz-adv-x="282" 
d="M97 22v421l-53 10l2 40l137 12l1 -481l68 -12l-1 -15l-111 3l-108 -3l-2 15zM201 656c0 33 24 54 57 54s57 -21 57 -54s-24 -56 -57 -56s-57 23 -57 56zM4 656c0 33 24 54 57 54s57 -21 57 -54s-24 -56 -57 -56s-57 23 -57 56z" />
    <glyph glyph-name="ntilde" unicode="&#xf1;" horiz-adv-x="590" 
d="M92 22v421l-53 10l2 40l137 12v-149c29 91 101 154 174 154c83 0 145 -36 145 -149v-337l68 -12l-1 -15l-110 3l-108 -3l-2 15l67 10v329c0 71 -25 110 -86 110c-72 0 -144 -75 -147 -183v-254l68 -12l-1 -15l-110 3l-108 -3l-2 15zM364 580c-64 11 -70 37 -134 49
c-33 5 -60 -15 -56 -54l-14 5c-9 66 30 112 86 101c63 -11 69 -37 134 -49c33 -5 60 15 56 54l14 -5c9 -66 -30 -112 -86 -101z" />
    <glyph glyph-name="ograve" unicode="&#xf2;" horiz-adv-x="578" 
d="M45 250c0 144 94 260 244 260s244 -116 244 -260s-94 -259 -244 -259s-244 115 -244 259zM139 250c0 -130 40 -237 150 -237s150 107 150 237s-40 239 -150 239s-150 -109 -150 -239zM288 585l-111 96c-10 10 -15 21 -13 32c2 22 22 38 44 33c9 -2 19 -8 25 -19l76 -125z
" />
    <glyph glyph-name="oacute" unicode="&#xf3;" horiz-adv-x="578" 
d="M45 250c0 144 94 260 244 260s244 -116 244 -260s-94 -259 -244 -259s-244 115 -244 259zM139 250c0 -130 40 -237 150 -237s150 107 150 237s-40 239 -150 239s-150 -109 -150 -239zM399 685l-111 -96l-21 17l76 125c6 11 16 17 25 19c22 5 42 -11 44 -33
c2 -11 -3 -22 -13 -32z" />
    <glyph glyph-name="ocircumflex" unicode="&#xf4;" horiz-adv-x="578" 
d="M45 250c0 144 94 260 244 260s244 -116 244 -260s-94 -259 -244 -259s-244 115 -244 259zM139 250c0 -130 40 -237 150 -237s150 107 150 237s-40 239 -150 239s-150 -109 -150 -239zM275 684h32l116 -109h-52l-81 78l-84 -78h-50z" />
    <glyph glyph-name="otilde" unicode="&#xf5;" horiz-adv-x="578" 
d="M45 250c0 144 94 260 244 260s244 -116 244 -260s-94 -259 -244 -259s-244 115 -244 259zM139 250c0 -130 40 -237 150 -237s150 107 150 237s-40 239 -150 239s-150 -109 -150 -239zM348 580c-64 11 -70 37 -134 49c-33 5 -60 -15 -56 -54l-14 5c-9 66 30 112 86 101
c63 -11 69 -37 134 -49c33 -5 60 15 56 54l14 -5c9 -66 -30 -112 -86 -101z" />
    <glyph glyph-name="odieresis" unicode="&#xf6;" horiz-adv-x="578" 
d="M45 250c0 144 94 260 244 260s244 -116 244 -260s-94 -259 -244 -259s-244 115 -244 259zM139 250c0 -130 40 -237 150 -237s150 107 150 237s-40 239 -150 239s-150 -109 -150 -239zM349 661c0 33 24 54 57 54s57 -21 57 -54s-24 -56 -57 -56s-57 23 -57 56zM152 661
c0 33 24 54 57 54s57 -21 57 -54s-24 -56 -57 -56s-57 23 -57 56z" />
    <glyph glyph-name="ugrave" unicode="&#xf9;" horiz-adv-x="590" 
d="M502 510v-466l53 -10l-2 -30l-132 -12v164c-25 -99 -97 -169 -174 -169c-87 0 -149 36 -149 149v312l-63 12l1 40l147 10v-364c0 -71 25 -110 86 -110c72 0 143 75 147 182v230l-63 12l1 40zM284 585l-111 96c-10 10 -15 21 -13 32c2 22 22 38 44 33c9 -2 19 -8 25 -19
l76 -125z" />
    <glyph glyph-name="uacute" unicode="&#xfa;" horiz-adv-x="590" 
d="M502 510v-466l53 -10l-2 -30l-132 -12v164c-25 -99 -97 -169 -174 -169c-87 0 -149 36 -149 149v312l-63 12l1 40l147 10v-364c0 -71 25 -110 86 -110c72 0 143 75 147 182v230l-63 12l1 40zM395 685l-111 -96l-21 17l76 125c6 11 16 17 25 19c22 5 42 -11 44 -33
c2 -11 -3 -22 -13 -32z" />
    <glyph glyph-name="ucircumflex" unicode="&#xfb;" horiz-adv-x="590" 
d="M502 510v-466l53 -10l-2 -30l-132 -12v164c-25 -99 -97 -169 -174 -169c-87 0 -149 36 -149 149v312l-63 12l1 40l147 10v-364c0 -71 25 -110 86 -110c72 0 143 75 147 182v230l-63 12l1 40zM271 684h32l116 -109h-52l-81 78l-84 -78h-50z" />
    <glyph glyph-name="udieresis" unicode="&#xfc;" horiz-adv-x="590" 
d="M502 510v-466l53 -10l-2 -30l-132 -12v164c-25 -99 -97 -169 -174 -169c-87 0 -149 36 -149 149v312l-63 12l1 40l147 10v-364c0 -71 25 -110 86 -110c72 0 143 75 147 182v230l-63 12l1 40zM345 661c0 33 24 54 57 54s57 -21 57 -54s-24 -56 -57 -56s-57 23 -57 56z
M148 661c0 33 24 54 57 54s57 -21 57 -54s-24 -56 -57 -56s-57 23 -57 56z" />
    <glyph glyph-name="yacute" unicode="&#xfd;" horiz-adv-x="525" 
d="M321 661l-111 -96l-21 17l76 125c6 11 16 17 25 19c22 5 42 -11 44 -33c2 -11 -3 -22 -13 -32z" />
    <glyph glyph-name="ydieresis" unicode="&#xff;" horiz-adv-x="525" 
d="M320 681c0 33 24 54 57 54s57 -21 57 -54s-24 -56 -57 -56s-57 23 -57 56zM123 681c0 33 24 54 57 54s57 -21 57 -54s-24 -56 -57 -56s-57 23 -57 56z" />
    <glyph glyph-name="space" unicode=" " horiz-adv-x="240" 
 />
  </font>
</defs>
</svg>
