<?xml version="1.0" standalone="no"?>
<!DOCTYPE svg PUBLIC "-//W3C//DTD SVG 1.1//EN" "http://www.w3.org/Graphics/SVG/1.1/DTD/svg11.dtd" >
<svg>
<metadata>
Created by FontForge 20110222 at Mon Mar  7 13:16:15 2011
 By www-data
Generated in 2007 by FontLab Studio. Copyright info pending.
</metadata>
<defs>
<font id="Serif72Beta-BlackItalic" horiz-adv-x="728" >
  <font-face 
    font-family="Serif72 Beta Bk"
    font-weight="800"
    font-style="italic"
    font-stretch="normal"
    units-per-em="1000"
    panose-1="0 0 0 0 0 0 0 0 0 0"
    ascent="750"
    descent="-250"
    x-height="500"
    cap-height="714"
    bbox="-237.803 -260 1142 954.92"
    underline-thickness="50"
    underline-position="-50"
    unicode-range="U+0020-2122"
  />
    <missing-glyph />
    <glyph glyph-name="hyphen" unicode="-" horiz-adv-x="506" 
d="M108 276l18 73h338l-18 -73h-338z" />
    <glyph glyph-name="period" unicode="." horiz-adv-x="183" 
d="M-8 45c9 34 36 54 90 54c49 0 68 -21 60 -54c-9 -35 -36 -56 -88 -56c-51 0 -70 23 -62 56z" />
    <glyph glyph-name="zero" unicode="0" horiz-adv-x="654" 
d="M107 357c40 208 179 367 362 367c172 0 257 -159 216 -367s-178 -366 -362 -366c-172 0 -258 158 -216 366zM272 357c-41 -194 -42 -341 57 -341c85 0 147 147 191 341c42 194 43 342 -56 342c-85 0 -149 -148 -192 -342z" />
    <glyph glyph-name="one" unicode="1" horiz-adv-x="341" 
d="M236 40l76 -13l-6 -29l-150 2l-153 -2l6 29l81 11l113 574h-78l8 31c58 3 124 23 161 71l75 2z" />
    <glyph glyph-name="two" unicode="2" horiz-adv-x="503" 
d="M147 132h320l18 27l20 -1l-59 -158h-449l12 59c273 232 363 316 399 462c30 118 6 158 -66 158c-21 0 -50 -5 -75 -35c8 -28 23 -67 15 -101c-11 -44 -46 -81 -106 -81c-79 0 -56 82 -18 137c62 70 158 120 246 120c99 0 221 -32 178 -197c-35 -132 -258 -272 -435 -389
v-1z" />
    <glyph glyph-name="three" unicode="3" horiz-adv-x="568" 
d="M205 337l-10 38l-2 8c195 28 219 101 233 172c13 65 -2 136 -69 136c-28 0 -65 -10 -94 -33c3 -28 10 -48 2 -89c-9 -46 -46 -67 -87 -67c-49 0 -49 70 -15 120c54 76 161 100 226 100c104 0 220 -50 197 -170c-17 -82 -99 -149 -252 -179l1 -10c166 -1 224 -87 206 -177
c-28 -140 -182 -195 -327 -195c-88 0 -169 46 -185 91c-13 73 30 144 80 144c44 0 57 -43 47 -85c-6 -34 -28 -60 -36 -73c6 -30 65 -49 100 -49c71 0 129 55 152 170c26 125 -26 179 -167 148z" />
    <glyph glyph-name="four" unicode="4" horiz-adv-x="564" 
d="M501 713l-400 -518h171l48 218h146l-48 -218h108l-7 -33h-108l-28 -129l72 -13l-4 -22l-118 2l-178 -2l4 22l78 11l28 131h-246l7 33h1c219 261 290 378 372 519z" />
    <glyph glyph-name="five" unicode="5" horiz-adv-x="541" 
d="M417 587h-220l-42 -187c46 31 112 53 173 53c170 0 217 -113 196 -214c-31 -155 -166 -248 -330 -248c-80 0 -151 46 -165 91c-15 66 27 130 77 130c44 0 58 -36 50 -71c-6 -34 -28 -60 -36 -73c4 -30 48 -49 80 -49c83 0 147 89 167 203c25 128 -5 179 -95 179
c-46 0 -86 -13 -125 -46l-37 1l84 358h338l-24 -164h-32c-2 19 -10 37 -59 37z" />
    <glyph glyph-name="six" unicode="6" horiz-adv-x="604" 
d="M618 586c-11 -40 -42 -57 -63 -57c-36 0 -49 26 -51 54c-3 24 1 54 26 84c-16 17 -30 22 -53 22c-96 0 -169 -136 -220 -355c44 74 113 105 163 105c144 0 211 -85 188 -202c-25 -121 -163 -242 -310 -242c-194 0 -238 168 -214 295c50 268 230 432 385 432
c74 0 174 -38 149 -136zM316 27c70 0 107 79 129 186c24 113 10 186 -53 186c-54 0 -112 -44 -148 -128c-19 -109 -29 -244 72 -244z" />
    <glyph glyph-name="seven" unicode="7" horiz-adv-x="431" 
d="M277 77c-4 -50 -36 -83 -87 -83c-46 0 -67 33 -56 83c29 155 111 314 305 504l5 3h-321l-23 -37l-20 1l48 166h415l-9 -50c-168 -208 -247 -400 -257 -587z" />
    <glyph glyph-name="eight" unicode="8" horiz-adv-x="513" 
d="M564 561c-14 -75 -83 -132 -169 -161c74 -45 143 -110 125 -207c-21 -108 -133 -200 -282 -200c-151 0 -243 77 -225 170c17 82 91 143 192 175c-62 42 -113 105 -97 193c19 103 125 190 261 190c131 0 212 -72 195 -160zM276 300c-11 4 -22 10 -33 16
c-55 -30 -86 -86 -98 -143c-16 -86 5 -155 98 -155c70 0 112 65 128 145c13 72 -43 114 -95 137zM335 434c10 -5 20 -11 31 -16c33 30 56 80 67 133c15 80 2 145 -69 145c-56 0 -92 -61 -107 -135c-12 -67 36 -107 78 -127z" />
    <glyph glyph-name="nine" unicode="9" horiz-adv-x="528" 
d="M36 94l-1 2c-7 61 30 116 75 116c40 0 55 -21 43 -81c-6 -25 -36 -69 -62 -91c15 -11 34 -16 54 -16c127 0 192 117 240 361c-38 -78 -98 -105 -138 -105c-132 0 -194 89 -169 215c24 114 150 227 287 227c180 0 209 -197 181 -343c-38 -196 -227 -384 -366 -384
c-85 0 -137 50 -144 99zM347 690c-67 0 -104 -85 -126 -201c-21 -104 -8 -178 51 -178c43 0 93 48 125 142c17 111 24 237 -50 237z" />
    <glyph glyph-name="A" unicode="A" 
d="M-34 17l73 13l433 681h91l47 -681l69 -13l-4 -19l-161 2l-151 -2l4 19l75 11l-8 191h-233l-121 -191l70 -11l-4 -19l-87 2l-97 -2zM419 563l-192 -303h205z" />
    <glyph glyph-name="B" unicode="B" horiz-adv-x="725" 
d="M152 693l6 21h290c188 0 291 -78 269 -180c-21 -103 -125 -150 -261 -168v-5c150 -12 256 -62 231 -178c-22 -102 -143 -183 -345 -183h-184l-150 -2l4 19l76 11l138 656zM239 30l1 -1h100c117 -1 174 84 189 157c16 73 1 160 -132 157h-91zM379 684l-66 -308h47
c133 -3 185 82 200 155c14 73 -6 155 -126 154z" />
    <glyph glyph-name="C" unicode="C" horiz-adv-x="655" 
d="M252 359l-1 -2c-42 -197 6 -330 101 -330c142 0 212 70 275 160l24 -10c-63 -115 -192 -184 -308 -184c-137 0 -315 109 -260 365c54 256 278 365 408 365c89 0 141 -29 166 -71l27 63h30l-44 -203h-26c0 111 -47 182 -158 182c-97 0 -190 -132 -234 -335z" />
    <glyph glyph-name="D" unicode="D" horiz-adv-x="762" 
d="M239 30l46 -1c197 -4 293 183 326 334c30 145 -6 323 -198 322l-34 -1zM158 714h280c241 0 370 -162 331 -348c-50 -239 -251 -366 -478 -366h-133l-150 -2l4 19l76 11l138 656l-74 9z" />
    <glyph glyph-name="E" unicode="E" horiz-adv-x="634" 
d="M158 714h521l-38 -187h-34l6 31c20 92 -47 128 -153 127l-81 -1l-67 -311c69 2 120 23 133 82l4 20h32l-49 -232h-33l4 20c12 58 -30 80 -97 82l-67 -315l114 -1c107 -1 189 35 209 127l7 31h33l-40 -187h-433l-121 -2l4 19l76 11l138 656l-74 9z" />
    <glyph glyph-name="F" unicode="F" horiz-adv-x="599" 
d="M158 714h550l-37 -187h-35l6 31c21 92 -47 128 -153 127l-110 -1l-67 -311h37c76 -1 131 19 145 82l4 20h35l-50 -232h-34l4 20c12 63 -35 83 -110 82h-37l-67 -315l74 -8l-5 -24l-150 2l-150 -2l4 19l76 11l138 656l-74 9z" />
    <glyph glyph-name="G" unicode="G" horiz-adv-x="793" 
d="M252 359l-1 -2c-42 -203 18 -341 133 -341c117 0 151 69 156 89l34 158l-73 19l5 22l151 -3l141 4l-4 -20l-69 -20l-38 -184c-61 -51 -195 -88 -309 -88c-153 0 -349 109 -295 365c55 256 304 365 449 365c106 0 181 -31 205 -51l21 43h31l-39 -183h-26
c-6 99 -65 168 -196 168c-121 0 -232 -138 -276 -341z" />
    <glyph glyph-name="H" unicode="H" horiz-adv-x="833" 
d="M239 30l69 -13l-4 -19l-146 2l-150 -2l4 19l76 11l138 656l-74 9l6 21l147 -2l151 2l-5 -21l-72 -9l-67 -315h304l67 315l-72 9l6 21l146 -2l149 2l-5 -21l-71 -9l-139 -654l70 -13l-4 -19l-148 2l-148 -2l4 19l74 11l64 307h-305z" />
    <glyph glyph-name="I" unicode="I" horiz-adv-x="374" 
d="M239 30l69 -13l-4 -19l-146 2l-150 -2l4 19l76 11l138 656l-74 9l6 21l147 -3l151 3l-5 -21l-72 -9z" />
    <glyph glyph-name="J" unicode="J" horiz-adv-x="461" 
d="M339 684l-72 9l6 21l148 -3l149 3l-5 -21l-76 -11l-85 -407c-36 -165 -152 -281 -331 -281c-58 0 -106 16 -96 58c7 34 37 66 71 66c68 0 32 -90 90 -90c34 0 69 47 99 175z" />
    <glyph glyph-name="K" unicode="K" horiz-adv-x="775" 
d="M239 30l69 -13l-4 -19l-146 2l-150 -2l4 19l76 11l138 656l-74 9l6 21l147 -3l151 3l-5 -21l-72 -9l-81 -380l353 361l1 16l-65 4l8 29l117 -2l103 2l-6 -28l-79 -9l-263 -252l207 -389l55 -12l-6 -21l-142 -1l-166 -1l5 20l72 12l2 11l-140 272l-68 -65z" />
    <glyph glyph-name="L" unicode="L" horiz-adv-x="641" 
d="M379 684l-140 -654h132c106 -1 194 49 223 178l7 31h31l-51 -239h-423l-150 -2l4 19l76 11l138 656l-74 9l6 21l147 -3l151 3l-5 -21z" />
    <glyph glyph-name="M" unicode="M" horiz-adv-x="962" 
d="M826 30l69 -13l-4 -19l-144 2l-151 -2l4 19l75 11l114 546l-376 -574h-26l-152 493l-100 -463l80 -13l-4 -19l-97 2l-107 -2l4 19l81 11l125 595c11 55 -23 64 -65 70l6 21h142l-37 -91l-1 -5l38 96l179 -542l360 542h202l-5 -21l-71 -9z" />
    <glyph glyph-name="N" unicode="N" horiz-adv-x="747" 
d="M726 682l-85 13l4 19l102 -2l108 2l-4 -19l-80 -11l-143 -684h-57l-330 512l-104 -482l79 -13l-3 -19l-100 2l-105 -2l4 19l81 11l125 595c11 55 -24 64 -66 70l6 21l135 -3l329 -516z" />
    <glyph glyph-name="O" unicode="O" horiz-adv-x="813" 
d="M83 357c44 208 218 367 445 367c211 0 333 -159 290 -367c-45 -208 -220 -366 -445 -366c-213 0 -335 158 -290 366zM252 357c-41 -194 -18 -341 126 -341c132 0 229 147 269 341c41 194 18 342 -124 342c-135 0 -230 -148 -271 -342z" />
    <glyph glyph-name="P" unicode="P" horiz-adv-x="689" 
d="M158 714h313c211 0 310 -86 285 -200c-28 -136 -198 -211 -371 -211h-88l-58 -273l69 -13l-4 -19l-146 2l-150 -2l4 19l76 11l64 306l74 350l-74 9zM305 336l90 -1c133 -4 186 92 204 176c17 83 -8 172 -142 171l-79 -1z" />
    <glyph glyph-name="Q" unicode="Q" horiz-adv-x="791" 
d="M83 357c44 208 218 367 445 367c211 0 333 -159 290 -367c-43 -198 -203 -350 -411 -365l-84 -42c120 -27 157 -95 257 -95c42 0 65 2 90 15c7 3 3 30 27 30c19 0 25 -16 13 -24c-29 -30 -107 -121 -176 -121c-139 0 -216 72 -312 106c-16 6 -39 3 -69 -16
c-28 27 -21 42 16 47l181 100c-199 10 -311 164 -267 365zM252 357c-41 -194 -18 -341 126 -341c132 0 229 147 269 341c41 194 18 342 -124 342c-135 0 -230 -148 -271 -342z" />
    <glyph glyph-name="R" unicode="R" horiz-adv-x="776" 
d="M239 30l69 -13l-4 -19l-146 2l-150 -2l4 19l76 11l138 656l-74 9l6 21h290c188 0 291 -78 269 -180c-21 -100 -118 -151 -248 -171c0 -3 0 -6 1 -6c104 -3 168 -71 164 -162l-3 -37c-8 -88 16 -115 58 -115c17 0 31 6 46 19l8 -12c-32 -25 -86 -56 -155 -56
c-85 0 -110 63 -112 163l2 39c5 68 -5 146 -56 146h-70h-4h-43zM434 685h-55l-67 -310h48c134 -3 185 83 200 156c14 73 -7 155 -126 154z" />
    <glyph glyph-name="S" unicode="S" horiz-adv-x="574" 
d="M112 202c17 -127 37 -186 144 -186c76 0 140 40 160 122c25 100 -97 142 -153 181c-107 68 -172 129 -152 210c32 128 174 194 280 194c72 0 124 -36 143 -61l23 53h31l-42 -192h-24c-3 100 -49 177 -133 177c-89 0 -131 -45 -148 -113c-22 -85 89 -119 150 -172
c99 -67 182 -140 162 -219c-37 -148 -160 -206 -290 -206c-76 0 -131 19 -164 80l-26 -69h-27l43 200z" />
    <glyph glyph-name="T" unicode="T" horiz-adv-x="647" 
d="M581 684h-50l-139 -656l69 -9l-6 -21l-145 3l-149 -3l5 21l71 9l138 656h-59c-86 1 -157 -37 -180 -134l-6 -30h-35l45 194h627l-42 -194h-30l5 30c22 97 -32 135 -119 134z" />
    <glyph glyph-name="U" unicode="U" horiz-adv-x="771" 
d="M360 -2c-149 0 -288 72 -256 219l98 467l-74 9l6 21l148 -3l150 3l-5 -21l-72 -9l-99 -465c-27 -122 45 -178 145 -178c128 0 207 59 234 188l97 455l-69 9l5 21l91 -3l93 3l-4 -21l-74 -9l-96 -457c-34 -154 -163 -229 -318 -229z" />
    <glyph glyph-name="V" unicode="V" horiz-adv-x="714" 
d="M838 694l-74 -13l-349 -568l1 -7l-28 -38l-42 -68h-77l-72 681l-66 13l6 19l158 -2l161 2l-6 -19l-81 -11l42 -513l314 513l-71 11l7 19l90 -2l93 2z" />
    <glyph glyph-name="W" unicode="W" horiz-adv-x="1013" 
d="M369 0h-114l-66 677l-58 17l6 21l182 -2l126 1l-6 -25l-73 -11l-9 -9l44 -516l268 561h50l108 -558l185 515l2 8l-84 13l5 21l101 -2l106 2l-6 -23l-72 -14l-254 -676h-126l-83 478z" />
    <glyph glyph-name="X" unicode="X" horiz-adv-x="740" 
d="M5 16l66 13l269 296l-2 7l-124 352l-61 13l5 19l139 -2l164 2l-5 -19l-70 -11l74 -229l206 229l-67 11l5 19l87 -2l100 2l-5 -19l-66 -13l-247 -268l11 -33l131 -354l61 -13l-6 -19l-152 2l-160 -2l6 19l73 11l-84 257l-227 -257l66 -11l-5 -19l-90 2l-97 -2z" />
    <glyph glyph-name="Y" unicode="Y" horiz-adv-x="717" 
d="M192 684l-59 13l4 19l169 -2l124 2l-4 -19l-73 -11l112 -346l235 333l2 12l-67 11l4 20l122 -2l86 2l-4 -20l-65 -13l-300 -391l-55 -262l68 -13l-4 -19l-115 2l-181 -2l4 19l75 11l57 269z" />
    <glyph glyph-name="Z" unicode="Z" horiz-adv-x="621" 
d="M164 713h489l-6 -25l-450 -655l179 1c105 0 167 66 177 114l7 34l36 -1l-44 -182h-532l7 39l446 644h-118c-67 0 -158 5 -196 -104l-11 -33l-32 2z" />
    <glyph glyph-name="a" unicode="a" horiz-adv-x="580" 
d="M144 -5c-103 0 -137 89 -105 205c65 227 235 310 318 310c33 0 52 -12 64 -45l25 35h124l-105 -362c-21 -76 -19 -98 6 -98c31 0 64 37 93 93l20 -9c-37 -76 -121 -138 -202 -129c-73 4 -80 69 -60 142l10 35c-36 -75 -103 -177 -188 -177zM202 60c69 0 142 169 162 219
l23 77c22 76 12 120 -45 120c-42 0 -101 -72 -154 -262c-27 -98 -25 -154 14 -154z" />
    <glyph glyph-name="b" unicode="b" horiz-adv-x="553" 
d="M52 167l152 537l-59 10l11 30l208 12l-103 -363c49 74 111 117 160 117c125 0 164 -111 124 -244c-27 -121 -154 -266 -329 -266c-55 0 -205 25 -164 167zM390 461c-44 0 -112 -62 -154 -155l-41 -147c-22 -73 -12 -130 31 -130c78 0 142 136 171 237
c31 111 40 195 -7 195z" />
    <glyph glyph-name="c" unicode="c" horiz-adv-x="465" 
d="M392 469c0 0 -17 12 -52 12c-63 0 -108 -102 -141 -243c-18 -107 5 -192 77 -192c54 0 117 32 163 114l18 -7c-49 -97 -141 -163 -222 -163c-142 0 -211 131 -185 244c32 134 136 276 279 276c56 0 108 -19 124 -66c14 -41 -8 -113 -61 -113c-34 0 -57 32 -49 64
c5 29 23 45 49 74z" />
    <glyph glyph-name="d" unicode="d" horiz-adv-x="599" 
d="M358 510c23 0 48 -8 66 -24l52 218l-61 10l10 30l207 12l-147 -619c-21 -76 -21 -97 6 -97c31 0 63 37 93 93l19 -9c-36 -76 -122 -138 -203 -129c-71 4 -82 68 -59 140c-49 -92 -115 -145 -163 -145c-131 0 -165 118 -131 241c36 129 151 279 311 279zM212 45
c42 0 115 80 157 205l30 130l-2 -3c14 50 7 104 -49 104c-65 0 -111 -100 -152 -250c-29 -101 -37 -186 16 -186z" />
    <glyph glyph-name="e" unicode="e" horiz-adv-x="472" 
d="M491 402c-28 -113 -219 -155 -290 -162c-1 -2 -1 -3 -1 -4c-25 -91 -20 -191 61 -191c52 0 118 30 168 109l18 -8c-61 -94 -158 -156 -240 -156c-150 0 -187 133 -155 246c36 129 150 274 310 274c84 0 147 -37 129 -108zM341 478c-51 0 -91 -75 -133 -214
c51 14 130 42 156 145c11 43 -2 69 -23 69z" />
    <glyph glyph-name="f" unicode="f" horiz-adv-x="298" 
d="M286 568l-14 -68h111l-11 -40h-108l-78 -394c-38 -183 -142 -311 -303 -311c-36 0 -63 24 -55 48c3 13 19 24 46 24c34 0 35 -38 65 -38c27 0 60 56 93 205l90 466h-66l8 31l66 9l4 18c30 145 132 234 243 234c51 0 105 -21 104 -65c1 -19 -21 -34 -48 -35
c-38 -2 -49 34 -41 70c-2 3 -9 6 -24 6c-24 0 -55 -42 -82 -160z" />
    <glyph glyph-name="g" unicode="g" horiz-adv-x="505" 
d="M64 340c19 93 118 170 252 170c26 0 50 -4 72 -10l177 10l-11 -45h-96c37 -31 53 -76 44 -125c-17 -92 -117 -169 -252 -169c-12 0 -23 1 -34 2c-17 -17 -31 -32 -34 -49c-6 -26 27 -44 62 -55l76 -20c105 -28 165 -76 153 -141c-13 -85 -171 -168 -294 -168
c-116 0 -242 41 -225 122c12 47 57 81 203 109c-66 23 -94 57 -84 107c7 38 46 73 107 101c-83 23 -129 86 -116 161zM196 -41c-5 1 -9 3 -13 4c-96 -28 -101 -54 -109 -91c-11 -60 41 -104 112 -103c86 1 161 22 173 83c8 46 -18 74 -72 86zM210 340
c-16 -80 -8 -144 44 -144c45 0 83 65 101 144c16 80 10 145 -44 145c-48 0 -83 -65 -101 -145z" />
    <glyph glyph-name="h" unicode="h" horiz-adv-x="620" 
d="M362 137l58 200c22 71 17 110 -21 110c-50 0 -132 -99 -180 -262l-39 -185h-144l174 704l-59 10l11 30l178 12l-90 -425c64 114 154 179 218 179c77 0 132 -46 99 -159l-62 -214c-21 -76 -21 -98 5 -98c32 0 65 37 94 93l20 -9c-37 -76 -122 -138 -204 -129
c-72 4 -78 69 -58 143z" />
    <glyph glyph-name="i" unicode="i" horiz-adv-x="326" 
d="M194 658c11 33 47 51 97 51c48 0 78 -18 67 -51c-9 -33 -47 -53 -96 -53c-48 0 -77 20 -68 53zM69 137l81 316l-57 10l12 30l203 12l-95 -368c-22 -76 -22 -97 5 -97c30 0 63 37 93 93l20 -9c-38 -76 -122 -138 -203 -129c-71 4 -79 69 -59 142z" />
    <glyph glyph-name="j" unicode="j" horiz-adv-x="314" 
d="M318 505l-97 -452c-36 -165 -151 -281 -320 -281c-57 0 -96 31 -89 62c13 49 44 66 86 66c68 0 13 -94 61 -94c34 0 67 47 97 175l105 472l-59 10l10 30zM193 658c11 33 46 51 98 51c46 0 77 -18 66 -51c-9 -33 -46 -53 -97 -53c-48 0 -76 20 -67 53z" />
    <glyph glyph-name="k" unicode="k" horiz-adv-x="552" 
d="M32 0l172 704l-61 10l11 30l208 12l-95 -384c54 83 128 139 199 139c61 0 100 -32 81 -97c-18 -62 -80 -109 -152 -140l48 -162c15 -45 20 -59 51 -59c14 0 48 19 78 83l19 -7c-35 -79 -117 -133 -190 -133c-50 0 -69 17 -89 97l-32 135l-53 -22l-51 -206h-144zM387 450
c-52 0 -118 -105 -143 -172l-11 -48l90 45c40 24 76 80 86 116c13 39 1 59 -22 59z" />
    <glyph glyph-name="l" unicode="l" horiz-adv-x="321" 
d="M63 137l142 567l-60 10l11 30l208 12l-157 -619c-22 -76 -20 -97 4 -97c32 0 66 37 94 93l20 -9c-36 -76 -121 -138 -202 -129c-72 4 -79 69 -60 142z" />
    <glyph glyph-name="m" unicode="m" horiz-adv-x="888" 
d="M212 180h-1l-49 -180h-144l124 453l-57 10l10 30l206 12l-46 -167c63 107 138 172 201 172c75 0 124 -44 95 -149c58 94 131 149 193 149c73 0 124 -46 92 -159l-63 -214c-20 -76 -20 -97 6 -97c31 0 64 37 93 93l20 -9c-37 -76 -121 -138 -203 -129
c-71 4 -78 69 -58 142l61 214c17 62 14 96 -15 96c-44 0 -113 -79 -158 -197l-70 -250h-144l105 361c16 55 10 86 -20 86c-50 0 -134 -110 -178 -267z" />
    <glyph glyph-name="n" unicode="n" horiz-adv-x="609" 
d="M352 137l60 214c17 62 11 96 -26 96c-46 0 -115 -92 -160 -228l-56 -219h-144l115 453l-58 10l10 30l206 12l-43 -167c57 108 135 172 200 172c77 0 132 -46 100 -159l-62 -214c-22 -76 -22 -97 5 -97c30 0 64 37 93 93l19 -9c-37 -76 -121 -138 -201 -129
c-73 4 -80 69 -58 142z" />
    <glyph glyph-name="o" unicode="o" horiz-adv-x="551" 
d="M51 230c34 156 153 280 288 280c139 0 223 -108 193 -240c-33 -156 -155 -279 -302 -279c-130 0 -207 107 -179 239zM190 230c-24 -118 -19 -214 45 -214c62 0 116 112 144 254c26 118 21 215 -46 215c-61 0 -111 -113 -143 -255z" />
    <glyph glyph-name="p" unicode="p" horiz-adv-x="558" 
d="M260 -11c-30 0 -58 8 -78 26l-52 -234l68 -12l-6 -20l-137 3l-142 -3l3 20l71 10l151 663l-62 14l8 27l205 22l-26 -126c49 80 116 130 178 130c104 0 145 -107 110 -260c-28 -119 -131 -260 -291 -260zM380 444c-45 0 -106 -68 -140 -170l-37 -166l-21 -93
c-10 10 -18 21 -24 37l48 70c-11 -50 -9 -104 43 -104c75 0 122 93 155 231c29 122 24 195 -24 195z" />
    <glyph glyph-name="q" unicode="q" horiz-adv-x="572" 
d="M551 362l-135 -584l66 -12l-6 -20l-136 3l-142 -3l4 20l71 10l91 380c-56 -103 -137 -161 -204 -161c-106 0 -144 111 -106 244c27 121 154 266 322 266c32 0 63 -24 83 -52l90 55l51 -4c-12 -37 -33 -81 -49 -142zM394 285v-1l22 89l-1 -1c10 48 9 104 -49 104
c-71 0 -134 -136 -164 -237c-29 -103 -27 -181 23 -181s134 93 169 227z" />
    <glyph glyph-name="r" unicode="r" horiz-adv-x="382" 
d="M36 0l107 453l-57 10l10 30l190 12l-37 -152c26 47 86 155 145 155c43 0 74 -28 62 -72c-8 -29 -32 -56 -73 -56c-34 0 -45 14 -60 35c-29 -15 -60 -69 -79 -120l-66 -295h-142z" />
    <glyph glyph-name="s" unicode="s" horiz-adv-x="444" 
d="M191 -6c-63 0 -131 22 -146 67c-10 35 5 64 48 64c28 0 29 -56 11 -84c18 -16 50 -26 91 -26c32 0 62 38 76 94c15 60 -43 79 -85 106c-77 53 -104 78 -82 165c21 84 134 126 217 126c40 0 105 -21 115 -59c12 -44 -13 -74 -47 -74c-35 0 -27 44 -12 94
c-13 10 -32 16 -59 16c-47 0 -76 -31 -88 -80c-13 -51 30 -70 78 -101c70 -49 114 -72 93 -159c-24 -93 -121 -149 -210 -149z" />
    <glyph glyph-name="t" unicode="t" horiz-adv-x="341" 
d="M69 460l7 27l68 13l25 98l149 17l-29 -115h131l-11 -40h-130l-81 -319c-16 -56 -18 -91 13 -95c41 -5 87 33 116 85l16 -13c-38 -71 -126 -120 -197 -121c-50 -1 -123 30 -94 133l82 330h-65z" />
    <glyph glyph-name="u" unicode="u" horiz-adv-x="611" 
d="M357 137l1 4c-54 -97 -124 -154 -185 -154c-81 0 -139 36 -111 149l80 322l-57 12l9 30l205 10l-93 -374c-16 -65 -5 -86 33 -86c43 0 111 91 153 228l44 175l-49 10l12 30l193 12l-92 -368c-20 -79 -16 -97 9 -97c31 0 63 37 90 93l20 -10c-33 -76 -116 -137 -197 -128
c-69 4 -83 69 -65 142z" />
    <glyph glyph-name="v" unicode="v" horiz-adv-x="450" 
d="M193 0h-57c-7 161 -30 292 -58 458l-52 8l9 30l182 19c28 -143 49 -234 54 -382c57 80 104 160 139 247c-9 18 -25 65 -18 91c7 31 29 56 47 56c55 0 59 -66 32 -116c-62 -128 -117 -217 -199 -319v-4z" />
    <glyph glyph-name="w" unicode="w" horiz-adv-x="701" 
d="M185 0h-62c-3 137 -13 308 -39 458l-52 8l9 30l187 19c16 -133 16 -232 17 -340l173 325h75c18 -147 28 -268 31 -371c58 94 96 180 127 268c-23 24 -29 51 -23 76c8 33 29 51 59 51c42 0 49 -63 27 -113c-58 -132 -112 -221 -188 -326v-12l-63 -73h-65
c0 113 -11 193 -21 327z" />
    <glyph glyph-name="x" unicode="x" horiz-adv-x="529" 
d="M255 514c31 -33 47 -89 65 -156c33 56 63 95 113 133c44 32 116 33 118 -13c4 -26 -21 -50 -52 -55c-34 -5 -41 8 -71 16c-32 -20 -71 -66 -100 -112l39 -172c27 -89 32 -106 60 -106c19 0 31 9 54 34l14 -9c-38 -53 -102 -84 -140 -84c-57 0 -91 29 -116 126l-8 33
c-38 -58 -75 -102 -130 -139c-46 -27 -110 -14 -117 19c-6 27 11 56 57 57c31 1 46 -8 72 -23c33 22 77 68 110 117l-30 121c-12 63 -27 118 -62 162l-49 5l10 33z" />
    <glyph glyph-name="y" unicode="y" horiz-adv-x="463" 
d="M186 0h-1l-30 -91c-29 -103 -103 -155 -146 -155c-38 0 -84 11 -93 54c-5 28 23 55 57 55c36 0 46 -34 58 -70c35 0 74 50 90 117l27 90h-1c-4 161 -25 292 -48 458l-53 8l9 30l183 19c24 -147 36 -221 37 -374c57 74 105 148 138 232c-10 18 -33 72 -26 98
c7 31 35 56 51 56c53 0 58 -66 32 -116c-77 -165 -158 -264 -284 -411z" />
    <glyph glyph-name="z" unicode="z" horiz-adv-x="464" 
d="M142 500h351l1 -13l-376 -378c108 16 169 -55 213 -55c34 0 39 9 48 17c-9 13 -14 30 -8 53c6 24 18 43 38 43c25 0 29 -20 22 -48c-10 -39 -93 -156 -176 -156c-101 -2 -118 38 -228 31l-29 -2l2 41l341 342h-134c-48 0 -81 -37 -100 -67l-27 6c15 22 30 59 36 81z" />
    <glyph glyph-name="ae" unicode="&#xe6;" horiz-adv-x="821" 
d="M193 331c-46 0 -43 57 -8 89c59 56 142 90 213 90c58 0 102 -13 120 -46c44 28 94 46 150 46c84 0 147 -37 129 -108c-28 -113 -219 -155 -290 -162c-1 -2 -1 -3 -1 -4c-25 -91 -20 -191 61 -191c52 0 118 30 168 109l18 -8c-61 -94 -158 -156 -240 -156
c-83 0 -131 40 -153 95c-58 -57 -136 -91 -216 -91c-78 0 -111 52 -89 116c24 69 85 113 246 145l63 12l28 89c22 78 16 120 -31 120c-28 0 -66 -10 -98 -33c5 -19 9 -38 0 -67c-9 -28 -40 -45 -70 -45zM254 68c28 0 66 7 101 33c-11 39 -10 85 1 128l-3 3l1 4l-24 -7
c-53 -8 -98 -41 -120 -103c-13 -39 8 -58 44 -58zM647 478c-51 0 -91 -75 -133 -214c51 14 130 42 156 145c11 43 -2 69 -23 69z" />
    <glyph glyph-name="oe" unicode="&#x153;" horiz-adv-x="791" 
d="M46 230c34 156 153 280 288 280c74 0 133 -31 167 -81c51 48 117 81 193 81c84 0 147 -37 129 -108c-28 -113 -219 -155 -290 -162c-1 -2 -1 -3 -1 -4c-25 -91 -20 -191 61 -191c52 0 118 30 168 109l18 -8c-61 -94 -158 -156 -240 -156c-67 0 -112 27 -138 66
c-50 -41 -111 -65 -176 -65c-130 0 -207 107 -179 239zM185 230c-24 -118 -19 -214 45 -214c62 0 116 112 144 254c26 118 21 215 -46 215c-61 0 -111 -113 -143 -255zM673 478c-51 0 -91 -75 -133 -214c51 14 130 42 156 145c11 43 -2 69 -23 69z" />
    <glyph glyph-name="exclam" unicode="!" horiz-adv-x="310" 
d="M314 630l-124 -407c-5 -20 -78 -18 -75 0l38 407c8 54 51 92 102 93c49 1 72 -36 59 -93zM54 47c7 33 41 57 81 57c39 0 65 -24 61 -57c-7 -33 -40 -52 -80 -52c-39 0 -69 19 -62 52z" />
    <glyph glyph-name="quotedbl" unicode="&#x22;" horiz-adv-x="365" 
d="M121 474l24 202c10 62 115 66 100 0l-54 -202h-70zM260 474l24 202c10 62 115 66 100 0l-54 -202h-70z" />
    <glyph glyph-name="numbersign" unicode="#" horiz-adv-x="521" 
d="M209 0l75 207h-100l-75 -207h-44l75 207h-115l10 43h121l75 206h-138l11 43h142l79 215h43l-78 -215h100l78 215h44l-79 -215h116l-11 -43h-120l-75 -206h137l-10 -43h-143l-75 -207h-43zM274 456l-75 -206h100l75 206h-100z" />
    <glyph glyph-name="dollar" unicode="$" horiz-adv-x="534" 
d="M112 202c16 -121 35 -180 129 -186l77 270c-21 12 -40 22 -55 33c-107 68 -172 129 -152 210c32 128 174 194 280 194c18 0 34 -3 49 -6l27 94h32l-29 -104c31 -12 53 -31 64 -45l23 53h31l-42 -192h-24c-2 66 -23 122 -61 152l-73 -258l3 -2c99 -67 182 -140 162 -219
c-37 -146 -157 -204 -285 -206l-24 -88h-35l25 89c-61 5 -107 26 -135 79l-26 -69h-27l43 200zM241 587c-19 -73 59 -108 120 -149l72 253c-13 6 -28 9 -44 9c-89 0 -131 -45 -148 -113zM416 138c15 61 -24 100 -70 130l-70 -251c67 6 122 46 140 121z" />
    <glyph glyph-name="percent" unicode="%" horiz-adv-x="820" 
d="M151 566c17 87 96 158 201 158c99 0 154 -71 139 -158c-18 -92 -97 -166 -202 -166c-100 0 -156 75 -138 166zM268 566c-15 -78 -15 -143 25 -143c37 0 67 64 82 143c14 74 13 135 -28 135c-38 0 -64 -61 -79 -135zM143 0l545 714h43l-545 -714h-43zM387 156
c18 87 94 158 200 158c99 0 156 -71 140 -158c-18 -92 -98 -166 -203 -166c-101 0 -156 75 -137 166zM504 156c-16 -78 -15 -143 25 -143c35 0 65 64 81 143c13 74 13 135 -27 135c-39 0 -65 -61 -79 -135z" />
    <glyph glyph-name="ampersand" unicode="&#x26;" horiz-adv-x="682" 
d="M622 91c14 0 27 7 41 22l8 -6c-42 -56 -105 -114 -160 -114c-45 0 -76 20 -104 57c-55 -35 -119 -58 -189 -58c-153 0 -236 60 -213 178c17 85 100 159 233 205l-18 35c-23 44 -34 102 -20 166c16 82 103 144 213 144c81 0 148 -44 132 -126c-15 -77 -93 -122 -163 -160
l82 -163c18 -36 34 -67 50 -92c13 17 24 34 33 51c-1 30 -21 42 -15 72c4 20 19 40 41 40c29 0 30 -23 19 -61c-14 -39 -37 -81 -66 -119c33 -49 63 -71 96 -71zM301 256l-47 89c-59 -58 -64 -90 -79 -164c-17 -82 30 -145 121 -145c35 0 69 12 100 31
c-29 45 -56 109 -95 189zM442 584c16 80 0 114 -32 114c-24 0 -48 -34 -64 -106c-9 -49 5 -92 25 -137c33 29 60 70 71 129z" />
    <glyph glyph-name="quotesingle" unicode="'" horiz-adv-x="183" 
d="M102 474l24 202c10 62 115 66 100 0l-54 -202h-70z" />
    <glyph glyph-name="parenleft" unicode="(" horiz-adv-x="331" 
d="M223 -214l-8 -15c-145 84 -189 313 -148 526c36 193 169 413 346 497l5 -15c-114 -94 -188 -318 -219 -482c-36 -182 -52 -417 24 -511z" />
    <glyph glyph-name="parenright" unicode=")" horiz-adv-x="331" 
d="M128 779l7 15c143 -84 188 -313 145 -526c-35 -193 -168 -413 -344 -497l-4 15c113 94 187 318 218 482c36 182 52 417 -22 511z" />
    <glyph glyph-name="asterisk" unicode="*" horiz-adv-x="476" 
d="M95 563l27 53l130 -53l25 154h54l-34 -153l150 53l6 -54l-153 -42l68 -119l-51 -32l-57 122l-106 -122l-38 32l113 118z" />
    <glyph glyph-name="plus" unicode="+" horiz-adv-x="476" 
d="M264 500h52l-34 -174h181l-10 -53h-182l-34 -175h-52l34 175h-182l9 53h184z" />
    <glyph glyph-name="comma" unicode="," horiz-adv-x="208" 
d="M14 45c6 33 34 54 67 54c30 0 51 -29 42 -74c-17 -88 -103 -158 -136 -175l-14 22c36 25 72 54 85 110c-29 5 -49 34 -44 63z" />
    <glyph glyph-name="slash" unicode="/" horiz-adv-x="456" 
d="M-32 -108l502 839h44l-503 -839h-43z" />
    <glyph glyph-name="colon" unicode=":" horiz-adv-x="222" 
d="M36 412c6 33 39 57 81 57c37 0 65 -24 59 -57c-7 -33 -40 -52 -80 -52s-67 19 -60 52zM4 47c6 33 39 57 81 57c37 0 65 -24 59 -57c-7 -33 -40 -52 -80 -52s-67 19 -60 52z" />
    <glyph glyph-name="semicolon" unicode=";" horiz-adv-x="228" 
d="M21 412c6 33 39 57 81 57c37 0 65 -24 59 -57c-7 -33 -40 -52 -80 -52s-67 19 -60 52zM22 45c6 33 34 54 67 54c30 0 51 -29 42 -74c-17 -88 -103 -158 -136 -175l-14 22c36 25 72 54 85 110c-29 5 -49 34 -44 63z" />
    <glyph glyph-name="less" unicode="&#x3c;" horiz-adv-x="416" 
d="M436 441l-350 -149l293 -144l-9 -48l-342 168l10 47l407 169z" />
    <glyph glyph-name="equal" unicode="=" horiz-adv-x="516" 
d="M65 366l12 53h436l-12 -53h-436zM34 203l10 53h436l-10 -53h-436z" />
    <glyph glyph-name="greater" unicode="&#x3e;" horiz-adv-x="416" 
d="M5 143l348 149l-290 144l9 48l340 -168l-10 -47l-406 -169z" />
    <glyph glyph-name="question" unicode="?" horiz-adv-x="482" 
d="M315 349l-30 -154c-6 -30 -134 -29 -128 0l19 106c102 44 168 148 184 234c20 100 -2 156 -57 156c-31 0 -58 -3 -93 -27c16 -25 28 -61 21 -91c-8 -42 -39 -81 -90 -81c-44 0 -46 72 -14 123c55 64 141 110 224 110c112 0 193 -48 171 -160c-22 -108 -99 -165 -207 -216
zM125 47c6 33 40 57 82 57c37 0 64 -24 58 -57c-7 -33 -38 -52 -80 -52c-39 0 -67 19 -60 52z" />
    <glyph glyph-name="at" unicode="@" horiz-adv-x="877" 
d="M844 325c-25 -136 -172 -289 -306 -289c-46 0 -70 31 -46 112l7 25c-34 -64 -98 -142 -175 -142c-70 0 -102 74 -74 169c51 186 196 255 258 255c34 0 54 -8 69 -36l17 29h62l-92 -299c-22 -72 -9 -80 21 -80c76 0 170 134 191 246c29 148 -20 288 -205 289
c-191 1 -392 -151 -443 -412c-34 -177 39 -315 225 -315c111 0 194 37 261 90l6 -12c-68 -60 -156 -109 -291 -109c-207 0 -309 161 -274 346c55 276 293 445 522 444c236 -1 299 -151 267 -311zM514 203c-4 -10 -9 -20 -15 -30l26 85l22 70c19 64 4 98 -56 98
c-51 0 -116 -58 -163 -216c-23 -80 -10 -126 44 -126c85 0 162 194 162 194l15 -74z" />
    <glyph glyph-name="bracketleft" unicode="[" horiz-adv-x="338" 
d="M163 -119l85 -13l-4 -19h-202l182 925h200l-4 -21l-88 -9z" />
    <glyph glyph-name="backslash" unicode="\" horiz-adv-x="456" 
d="M175 731l175 -839h-44l-173 839h42z" />
    <glyph glyph-name="bracketright" unicode="]" horiz-adv-x="338" 
d="M218 742l-81 13l3 19h197l-181 -925h-198l4 21l87 9z" />
    <glyph glyph-name="asciicircum" unicode="^" horiz-adv-x="320" 
d="M281 432l-41 230l-126 -230h-46l163 279h46l52 -279h-48z" />
    <glyph glyph-name="underscore" unicode="_" horiz-adv-x="476" 
d="M-33 -86l8 43h417l-9 -43h-416z" />
    <glyph glyph-name="grave" unicode="`" horiz-adv-x="275" 
d="M260 565l-91 96c-8 10 -10 21 -6 32c6 22 29 38 49 33c9 -2 18 -8 21 -19l51 -125z" />
    <glyph glyph-name="braceleft" unicode="{" horiz-adv-x="328" 
d="M117 288c78 -26 76 -155 54 -219c-45 -158 -34 -226 31 -272l-8 -15c-141 24 -202 106 -144 287c25 89 45 192 -25 211l4 16c77 19 99 122 107 211c12 181 106 263 255 287l4 -15c-85 -46 -122 -114 -138 -272c-3 -64 -52 -193 -140 -219z" />
    <glyph glyph-name="bar" unicode="|" horiz-adv-x="240" 
d="M239 731l-176 -899h-43l176 899h43z" />
    <glyph glyph-name="braceright" unicode="}" horiz-adv-x="328" 
d="M231 288c-78 26 -75 155 -53 219c44 158 35 226 -30 272l6 15c140 -24 201 -106 144 -287c-26 -89 -44 -192 26 -211l-3 -16c-78 -19 -101 -122 -109 -211c-13 -181 -107 -263 -255 -287l-3 15c86 46 121 114 138 272c3 64 51 193 139 219z" />
    <glyph glyph-name="asciitilde" unicode="~" horiz-adv-x="653" 
d="M409 333c15 -33 38 -73 102 -73c35 0 80 21 104 68c-8 17 -21 32 -19 52c1 22 15 46 37 46s29 -33 15 -61c-33 -102 -146 -184 -223 -184c-70 0 -131 38 -163 99c-18 30 -34 73 -92 73c-35 0 -78 -21 -104 -68c8 -17 21 -32 20 -52c-6 -23 -17 -46 -38 -46
c-25 0 -29 33 -17 61c36 102 140 184 226 184c66 0 125 -37 152 -99z" />
    <glyph glyph-name="exclamdown" unicode="&#xa1;" horiz-adv-x="310" 
d="M154 276l-124 -407c-13 -57 10 -94 59 -93c51 1 94 39 102 93l38 407c3 18 -70 20 -75 0zM290 452c-7 -33 -41 -57 -81 -57c-39 0 -65 24 -61 57c7 33 40 52 80 52c39 0 69 -19 62 -52z" />
    <glyph glyph-name="cent" unicode="&#xa2;" horiz-adv-x="478" 
d="M155 -108l32 104c-110 25 -160 138 -137 238c32 134 136 276 279 276c5 0 10 0 16 -1l34 112l34 -1l-35 -116c35 -9 64 -28 75 -60c14 -41 -8 -113 -61 -113c-30 0 -51 24 -51 51l-99 -329c10 -5 21 -7 34 -7c54 0 117 32 163 114l18 -7c-49 -97 -141 -163 -222 -163h-12
l-29 -98h-39zM199 238c-11 -65 -7 -122 14 -157l123 400c-61 -5 -105 -105 -137 -243zM392 469c0 0 -8 5 -22 8l-16 -54c9 15 21 28 38 46z" />
    <glyph glyph-name="sterling" unicode="&#xa3;" horiz-adv-x="560" 
d="M393 720c68 0 109 -29 125 -49l18 43h29l-35 -177h-23c3 87 -13 155 -80 155c-84 0 -116 -73 -135 -223l-7 -54c-2 -17 -5 -34 -8 -49h167l-8 -40h-169c-29 -109 -83 -180 -136 -227c12 4 22 7 31 7c112 5 206 -54 251 -54c19 0 56 15 55 23c-9 13 -24 34 -20 53
c5 24 20 43 49 43c19 0 26 -20 21 -48c-11 -50 -87 -152 -162 -152c-77 -2 -151 30 -227 32c-10 0 -21 0 -34 -1l-109 -10l-10 13l16 15h1l11 10c59 50 82 127 109 296h-66l8 40h64l3 20l8 60c26 166 109 274 263 274z" />
    <glyph glyph-name="yen" unicode="&#xa5;" horiz-adv-x="645" 
d="M849 696l-65 -13l-273 -355h49l-7 -37h-69l-16 -77h69l-7 -37h-70l-31 -147l68 -13l-4 -19l-115 2l-181 -2l4 19l75 11l32 149h-205l7 37h206l16 77h-206l7 37h189l-124 356l-59 13l4 19l169 -2l124 2l-4 -19l-73 -11l112 -346l235 333l2 12l-67 11l4 20l122 -2l86 2z
" />
    <glyph glyph-name="brokenbar" unicode="&#xa6;" horiz-adv-x="240" 
d="M63 -168h-43l75 383h43zM239 731l-69 -354h-43l69 354h43z" />
    <glyph glyph-name="section" unicode="&#xa7;" horiz-adv-x="530" 
d="M129 552c22 113 148 167 230 167c70 0 115 -34 128 -53l20 46h25l-35 -178h-21c0 96 -49 161 -120 161c-65 0 -102 -24 -114 -83c-13 -66 69 -96 134 -143c90 -64 140 -111 121 -224c-18 -87 -83 -138 -156 -158c56 -51 78 -105 65 -173c-21 -105 -134 -159 -235 -159
c-75 0 -120 33 -149 65l-19 -55h-23l36 187l23 1c6 -116 40 -171 134 -171c52 0 91 35 104 98c15 80 -61 113 -116 146c-116 57 -159 110 -143 193c17 88 90 143 161 167c-54 51 -62 104 -50 166zM376 182c16 80 -82 119 -131 156c-17 9 -31 19 -44 29
c-28 -15 -46 -44 -54 -86c-13 -68 76 -108 141 -152l28 -20c31 11 52 34 60 73z" />
    <glyph glyph-name="dieresis" unicode="&#xa8;" horiz-adv-x="453" 
d="M316 680c4 22 25 37 52 37c24 0 42 -15 38 -37c-4 -21 -25 -33 -51 -33s-43 12 -39 33zM90 682c4 22 25 37 52 37c24 0 42 -15 38 -37c-4 -21 -25 -33 -51 -33s-43 12 -39 33z" />
    <glyph glyph-name="ordfeminine" unicode="&#xaa;" horiz-adv-x="466" 
d="M207 582c-34 0 -36 45 -13 70c37 43 90 70 139 70c77 0 133 -30 114 -124l-31 -160c-5 -25 -3 -42 11 -42c11 0 26 4 36 17l9 -7c-21 -26 -61 -48 -104 -46c-43 4 -57 27 -51 61l2 9c-25 -42 -70 -70 -115 -70c-70 0 -109 36 -101 80c13 56 56 90 186 111l55 10l9 41
c13 61 0 93 -44 93c-18 0 -41 -8 -59 -23c4 -14 10 -32 5 -54c-4 -23 -27 -36 -48 -36zM232 405c29 0 66 4 93 58l14 72l-51 -10c-59 -14 -80 -44 -85 -73c-8 -38 7 -47 29 -47z" />
    <glyph glyph-name="guillemotleft" unicode="&#xab;" horiz-adv-x="462" 
d="M255 379l-132 -186l58 -187l-20 -9l-121 189l3 16l195 189zM436 379l-132 -186l58 -187l-20 -9l-121 189l3 16l195 189z" />
    <glyph glyph-name="macron" unicode="&#xaf;" horiz-adv-x="426" 
d="M135 671l7 43h328l-8 -43h-327z" />
    <glyph glyph-name="degree" unicode="&#xb0;" horiz-adv-x="285" 
d="M108 612c13 61 69 109 129 109c57 0 98 -48 86 -109c-11 -61 -68 -109 -129 -109c-56 0 -97 48 -86 109zM141 612c-8 -42 18 -76 59 -76c39 0 83 34 91 76s-19 76 -61 76c-39 0 -82 -34 -89 -76z" />
    <glyph glyph-name="plusminus" unicode="&#xb1;" horiz-adv-x="476" 
d="M264 500h52l-34 -174h181l-10 -53h-182l-34 -175h-52l34 175h-182l9 53h184zM-25 1l8 43h417l-9 -43h-416z" />
    <glyph glyph-name="twosuperior" unicode="&#xb2;" horiz-adv-x="356" 
d="M168 394h202l10 20l15 -1l-37 -124h-303l6 32c174 152 218 225 233 300c6 32 -7 60 -56 60c-24 0 -47 -7 -71 -20c8 -21 19 -37 14 -62c-4 -20 -25 -38 -49 -38c-32 0 -33 47 -12 78c42 50 99 86 163 86c87 0 149 -36 134 -112c-16 -84 -114 -142 -249 -219z" />
    <glyph glyph-name="threesuperior" unicode="&#xb3;" horiz-adv-x="395" 
d="M176 489l-7 20l-3 5c123 20 139 61 148 108c8 37 -8 76 -56 76c-17 0 -43 -8 -62 -25c6 -17 10 -25 4 -51c-5 -26 -23 -37 -48 -37c-34 0 -36 38 -14 67c38 53 115 72 161 72c71 0 153 -30 139 -104c-11 -52 -64 -90 -170 -108l1 -5c107 0 159 -50 149 -97
c-17 -88 -127 -122 -226 -122c-64 0 -120 33 -131 65c-13 38 15 74 50 74c22 0 31 -20 26 -44c-4 -17 -16 -29 -23 -35c4 -22 44 -36 69 -36c51 0 93 30 106 100c12 61 -26 91 -113 77z" />
    <glyph glyph-name="acute" unicode="&#xb4;" horiz-adv-x="275" 
d="M286 661l-129 -96l-17 17l99 125c8 11 20 17 28 19c23 5 40 -11 37 -33c1 -11 -7 -22 -18 -32z" />
    <glyph glyph-name="mu" unicode="&#xb5;" horiz-adv-x="605" 
d="M-3 -109l141 567l-59 10l10 30h4l1 2l190 9l13 1h2l-93 -374c-16 -65 -5 -86 33 -86c43 0 111 91 153 228l44 175l-49 10l12 30l193 12l-92 -368c-20 -79 -16 -97 9 -97c31 0 63 37 90 93l20 -10c-33 -76 -116 -137 -197 -128c-69 4 -83 69 -65 142l1 4
c-54 -97 -124 -154 -185 -154h-8l-24 -96c-22 -76 -21 -97 3 -97c32 0 67 37 95 93l19 -9c-36 -76 -120 -138 -202 -129c-72 4 -79 69 -59 142z" />
    <glyph glyph-name="mu" unicode="&#x3bc;" horiz-adv-x="605" 
d="M-3 -109l141 567l-59 10l10 30h4l1 2l190 9l13 1h2l-93 -374c-16 -65 -5 -86 33 -86c43 0 111 91 153 228l44 175l-49 10l12 30l193 12l-92 -368c-20 -79 -16 -97 9 -97c31 0 63 37 90 93l20 -10c-33 -76 -116 -137 -197 -128c-69 4 -83 69 -65 142l1 4
c-54 -97 -124 -154 -185 -154h-8l-24 -96c-22 -76 -21 -97 3 -97c32 0 67 37 95 93l19 -9c-36 -76 -120 -138 -202 -129c-72 4 -79 69 -59 142z" />
    <glyph glyph-name="paragraph" unicode="&#xb6;" horiz-adv-x="516" 
d="M202 17l69 13l53 273c-162 5 -274 79 -247 211c24 114 158 200 344 200h172l-3 -21l-70 -9l-129 -656l67 -11l-4 -19l-67 2h-78l-111 -2zM239 511c-17 -81 -10 -172 92 -176l67 345c-98 -11 -145 -92 -159 -169zM364 335h53l68 347h-54zM303 24l54 2l54 277h-54z" />
    <glyph glyph-name="periodcentered" unicode="&#xb7;" horiz-adv-x="202" 
d="M-3 306c6 33 39 57 81 57c37 0 65 -24 59 -57c-7 -33 -40 -52 -80 -52s-67 19 -60 52z" />
    <glyph glyph-name="cedilla" unicode="&#xb8;" horiz-adv-x="478" 
d="M126 -127l65 152h32l-34 -77s26 9 61 9c52 0 94 -30 83 -85c-26 -137 -236 -119 -236 -119l3 25s125 -2 137 59c4 30 -20 37 -48 37c-20 0 -39 -4 -56 -10z" />
    <glyph glyph-name="onesuperior" unicode="&#xb9;" horiz-adv-x="274" 
d="M238 312l54 -9l-5 -22l-113 2l-111 -2l5 22l53 7l66 333h-65l5 22c39 2 80 17 105 51h85z" />
    <glyph glyph-name="ordmasculine" unicode="&#xba;" horiz-adv-x="419" 
d="M129 546c21 99 100 178 206 178c100 0 156 -79 136 -178c-21 -104 -100 -186 -207 -186c-100 0 -156 82 -135 186zM234 546c-18 -88 -16 -163 34 -163c46 0 78 75 97 163c18 84 16 155 -34 155c-48 0 -81 -71 -97 -155z" />
    <glyph glyph-name="guillemotright" unicode="&#xbb;" horiz-adv-x="462" 
d="M5 9l131 186l-59 187l22 9l120 -189l-3 -16l-194 -189zM186 9l131 186l-59 187l22 9l120 -189l-3 -16l-194 -189z" />
    <glyph glyph-name="onequarter" unicode="&#xbc;" horiz-adv-x="800" 
d="M106 0l575 714h43l-575 -714h-43zM381 110l4 23h1l312 302l62 -1l-58 -295h63l-5 -29h-64l-16 -85l53 -9l-4 -16l-113 2l-112 -2l4 16l53 8l16 86h-196zM618 322l-187 -183h152zM273 312l54 -9l-5 -22l-113 2l-111 -2l5 22l53 7l66 333h-65l5 22c39 2 80 17 105 51h85z
" />
    <glyph glyph-name="onehalf" unicode="&#xbd;" horiz-adv-x="856" 
d="M273 312l54 -9l-5 -22l-113 2l-111 -2l5 22l53 7l66 333h-65l5 22c39 2 80 17 105 51h85zM102 0l575 714h43l-575 -714h-43zM570 104h202l10 20l15 -1l-37 -124h-303l6 32c174 152 218 225 233 300c6 32 -7 60 -56 60c-24 0 -47 -7 -71 -20c8 -21 19 -37 14 -62
c-4 -20 -25 -38 -49 -38c-32 0 -33 47 -12 78c42 50 99 86 163 86c87 0 149 -36 134 -112c-16 -84 -114 -142 -249 -219z" />
    <glyph glyph-name="threequarters" unicode="&#xbe;" horiz-adv-x="923" 
d="M224 489l-7 20l-3 5c123 20 139 61 148 108c8 37 -8 76 -56 76c-17 0 -43 -8 -62 -25c6 -17 10 -25 4 -51c-5 -26 -23 -37 -48 -37c-34 0 -36 38 -14 67c38 53 115 72 161 72c71 0 153 -30 139 -104c-11 -52 -64 -90 -170 -108l1 -5c107 0 159 -50 149 -97
c-17 -88 -127 -122 -226 -122c-64 0 -120 33 -131 65c-13 38 15 74 50 74c22 0 31 -20 26 -44c-4 -17 -16 -29 -23 -35c4 -22 44 -36 69 -36c51 0 93 30 106 100c12 61 -26 91 -113 77zM224 0l575 714h43l-575 -714h-43zM500 110l4 23h1l312 302l62 -1l-58 -295h63l-5 -29
h-64l-16 -85l53 -9l-4 -16l-113 2l-112 -2l4 16l53 8l16 86h-196zM737 322l-187 -183h152z" />
    <glyph glyph-name="questiondown" unicode="&#xbf;" horiz-adv-x="482" 
d="M201 151l30 154c6 30 134 29 128 0l-19 -106c-102 -44 -168 -148 -184 -234c-20 -100 2 -156 57 -156c31 0 58 3 93 27c-16 25 -28 61 -21 91c8 42 39 81 90 81c44 0 46 -72 14 -123c-55 -64 -141 -110 -224 -110c-112 0 -193 48 -171 160c22 108 99 165 207 216z
M391 453c-6 -33 -40 -57 -82 -57c-37 0 -64 24 -58 57c7 33 38 52 80 52c39 0 67 -19 60 -52z" />
    <glyph glyph-name="AE" unicode="&#xc6;" horiz-adv-x="995" 
d="M594 714h456l-34 -187h-31l5 31c18 92 -45 128 -144 127l-89 -1l-61 -311h2c69 -1 121 19 134 82l4 20h31l-45 -232h-31l3 20c11 63 -33 83 -102 82h-1l-61 -315l118 -1c99 -1 177 35 195 127l7 31h29l-37 -187h-431l-117 -2l4 19l70 11l40 210h-263l-172 -210l66 -11
l-4 -19l-82 2l-90 -2l4 19l61 13zM279 279h237l74 377z" />
    <glyph glyph-name="Eth" unicode="&#xd0;" horiz-adv-x="711" 
d="M35 344l5 36h133l64 304l-74 9l6 21h280c241 0 370 -162 331 -348c-50 -239 -251 -366 -478 -366h-133l-150 -2l4 19l76 11l66 316h-130zM250 30l46 -1c197 -4 293 183 326 334c30 145 -6 323 -198 322l-34 -1l-66 -304h34l-5 -36h-36z" />
    <glyph glyph-name="multiply" unicode="&#xd7;" horiz-adv-x="476" 
d="M409 460l29 -38l-151 -128l102 -128l-44 -38l-103 128l-151 -128l-31 37l152 129l-102 129l45 37l102 -129z" />
    <glyph glyph-name="Oslash" unicode="&#xd8;" horiz-adv-x="780" 
d="M125 -97l78 133c-100 61 -147 179 -116 321c44 208 218 367 445 367c25 0 49 -2 72 -7l49 84h46l-56 -94c141 -46 213 -182 179 -350c-45 -208 -220 -366 -445 -366c-53 0 -100 10 -140 27l-68 -115h-44zM651 357c29 140 26 255 -32 309l-351 -594c23 -36 60 -56 114 -56
c132 0 229 147 269 341zM256 357c-21 -97 -25 -182 -7 -243l337 574c-17 7 -36 11 -59 11c-135 0 -230 -148 -271 -342z" />
    <glyph glyph-name="Thorn" unicode="&#xde;" horiz-adv-x="688" 
d="M234 30l64 -13l-4 -19l-130 2l-165 -2l4 19l70 11l129 656l-69 9l5 21h308l-4 -23l-80 -7l-24 -120h100c182 0 266 -78 246 -180c-22 -124 -155 -191 -319 -191h-99zM424 532h-92l-60 -307h103c101 -4 134 82 149 156c13 73 4 152 -100 151z" />
    <glyph glyph-name="germandbls" unicode="&#xdf;" horiz-adv-x="564" 
d="M268 548l-107 -548l-210 -3l2 20l57 10l91 471c26 136 132 254 304 254c111 0 190 -49 172 -134c-15 -72 -72 -124 -143 -155c59 -108 125 -166 101 -294c-23 -108 -120 -178 -214 -178c-72 0 -115 40 -123 62c-3 22 10 44 28 44c16 0 31 -12 25 -43l-6 -25
c14 -10 34 -19 59 -19s66 28 84 120c10 57 -18 146 -62 223c-11 16 -4 27 12 41c69 72 96 148 110 217c11 61 0 117 -60 117c-62 0 -100 -76 -120 -180z" />
    <glyph glyph-name="eth" unicode="&#xf0;" horiz-adv-x="574" 
d="M253 547l-9 30l119 45c-26 34 -66 60 -124 71l13 29c75 -7 144 -29 198 -67l122 46l8 -30l-102 -39c72 -66 108 -170 78 -322c-26 -135 -131 -315 -321 -315c-146 0 -237 120 -213 241c29 147 135 251 277 251c40 0 93 -26 107 -95c7 71 5 146 -26 203zM229 27
c89 0 139 160 163 278c7 99 -36 134 -83 134c-55 0 -97 -72 -120 -197c-26 -125 -22 -215 40 -215z" />
    <glyph glyph-name="divide" unicode="&#xf7;" horiz-adv-x="476" 
d="M29 275l9 53h437l-10 -53h-436zM117 155c6 33 39 57 81 57c37 0 65 -24 59 -57c-7 -33 -40 -52 -80 -52s-67 19 -60 52zM142 456c6 33 39 57 81 57c37 0 65 -24 59 -57c-7 -33 -40 -52 -80 -52s-67 19 -60 52z" />
    <glyph glyph-name="oslash" unicode="&#xf8;" horiz-adv-x="570" 
d="M56 -81l65 100c-64 40 -95 120 -75 211c34 156 153 280 288 280c34 0 66 -7 93 -19l55 85h39l-66 -101c62 -42 91 -119 72 -205c-33 -156 -155 -279 -302 -279c-28 0 -53 5 -75 14l-56 -86h-38zM185 230c-10 -50 -15 -95 -13 -132l213 328c-7 36 -25 59 -57 59
c-61 0 -111 -113 -143 -255zM374 270c8 37 13 71 14 102l-207 -319c9 -24 25 -37 49 -37c62 0 116 112 144 254z" />
    <glyph glyph-name="thorn" unicode="&#xfe;" horiz-adv-x="612" 
d="M139 -217l65 -12l-5 -20l-125 3l-161 -3l2 20l67 10l175 896l-50 19l6 37l215 22l-27 -138l-42 -216c36 63 101 108 160 108c134 0 191 -128 166 -251c-24 -129 -136 -269 -317 -269c-30 0 -61 9 -84 27zM374 444c-46 0 -103 -38 -125 -94l-47 -243c-3 -38 15 -75 77 -75
c73 0 120 84 147 226c18 94 13 186 -52 186z" />
    <glyph glyph-name="OE" unicode="&#x152;" horiz-adv-x="995" 
d="M617 714h431l-33 -187h-31l5 31c18 92 -45 128 -144 127l-89 -1l-60 -311c70 -1 124 19 137 82l4 20h29l-45 -232h-29l2 20c12 63 -34 83 -103 82h-1l-61 -316h120c99 -1 175 35 193 127l7 31h29l-37 -187h-479c-34 -4 -74 -7 -116 -7c-146 0 -336 109 -286 365
c49 256 291 365 429 365c51 0 95 -4 128 -9zM240 359c-42 -205 8 -343 113 -343c51 0 89 12 118 31l121 626c-24 16 -59 27 -106 27c-111 0 -208 -138 -246 -341z" />
    <glyph glyph-name="florin" unicode="&#x192;" horiz-adv-x="325" 
d="M49 460l4 21l46 8l6 29c25 126 118 234 263 234c47 0 101 -15 103 -59c3 -26 -20 -48 -46 -49c-39 -2 -52 35 -47 78c-5 3 -12 6 -27 6c-36 0 -62 -68 -80 -160l-13 -68h93l-8 -40h-93l-79 -401c-32 -165 -115 -281 -268 -281c-43 0 -76 24 -71 48c4 20 23 38 49 38
c35 0 26 -52 68 -52c14 0 28 47 53 175l91 473h-44z" />
    <glyph glyph-name="circumflex" unicode="&#x2c6;" horiz-adv-x="320" 
d="M240 711h32l92 -109h-51l-64 78l-99 -78h-48z" />
    <glyph glyph-name="tilde" unicode="&#x2dc;" horiz-adv-x="419" 
d="M341 614c-60 11 -61 37 -121 49c-33 5 -63 -15 -67 -54l-14 5c6 66 52 112 106 101c60 -11 61 -37 123 -49c31 -5 61 15 65 54l14 -5c-6 -66 -52 -112 -106 -101z" />
    <glyph glyph-name="endash" unicode="&#x2013;" horiz-adv-x="534" 
d="M58 276l12 63h436l-13 -63h-435z" />
    <glyph glyph-name="emdash" unicode="&#x2014;" horiz-adv-x="633" 
d="M58 276l12 63h535l-13 -63h-534z" />
    <glyph glyph-name="quoteleft" unicode="&#x2018;" horiz-adv-x="218" 
d="M248 560c-6 -33 -34 -54 -67 -54c-30 0 -51 29 -42 74c17 88 103 158 136 175l14 -22c-36 -25 -72 -54 -85 -110c29 -5 49 -34 44 -63z" />
    <glyph glyph-name="quoteright" unicode="&#x2019;" horiz-adv-x="218" 
d="M77 670c6 33 34 54 67 54c30 0 51 -29 42 -74c-17 -88 -103 -158 -136 -175l-14 22c36 25 72 54 85 110c-29 5 -49 34 -44 63z" />
    <glyph glyph-name="quotesinglbase" unicode="&#x201a;" horiz-adv-x="208" 
d="M14 45c6 33 34 54 67 54c30 0 51 -29 42 -74c-17 -88 -103 -158 -136 -175l-14 22c36 25 72 54 85 110c-29 5 -49 34 -44 63z" />
    <glyph glyph-name="quotedblleft" unicode="&#x201c;" horiz-adv-x="371" 
d="M395 550c-6 -33 -34 -54 -67 -54c-30 0 -51 29 -42 74c17 88 103 158 136 175l14 -22c-36 -25 -72 -54 -85 -110c29 -5 49 -34 44 -63zM246 550c-6 -33 -34 -54 -67 -54c-30 0 -51 29 -42 74c17 88 103 158 136 175l14 -22c-36 -25 -72 -54 -85 -110c29 -5 49 -34 44 -63
z" />
    <glyph glyph-name="quotedblright" unicode="&#x201d;" horiz-adv-x="365" 
d="M77 670c6 33 34 54 67 54c30 0 51 -29 42 -74c-17 -88 -103 -158 -136 -175l-14 22c36 25 72 54 85 110c-29 5 -49 34 -44 63zM219 670c6 33 34 54 67 54c30 0 51 -29 42 -74c-17 -88 -103 -158 -136 -175l-14 22c36 25 72 54 85 110c-29 5 -49 34 -44 63z" />
    <glyph glyph-name="quotedblbase" unicode="&#x201e;" horiz-adv-x="354" 
d="M14 45c6 33 34 54 67 54c30 0 51 -29 42 -74c-17 -88 -103 -158 -136 -175l-14 22c36 25 72 54 85 110c-29 5 -49 34 -44 63zM155 45c6 33 34 54 67 54c30 0 51 -29 42 -74c-17 -88 -103 -158 -136 -175l-14 22c36 25 72 54 85 110c-29 5 -49 34 -44 63z" />
    <glyph glyph-name="dagger" unicode="&#x2020;" horiz-adv-x="358" 
d="M81 500h123l42 214h43l-42 -214h133l-8 -44h-133l-89 -455h-43l88 455h-122z" />
    <glyph glyph-name="daggerdbl" unicode="&#x2021;" horiz-adv-x="358" 
d="M81 500h123l42 214h43l-42 -214h133l-8 -44h-133l-80 -412h132l-7 -44h-134l-46 -239h-43l46 239h-123l8 44h124l80 412h-123z" />
    <glyph glyph-name="bullet" unicode="&#x2022;" horiz-adv-x="317" 
d="M64 313c13 64 67 104 130 104c59 0 102 -40 89 -104c-12 -65 -67 -109 -130 -109c-60 0 -100 44 -89 109z" />
    <glyph glyph-name="ellipsis" unicode="&#x2026;" horiz-adv-x="604" 
d="M-26 47c6 33 39 57 81 57c37 0 65 -24 59 -57c-7 -33 -40 -52 -80 -52s-67 19 -60 52zM169 47c6 33 39 57 81 57c37 0 65 -24 59 -57c-7 -33 -40 -52 -80 -52s-67 19 -60 52zM364 47c6 33 39 57 81 57c37 0 65 -24 59 -57c-7 -33 -40 -52 -80 -52s-67 19 -60 52z" />
    <glyph glyph-name="perthousand" unicode="&#x2030;" horiz-adv-x="1085" 
d="M154 566c16 87 90 158 187 158c90 0 141 -71 125 -158c-18 -92 -92 -166 -188 -166c-92 0 -141 75 -124 166zM228 566c-15 -78 -7 -143 53 -143c56 0 94 64 109 143c15 74 6 135 -54 135c-58 0 -93 -61 -108 -135zM74 170l748 491l18 -27l-750 -492zM330 156
c18 87 89 158 187 158c91 0 143 -71 125 -158c-18 -92 -92 -166 -188 -166c-93 0 -142 75 -124 166zM405 156c-16 -78 -8 -143 54 -143c56 0 92 64 108 143c14 74 6 135 -54 135c-59 0 -95 -61 -108 -135zM694 156c18 87 90 158 186 158c91 0 144 -71 126 -158
c-18 -92 -92 -166 -189 -166c-91 0 -140 75 -123 166zM769 156c-16 -78 -8 -143 53 -143c57 0 93 64 109 143c13 74 6 135 -55 135c-58 0 -93 -61 -107 -135z" />
    <glyph glyph-name="guilsinglleft" unicode="&#x2039;" horiz-adv-x="275" 
d="M255 379l-132 -186l58 -187l-20 -9l-121 189l3 16l195 189z" />
    <glyph glyph-name="guilsinglright" unicode="&#x203a;" horiz-adv-x="275" 
d="M5 9l131 186l-59 187l22 9l120 -189l-3 -16l-194 -189z" />
    <glyph glyph-name="Euro" unicode="&#x20ac;" horiz-adv-x="699" 
d="M523 723c89 0 141 -29 166 -71l27 63h30l-44 -203h-26c0 111 -47 182 -158 182c-86 0 -169 -105 -218 -270h-166c75 209 271 299 389 299zM384 27c142 0 212 70 275 160l24 -10c-63 -115 -192 -184 -308 -184c-124 0 -282 89 -270 295h166c-18 -159 29 -261 113 -261z
M284 359l-1 -2l-7 -36h-168c2 12 4 24 7 37c2 11 5 21 8 32h168c-3 -10 -5 -21 -7 -31zM291 390l9 34h273l-6 -34h-276zM271 288c1 10 3 22 5 33h281l-4 -33h-282zM39 390l7 34h88c-4 -11 -8 -22 -11 -34h-84zM25 288l4 33h79c-1 -12 -3 -23 -3 -33h-80z" />
    <glyph glyph-name="trademark" unicode="&#x2122;" horiz-adv-x="560" 
d="M561 527l17 -5l-1 -10l-53 1l-54 -1l1 10l23 3l21 115l-81 -127h-10l-51 139l-24 -125l23 -5l-1 -10l-34 1l-31 -1l1 10l23 3l30 157c3 16 -6 20 -17 22l2 10h71l47 -121l61 96l1 3l15 22h77l-1 -10l-21 -3zM271 698h-12l-33 -173l22 -2l-3 -11l-54 1l-54 -1l2 11l20 2
l33 173h-13c-25 0 -43 -8 -47 -33l-2 -9h-11l11 58h195l-11 -58h-11l2 9c4 25 -9 33 -34 33z" />
    <glyph glyph-name="M.small" horiz-adv-x="817" 
d="M709 30l64 -13l-4 -19l-142 2l-153 -2l4 19l69 11l65 340l-263 -368h-24l-142 413l-74 -383l74 -13l-4 -19l-95 2l-95 -2l4 19l74 11l88 451c11 55 -21 64 -59 70l5 21h201l143 -372l268 372h167l-4 -21l-67 -9z" />
    <glyph glyph-name="Q.swash" horiz-adv-x="763" 
d="M354 9l52 -3l-141 -54c211 -28 203 -147 463 -147c82 0 139 17 192 85c5 6 -23 70 27 70c31 0 26 -29 15 -54c-35 -62 -164 -159 -279 -159c-274 0 -333 142 -478 156c-19 2 -40 3 -69 -16c-29 27 -23 42 15 47zM72 357c44 208 218 367 445 367c211 0 333 -159 290 -367
c-45 -208 -220 -366 -445 -366c-213 0 -335 158 -290 366zM241 357c-41 -194 -18 -341 126 -341c132 0 229 147 269 341c41 194 18 342 -124 342c-135 0 -230 -148 -271 -342z" />
    <glyph glyph-name="R.swash" horiz-adv-x="698" 
d="M157 30l70 -13l-4 -19l-116 2l-122 -2l4 19l77 11l142 664h-9c-195 0 -340 -88 -365 -187c-25 -102 23 -170 96 -183c4 -1 28 24 39 6c5 -9 -12 -21 -36 -17c-109 18 -192 91 -166 194c29 116 204 211 419 211c40 0 74 -1 101 -2h110c170 0 261 -78 239 -180
c-21 -94 -101 -145 -208 -167c0 -5 0 -10 1 -10c89 -3 141 -71 135 -162l-3 -37c-2 -165 41 -262 151 -262c68 0 140 34 208 96l9 -12c-56 -53 -148 -126 -259 -126c-159 0 -206 92 -206 303l2 39c2 68 -19 146 -85 146h-157zM383 685h-85l-67 -310h76
c159 -3 216 83 230 156c15 73 -14 155 -154 154z" />
    <glyph glyph-name="Ccedilla" unicode="&#xc7;" horiz-adv-x="655" 
d="M252 359l-1 -2c-42 -197 6 -330 101 -330c142 0 212 70 275 160l24 -10c-58 -106 -172 -173 -280 -182l13 27h-32l-13 -29c-136 2 -311 111 -256 365c54 256 278 365 408 365c89 0 141 -29 166 -71l27 63h30l-44 -203h-26c0 111 -47 182 -158 182
c-97 0 -190 -132 -234 -335zM287 -130l52 123h4c9 0 19 1 28 2l-21 -50s26 9 61 9c52 0 94 -30 83 -85c-26 -137 -236 -119 -236 -119l4 25s124 -2 136 59c4 30 -19 37 -47 37c-20 0 -39 -4 -57 -10z" />
    <glyph glyph-name="ccedilla" unicode="&#xe7;" horiz-adv-x="465" 
d="M152 -128l51 120c-120 18 -177 137 -153 242c32 134 136 276 279 276c56 0 108 -19 124 -66c14 -41 -8 -113 -61 -113c-34 0 -57 32 -49 64c5 29 23 45 49 74c0 0 -17 12 -52 12c-63 0 -108 -102 -141 -243c-18 -107 5 -192 77 -192c54 0 117 32 163 114l18 -7
c-49 -97 -141 -163 -222 -163h-1l-19 -43s26 9 61 9c52 0 93 -30 83 -85c-27 -137 -236 -119 -236 -119l3 25s125 -2 137 59c3 30 -20 37 -48 37c-20 0 -39 -4 -56 -10z" />
    <glyph glyph-name="Zcaron" unicode="&#x17d;" horiz-adv-x="621" 
d="M414 768h-32l-91 109h50l64 -78l99 78h49zM164 713h489l-6 -25l-450 -655l179 1c105 0 167 66 177 114l7 34l36 -1l-44 -182h-532l7 39l446 644h-118c-67 0 -158 5 -196 -104l-11 -33l-32 2z" />
    <glyph glyph-name="zcaron" unicode="&#x17e;" horiz-adv-x="464" 
d="M142 500h351l1 -13l-376 -378c108 16 169 -55 213 -55c34 0 39 9 48 17c-9 13 -14 30 -8 53c6 24 18 43 38 43c25 0 29 -20 22 -48c-10 -39 -93 -156 -176 -156c-101 -2 -118 38 -228 31l-29 -2l2 41l341 342h-134c-48 0 -81 -37 -100 -67l-27 6c15 22 30 59 36 81z
M323 565h-32l-91 109h50l64 -78l99 78h49z" />
    <glyph glyph-name="Scaron" unicode="&#x160;" horiz-adv-x="574" 
d="M348 778h-32l-91 109h50l64 -78l99 78h49zM112 202c17 -127 37 -186 144 -186c76 0 140 40 160 122c25 100 -97 142 -153 181c-107 68 -172 129 -152 210c32 128 174 194 280 194c72 0 124 -36 143 -61l23 53h31l-42 -192h-24c-3 100 -49 177 -133 177
c-89 0 -131 -45 -148 -113c-22 -85 89 -119 150 -172c99 -67 182 -140 162 -219c-37 -148 -160 -206 -290 -206c-76 0 -131 19 -164 80l-26 -69h-27l43 200z" />
    <glyph glyph-name="scaron" unicode="&#x161;" horiz-adv-x="444" 
d="M191 -6c-63 0 -131 22 -146 67c-10 35 5 64 48 64c28 0 29 -56 11 -84c18 -16 50 -26 91 -26c32 0 62 38 76 94c15 60 -43 79 -85 106c-77 53 -104 78 -82 165c21 84 134 126 217 126c40 0 105 -21 115 -59c12 -44 -13 -74 -47 -74c-35 0 -27 44 -12 94
c-13 10 -32 16 -59 16c-47 0 -76 -31 -88 -80c-13 -51 30 -70 78 -101c70 -49 114 -72 93 -159c-24 -93 -121 -149 -210 -149zM300 573h-32l-91 109h50l64 -78l99 78h49z" />
    <glyph glyph-name="Ydieresis" unicode="&#x178;" horiz-adv-x="717" 
d="M192 684l-59 13l4 19l169 -2l124 2l-4 -19l-73 -11l112 -346l235 333l2 12l-67 11l4 20l122 -2l86 2l-4 -20l-65 -13l-300 -391l-55 -262l68 -13l-4 -19l-115 2l-181 -2l4 19l75 11l57 269zM433 873c6 33 39 57 81 57c37 0 65 -24 59 -57c-7 -33 -40 -52 -80 -52
s-67 19 -60 52zM206 875c6 33 39 57 81 57c37 0 65 -24 59 -57c-7 -33 -40 -52 -80 -52s-67 19 -60 52z" />
    <glyph glyph-name="Agrave" unicode="&#xc0;" 
d="M-34 17l73 13l433 681h91l47 -681l69 -13l-4 -19l-161 2l-151 -2l4 19l75 11l-8 191h-233l-121 -191l70 -11l-4 -19l-87 2l-97 -2zM419 563l-192 -303h205zM435 776l-91 96c-8 10 -10 21 -6 32c6 22 29 38 49 33c9 -2 18 -8 21 -19l51 -125z" />
    <glyph glyph-name="Aacute" unicode="&#xc1;" 
d="M-34 17l73 13l433 681h91l47 -681l69 -13l-4 -19l-161 2l-151 -2l4 19l75 11l-8 191h-233l-121 -191l70 -11l-4 -19l-87 2l-97 -2zM419 563l-192 -303h205zM561 876l-129 -96l-17 17l99 125c8 11 20 17 28 19c23 5 40 -11 37 -33c1 -11 -7 -22 -18 -32z" />
    <glyph glyph-name="Acircumflex" unicode="&#xc2;" 
d="M-34 17l73 13l433 681h91l47 -681l69 -13l-4 -19l-161 2l-151 -2l4 19l75 11l-8 191h-233l-121 -191l70 -11l-4 -19l-87 2l-97 -2zM419 563l-192 -303h205zM442 875h32l92 -109h-51l-64 78l-99 -78h-48z" />
    <glyph glyph-name="Atilde" unicode="&#xc3;" 
d="M-34 17l73 13l433 681h91l47 -681l69 -13l-4 -19l-161 2l-151 -2l4 19l75 11l-8 191h-233l-121 -191l70 -11l-4 -19l-87 2l-97 -2zM419 563l-192 -303h205zM495 771c-60 11 -61 37 -121 49c-33 5 -63 -15 -67 -54l-14 5c6 66 52 112 106 101c60 -11 61 -37 123 -49
c31 -5 61 15 65 54l14 -5c-6 -66 -52 -112 -106 -101z" />
    <glyph glyph-name="Adieresis" unicode="&#xc4;" 
d="M-34 17l73 13l433 681h91l47 -681l69 -13l-4 -19l-161 2l-151 -2l4 19l75 11l-8 191h-233l-121 -191l70 -11l-4 -19l-87 2l-97 -2zM419 563l-192 -303h205zM446 868c6 33 39 57 81 57c37 0 65 -24 59 -57c-7 -33 -40 -52 -80 -52s-67 19 -60 52zM219 870
c6 33 39 57 81 57c37 0 65 -24 59 -57c-7 -33 -40 -52 -80 -52s-67 19 -60 52z" />
    <glyph glyph-name="Aring" unicode="&#xc5;" 
d="M364 850c10 46 55 84 100 84c43 0 76 -38 66 -84c-8 -46 -53 -84 -99 -84c-43 0 -75 38 -67 84zM397 850c-5 -27 14 -51 40 -51c25 0 56 24 60 51c6 27 -13 51 -40 51c-25 0 -54 -24 -60 -51zM-34 17l73 13l433 681h91l47 -681l69 -13l-4 -19l-161 2l-151 -2l4 19l75 11
l-8 191h-233l-121 -191l70 -11l-4 -19l-87 2l-97 -2zM419 563l-192 -303h205z" />
    <glyph glyph-name="Egrave" unicode="&#xc8;" horiz-adv-x="634" 
d="M158 714h521l-38 -187h-34l6 31c20 92 -47 128 -153 127l-81 -1l-67 -311c69 2 120 23 133 82l4 20h32l-49 -232h-33l4 20c12 58 -30 80 -97 82l-67 -315l114 -1c107 -1 189 35 209 127l7 31h33l-40 -187h-433l-121 -2l4 19l76 11l138 656l-74 9zM412 779l-91 96
c-8 10 -10 21 -6 32c6 22 29 38 49 33c9 -2 18 -8 21 -19l51 -125z" />
    <glyph glyph-name="Eacute" unicode="&#xc9;" horiz-adv-x="634" 
d="M679 714h-521l-6 -21l74 -9l-138 -656l-76 -11l-4 -19l121 2h433l40 187h-33l-7 -31c-20 -92 -102 -128 -209 -127l-114 1l67 315c67 -2 109 -24 97 -82l-4 -20h33l49 232h-32l-4 -20c-13 -59 -64 -80 -133 -82l67 311l81 1c106 1 173 -35 153 -127l-6 -31h34zM538 879
l-129 -96l-17 17l99 125c8 11 20 17 28 19c23 5 40 -11 37 -33c1 -11 -7 -22 -18 -32z" />
    <glyph glyph-name="Ecircumflex" unicode="&#xca;" horiz-adv-x="634" 
d="M158 714h521l-38 -187h-34l6 31c20 92 -47 128 -153 127l-81 -1l-67 -311c69 2 120 23 133 82l4 20h32l-49 -232h-33l4 20c12 58 -30 80 -97 82l-67 -315l114 -1c107 -1 189 35 209 127l7 31h33l-40 -187h-433l-121 -2l4 19l76 11l138 656l-74 9zM419 878h32l92 -109h-51
l-64 78l-99 -78h-48z" />
    <glyph glyph-name="Edieresis" unicode="&#xcb;" horiz-adv-x="634" 
d="M679 714h-521l-6 -21l74 -9l-138 -656l-76 -11l-4 -19l121 2h433l40 187h-33l-7 -31c-20 -92 -102 -128 -209 -127l-114 1l67 315c67 -2 109 -24 97 -82l-4 -20h33l49 232h-32l-4 -20c-13 -59 -64 -80 -133 -82l67 311l81 1c106 1 173 -35 153 -127l-6 -31h34zM423 871
c6 33 39 57 81 57c37 0 65 -24 59 -57c-7 -33 -40 -52 -80 -52s-67 19 -60 52zM196 873c6 33 39 57 81 57c37 0 65 -24 59 -57c-7 -33 -40 -52 -80 -52s-67 19 -60 52z" />
    <glyph glyph-name="Igrave" unicode="&#xcc;" horiz-adv-x="374" 
d="M239 30l69 -13l-4 -19l-146 2l-150 -2l4 19l76 11l138 656l-74 9l6 21l147 -3l151 3l-5 -21l-72 -9zM260 779l-91 96c-8 10 -10 21 -6 32c6 22 29 38 49 33c9 -2 18 -8 21 -19l51 -125z" />
    <glyph glyph-name="Iacute" unicode="&#xcd;" horiz-adv-x="374" 
d="M239 30l69 -13l-4 -19l-146 2l-150 -2l4 19l76 11l138 656l-74 9l6 21l147 -3l151 3l-5 -21l-72 -9zM385 879l-129 -96l-17 17l99 125c8 11 20 17 28 19c23 5 40 -11 37 -33c1 -11 -7 -22 -18 -32z" />
    <glyph glyph-name="Icircumflex" unicode="&#xce;" horiz-adv-x="374" 
d="M239 30l69 -13l-4 -19l-146 2l-150 -2l4 19l76 11l138 656l-74 9l6 21l147 -3l151 3l-5 -21l-72 -9zM266 878h32l92 -109h-51l-64 78l-99 -78h-48z" />
    <glyph glyph-name="Idieresis" unicode="&#xcf;" horiz-adv-x="374" 
d="M239 30l69 -13l-4 -19l-146 2l-150 -2l4 19l76 11l138 656l-74 9l6 21l147 -3l151 3l-5 -21l-72 -9zM270 871c6 33 39 57 81 57c37 0 65 -24 59 -57c-7 -33 -40 -52 -80 -52s-67 19 -60 52zM43 873c6 33 39 57 81 57c37 0 65 -24 59 -57c-7 -33 -40 -52 -80 -52
s-67 19 -60 52z" />
    <glyph glyph-name="Ntilde" unicode="&#xd1;" horiz-adv-x="747" 
d="M726 682l-85 13l4 19l102 -2l108 2l-4 -19l-80 -11l-143 -684h-57l-330 512l-104 -482l79 -13l-3 -19l-100 2l-105 -2l4 19l81 11l125 595c11 55 -24 64 -66 70l6 21l135 -3l329 -516zM529 774c-60 11 -61 37 -121 49c-33 5 -63 -15 -67 -54l-14 5c6 66 52 112 106 101
c60 -11 61 -37 123 -49c31 -5 61 15 65 54l14 -5c-6 -66 -52 -112 -106 -101z" />
    <glyph glyph-name="Ograve" unicode="&#xd2;" horiz-adv-x="813" 
d="M83 357c44 208 218 367 445 367c211 0 333 -159 290 -367c-45 -208 -220 -366 -445 -366c-213 0 -335 158 -290 366zM252 357c-41 -194 -18 -341 126 -341c132 0 229 147 269 341c41 194 18 342 -124 342c-135 0 -230 -148 -271 -342zM474 789l-91 96c-8 10 -10 21 -6 32
c6 22 29 38 49 33c9 -2 18 -8 21 -19l51 -125z" />
    <glyph glyph-name="Oacute" unicode="&#xd3;" horiz-adv-x="813" 
d="M83 357c44 208 218 367 445 367c211 0 333 -159 290 -367c-45 -208 -220 -366 -445 -366c-213 0 -335 158 -290 366zM252 357c-41 -194 -18 -341 126 -341c132 0 229 147 269 341c41 194 18 342 -124 342c-135 0 -230 -148 -271 -342zM601 889l-129 -96l-17 17l99 125
c8 11 20 17 28 19c23 5 40 -11 37 -33c1 -11 -7 -22 -18 -32z" />
    <glyph glyph-name="Ocircumflex" unicode="&#xd4;" horiz-adv-x="813" 
d="M83 357c44 208 218 367 445 367c211 0 333 -159 290 -367c-45 -208 -220 -366 -445 -366c-213 0 -335 158 -290 366zM252 357c-41 -194 -18 -341 126 -341c132 0 229 147 269 341c41 194 18 342 -124 342c-135 0 -230 -148 -271 -342zM481 888h32l92 -109h-51l-64 78
l-99 -78h-48z" />
    <glyph glyph-name="Otilde" unicode="&#xd5;" horiz-adv-x="813" 
d="M83 357c44 208 218 367 445 367c211 0 333 -159 290 -367c-45 -208 -220 -366 -445 -366c-213 0 -335 158 -290 366zM252 357c-41 -194 -18 -341 126 -341c132 0 229 147 269 341c41 194 18 342 -124 342c-135 0 -230 -148 -271 -342zM535 784c-60 11 -61 37 -121 49
c-33 5 -63 -15 -67 -54l-14 5c6 66 52 112 106 101c60 -11 61 -37 123 -49c31 -5 61 15 65 54l14 -5c-6 -66 -52 -112 -106 -101z" />
    <glyph glyph-name="Odieresis" unicode="&#xd6;" horiz-adv-x="813" 
d="M83 357c44 208 218 367 445 367c211 0 333 -159 290 -367c-45 -208 -220 -366 -445 -366c-213 0 -335 158 -290 366zM252 357c-41 -194 -18 -341 126 -341c132 0 229 147 269 341c41 194 18 342 -124 342c-135 0 -230 -148 -271 -342zM485 881c6 33 39 57 81 57
c37 0 65 -24 59 -57c-7 -33 -40 -52 -80 -52s-67 19 -60 52zM259 883c6 33 39 57 81 57c37 0 65 -24 59 -57c-7 -33 -40 -52 -80 -52s-67 19 -60 52z" />
    <glyph glyph-name="Ugrave" unicode="&#xd9;" horiz-adv-x="771" 
d="M360 -2c-149 0 -288 72 -256 219l98 467l-74 9l6 21l148 -3l150 3l-5 -21l-72 -9l-99 -465c-27 -122 45 -178 145 -178c128 0 207 59 234 188l97 455l-69 9l5 21l91 -3l93 3l-4 -21l-74 -9l-96 -457c-34 -154 -163 -229 -318 -229zM436 779l-91 96c-8 10 -10 21 -6 32
c6 22 29 38 49 33c9 -2 18 -8 21 -19l51 -125z" />
    <glyph glyph-name="Uacute" unicode="&#xda;" horiz-adv-x="771" 
d="M360 -2c155 0 284 75 318 229l96 457l74 9l4 21l-93 -3l-91 3l-5 -21l69 -9l-97 -455c-27 -129 -106 -188 -234 -188c-100 0 -172 56 -145 178l99 465l72 9l5 21l-150 -3l-148 3l-6 -21l74 -9l-98 -467c-32 -147 107 -219 256 -219zM563 879l-129 -96l-17 17l99 125
c8 11 20 17 28 19c23 5 40 -11 37 -33c1 -11 -7 -22 -18 -32z" />
    <glyph glyph-name="Ucircumflex" unicode="&#xdb;" horiz-adv-x="771" 
d="M360 -2c-149 0 -288 72 -256 219l98 467l-74 9l6 21l148 -3l150 3l-5 -21l-72 -9l-99 -465c-27 -122 45 -178 145 -178c128 0 207 59 234 188l97 455l-69 9l5 21l91 -3l93 3l-4 -21l-74 -9l-96 -457c-34 -154 -163 -229 -318 -229zM443 878h32l92 -109h-51l-64 78
l-99 -78h-48z" />
    <glyph glyph-name="Udieresis" unicode="&#xdc;" horiz-adv-x="771" 
d="M360 -2c155 0 284 75 318 229l96 457l74 9l4 21l-93 -3l-91 3l-5 -21l69 -9l-97 -455c-27 -129 -106 -188 -234 -188c-100 0 -172 56 -145 178l99 465l72 9l5 21l-150 -3l-148 3l-6 -21l74 -9l-98 -467c-32 -147 107 -219 256 -219zM447 871c6 33 39 57 81 57
c37 0 65 -24 59 -57c-7 -33 -40 -52 -80 -52s-67 19 -60 52zM220 873c6 33 39 57 81 57c37 0 65 -24 59 -57c-7 -33 -40 -52 -80 -52s-67 19 -60 52z" />
    <glyph glyph-name="Yacute" unicode="&#xdd;" horiz-adv-x="717" 
d="M192 684l-59 13l4 19l169 -2l124 2l-4 -19l-73 -11l112 -346l235 333l2 12l-67 11l4 20l122 -2l86 2l-4 -20l-65 -13l-300 -391l-55 -262l68 -13l-4 -19l-115 2l-181 -2l4 19l75 11l57 269zM548 881l-129 -96l-17 17l99 125c8 11 20 17 28 19c23 5 40 -11 37 -33
c1 -11 -7 -22 -18 -32z" />
    <glyph glyph-name="agrave" unicode="&#xe0;" horiz-adv-x="580" 
d="M144 -5c-103 0 -137 89 -105 205c65 227 235 310 318 310c33 0 52 -12 64 -45l25 35h124l-105 -362c-21 -76 -19 -98 6 -98c31 0 64 37 93 93l20 -9c-37 -76 -121 -138 -202 -129c-73 4 -80 69 -60 142l10 35c-36 -75 -103 -177 -188 -177zM202 60c69 0 142 169 162 219
l23 77c22 76 12 120 -45 120c-42 0 -101 -72 -154 -262c-27 -98 -25 -154 14 -154zM372 585l-91 96c-8 10 -10 21 -6 32c6 22 29 38 49 33c9 -2 18 -8 21 -19l51 -125z" />
    <glyph glyph-name="aacute" unicode="&#xe1;" horiz-adv-x="580" 
d="M144 -5c-103 0 -137 89 -105 205c65 227 235 310 318 310c33 0 52 -12 64 -45l25 35h124l-105 -362c-21 -76 -19 -98 6 -98c31 0 64 37 93 93l20 -9c-37 -76 -121 -138 -202 -129c-73 4 -80 69 -60 142l10 35c-36 -75 -103 -177 -188 -177zM202 60c69 0 142 169 162 219
l23 77c22 76 12 120 -45 120c-42 0 -101 -72 -154 -262c-27 -98 -25 -154 14 -154zM499 685l-129 -96l-17 17l99 125c8 11 20 17 28 19c23 5 40 -11 37 -33c1 -11 -7 -22 -18 -32z" />
    <glyph glyph-name="acircumflex" unicode="&#xe2;" horiz-adv-x="580" 
d="M144 -5c-103 0 -137 89 -105 205c65 227 235 310 318 310c33 0 52 -12 64 -45l25 35h124l-105 -362c-21 -76 -19 -98 6 -98c31 0 64 37 93 93l20 -9c-37 -76 -121 -138 -202 -129c-73 4 -80 69 -60 142l10 35c-36 -75 -103 -177 -188 -177zM202 60c69 0 142 169 162 219
l23 77c22 76 12 120 -45 120c-42 0 -101 -72 -154 -262c-27 -98 -25 -154 14 -154zM379 684h32l92 -109h-51l-64 78l-99 -78h-48z" />
    <glyph glyph-name="atilde" unicode="&#xe3;" horiz-adv-x="580" 
d="M144 -5c-103 0 -137 89 -105 205c65 227 235 310 318 310c33 0 52 -12 64 -45l25 35h124l-105 -362c-21 -76 -19 -98 6 -98c31 0 64 37 93 93l20 -9c-37 -76 -121 -138 -202 -129c-73 4 -80 69 -60 142l10 35c-36 -75 -103 -177 -188 -177zM202 60c69 0 142 169 162 219
l23 77c22 76 12 120 -45 120c-42 0 -101 -72 -154 -262c-27 -98 -25 -154 14 -154zM433 580c-60 11 -61 37 -121 49c-33 5 -63 -15 -67 -54l-14 5c6 66 52 112 106 101c60 -11 61 -37 123 -49c31 -5 61 15 65 54l14 -5c-6 -66 -52 -112 -106 -101z" />
    <glyph glyph-name="adieresis" unicode="&#xe4;" horiz-adv-x="580" 
d="M144 -5c-103 0 -137 89 -105 205c65 227 235 310 318 310c33 0 52 -12 64 -45l25 35h124l-105 -362c-21 -76 -19 -98 6 -98c31 0 64 37 93 93l20 -9c-37 -76 -121 -138 -202 -129c-73 4 -80 69 -60 142l10 35c-36 -75 -103 -177 -188 -177zM202 60c69 0 142 169 162 219
l23 77c22 76 12 120 -45 120c-42 0 -101 -72 -154 -262c-27 -98 -25 -154 14 -154zM383 677c6 33 39 57 81 57c37 0 65 -24 59 -57c-7 -33 -40 -52 -80 -52s-67 19 -60 52zM156 679c6 33 39 57 81 57c37 0 65 -24 59 -57c-7 -33 -40 -52 -80 -52s-67 19 -60 52z" />
    <glyph glyph-name="aring" unicode="&#xe5;" horiz-adv-x="580" 
d="M302 659c10 46 55 84 100 84c43 0 76 -38 66 -84c-8 -46 -53 -84 -99 -84c-43 0 -75 38 -67 84zM335 659c-5 -27 14 -51 40 -51c25 0 56 24 60 51c6 27 -13 51 -40 51c-25 0 -54 -24 -60 -51zM144 -5c-103 0 -137 89 -105 205c65 227 235 310 318 310c33 0 52 -12 64 -45
l25 35h124l-105 -362c-21 -76 -19 -98 6 -98c31 0 64 37 93 93l20 -9c-37 -76 -121 -138 -202 -129c-73 4 -80 69 -60 142l10 35c-36 -75 -103 -177 -188 -177zM202 60c69 0 142 169 162 219l23 77c22 76 12 120 -45 120c-42 0 -101 -72 -154 -262c-27 -98 -25 -154 14 -154
z" />
    <glyph glyph-name="egrave" unicode="&#xe8;" horiz-adv-x="472" 
d="M491 402c-28 -113 -219 -155 -290 -162c-1 -2 -1 -3 -1 -4c-25 -91 -20 -191 61 -191c52 0 118 30 168 109l18 -8c-61 -94 -158 -156 -240 -156c-150 0 -187 133 -155 246c36 129 150 274 310 274c84 0 147 -37 129 -108zM341 478c-51 0 -91 -75 -133 -214
c51 14 130 42 156 145c11 43 -2 69 -23 69zM319 585l-91 96c-8 10 -10 21 -6 32c6 22 29 38 49 33c9 -2 18 -8 21 -19l51 -125z" />
    <glyph glyph-name="eacute" unicode="&#xe9;" horiz-adv-x="472" 
d="M491 402c-28 -113 -219 -155 -290 -162c-1 -2 -1 -3 -1 -4c-25 -91 -20 -191 61 -191c52 0 118 30 168 109l18 -8c-61 -94 -158 -156 -240 -156c-150 0 -187 133 -155 246c36 129 150 274 310 274c84 0 147 -37 129 -108zM341 478c-51 0 -91 -75 -133 -214
c51 14 130 42 156 145c11 43 -2 69 -23 69zM445 685l-129 -96l-17 17l99 125c8 11 20 17 28 19c23 5 40 -11 37 -33c1 -11 -7 -22 -18 -32z" />
    <glyph glyph-name="ecircumflex" unicode="&#xea;" horiz-adv-x="472" 
d="M491 402c-28 -113 -219 -155 -290 -162c-1 -2 -1 -3 -1 -4c-25 -91 -20 -191 61 -191c52 0 118 30 168 109l18 -8c-61 -94 -158 -156 -240 -156c-150 0 -187 133 -155 246c36 129 150 274 310 274c84 0 147 -37 129 -108zM341 478c-51 0 -91 -75 -133 -214
c51 14 130 42 156 145c11 43 -2 69 -23 69zM326 684h32l92 -109h-51l-64 78l-99 -78h-48z" />
    <glyph glyph-name="edieresis" unicode="&#xeb;" horiz-adv-x="472" 
d="M491 402c-28 -113 -219 -155 -290 -162c-1 -2 -1 -3 -1 -4c-25 -91 -20 -191 61 -191c52 0 118 30 168 109l18 -8c-61 -94 -158 -156 -240 -156c-150 0 -187 133 -155 246c36 129 150 274 310 274c84 0 147 -37 129 -108zM341 478c-51 0 -91 -75 -133 -214
c51 14 130 42 156 145c11 43 -2 69 -23 69zM330 677c6 33 39 57 81 57c37 0 65 -24 59 -57c-7 -33 -40 -52 -80 -52s-67 19 -60 52zM103 679c6 33 39 57 81 57c37 0 65 -24 59 -57c-7 -33 -40 -52 -80 -52s-67 19 -60 52z" />
    <glyph glyph-name="igrave" unicode="&#xec;" horiz-adv-x="326" 
d="M69 137l81 316l-57 10l12 30l203 12l-95 -368c-22 -76 -22 -97 5 -97c30 0 63 37 93 93l20 -9c-38 -76 -122 -138 -203 -129c-71 4 -79 69 -59 142zM312 565l-91 96c-8 10 -10 21 -6 32c6 22 29 38 49 33c9 -2 18 -8 21 -19l51 -125z" />
    <glyph glyph-name="iacute" unicode="&#xed;" horiz-adv-x="326" 
d="M69 137l81 316l-57 10l12 30l203 12l-95 -368c-22 -76 -22 -97 5 -97c30 0 63 37 93 93l20 -9c-38 -76 -122 -138 -203 -129c-71 4 -79 69 -59 142zM337 661l-129 -96l-17 17l99 125c8 11 20 17 28 19c23 5 40 -11 37 -33c1 -11 -7 -22 -18 -32z" />
    <glyph glyph-name="icircumflex" unicode="&#xee;" horiz-adv-x="326" 
d="M69 137l81 316l-57 10l12 30l203 12l-95 -368c-22 -76 -22 -97 5 -97c30 0 63 37 93 93l20 -9c-38 -76 -122 -138 -203 -129c-71 4 -79 69 -59 142zM273 711h32l92 -109h-51l-64 78l-99 -78h-48z" />
    <glyph glyph-name="idieresis" unicode="&#xef;" horiz-adv-x="326" 
d="M69 137l81 316l-57 10l12 30l203 12l-95 -368c-22 -76 -22 -97 5 -97c30 0 63 37 93 93l20 -9c-38 -76 -122 -138 -203 -129c-71 4 -79 69 -59 142zM292 697c6 33 39 57 81 57c37 0 65 -24 59 -57c-7 -33 -40 -52 -80 -52s-67 19 -60 52zM65 699c6 33 39 57 81 57
c37 0 65 -24 59 -57c-7 -33 -40 -52 -80 -52s-67 19 -60 52z" />
    <glyph glyph-name="ntilde" unicode="&#xf1;" horiz-adv-x="609" 
d="M352 137l60 214c17 62 11 96 -26 96c-46 0 -115 -92 -160 -228l-56 -219h-144l115 453l-58 10l10 30l206 12l-43 -167c57 108 135 172 200 172c77 0 132 -46 100 -159l-62 -214c-22 -76 -22 -97 5 -97c30 0 64 37 93 93l19 -9c-37 -76 -121 -138 -201 -129
c-73 4 -80 69 -58 142zM435 580c-60 11 -61 37 -121 49c-33 5 -63 -15 -67 -54l-14 5c6 66 52 112 106 101c60 -11 61 -37 123 -49c31 -5 61 15 65 54l14 -5c-6 -66 -52 -112 -106 -101z" />
    <glyph glyph-name="ograve" unicode="&#xf2;" horiz-adv-x="551" 
d="M51 230c34 156 153 280 288 280c139 0 223 -108 193 -240c-33 -156 -155 -279 -302 -279c-130 0 -207 107 -179 239zM190 230c-24 -118 -19 -214 45 -214c62 0 116 112 144 254c26 118 21 215 -46 215c-61 0 -111 -113 -143 -255zM317 585l-91 96c-8 10 -10 21 -6 32
c6 22 29 38 49 33c9 -2 18 -8 21 -19l51 -125z" />
    <glyph glyph-name="oacute" unicode="&#xf3;" horiz-adv-x="551" 
d="M51 230c34 156 153 280 288 280c139 0 223 -108 193 -240c-33 -156 -155 -279 -302 -279c-130 0 -207 107 -179 239zM190 230c-24 -118 -19 -214 45 -214c62 0 116 112 144 254c26 118 21 215 -46 215c-61 0 -111 -113 -143 -255zM443 685l-129 -96l-17 17l99 125
c8 11 20 17 28 19c23 5 40 -11 37 -33c1 -11 -7 -22 -18 -32z" />
    <glyph glyph-name="ocircumflex" unicode="&#xf4;" horiz-adv-x="551" 
d="M51 230c34 156 153 280 288 280c139 0 223 -108 193 -240c-33 -156 -155 -279 -302 -279c-130 0 -207 107 -179 239zM190 230c-24 -118 -19 -214 45 -214c62 0 116 112 144 254c26 118 21 215 -46 215c-61 0 -111 -113 -143 -255zM324 684h32l92 -109h-51l-64 78l-99 -78
h-48z" />
    <glyph glyph-name="otilde" unicode="&#xf5;" horiz-adv-x="551" 
d="M51 230c34 156 153 280 288 280c139 0 223 -108 193 -240c-33 -156 -155 -279 -302 -279c-130 0 -207 107 -179 239zM190 230c-24 -118 -19 -214 45 -214c62 0 116 112 144 254c26 118 21 215 -46 215c-61 0 -111 -113 -143 -255zM377 580c-60 11 -61 37 -121 49
c-33 5 -63 -15 -67 -54l-14 5c6 66 52 112 106 101c60 -11 61 -37 123 -49c31 -5 61 15 65 54l14 -5c-6 -66 -52 -112 -106 -101z" />
    <glyph glyph-name="odieresis" unicode="&#xf6;" horiz-adv-x="551" 
d="M51 230c34 156 153 280 288 280c139 0 223 -108 193 -240c-33 -156 -155 -279 -302 -279c-130 0 -207 107 -179 239zM190 230c-24 -118 -19 -214 45 -214c62 0 116 112 144 254c26 118 21 215 -46 215c-61 0 -111 -113 -143 -255zM328 677c6 33 39 57 81 57
c37 0 65 -24 59 -57c-7 -33 -40 -52 -80 -52s-67 19 -60 52zM101 679c6 33 39 57 81 57c37 0 65 -24 59 -57c-7 -33 -40 -52 -80 -52s-67 19 -60 52z" />
    <glyph glyph-name="ugrave" unicode="&#xf9;" horiz-adv-x="611" 
d="M357 137l1 4c-54 -97 -124 -154 -185 -154c-81 0 -139 36 -111 149l80 322l-57 12l9 30l205 10l-93 -374c-16 -65 -5 -86 33 -86c43 0 111 91 153 228l44 175l-49 10l12 30l193 12l-92 -368c-20 -79 -16 -97 9 -97c31 0 63 37 90 93l20 -10c-33 -76 -116 -137 -197 -128
c-69 4 -83 69 -65 142zM379 585l-91 96c-8 10 -10 21 -6 32c6 22 29 38 49 33c9 -2 18 -8 21 -19l51 -125z" />
    <glyph glyph-name="uacute" unicode="&#xfa;" horiz-adv-x="611" 
d="M357 137l1 4c-54 -97 -124 -154 -185 -154c-81 0 -139 36 -111 149l80 322l-57 12l9 30l205 10l-93 -374c-16 -65 -5 -86 33 -86c43 0 111 91 153 228l44 175l-49 10l12 30l193 12l-92 -368c-20 -79 -16 -97 9 -97c31 0 63 37 90 93l20 -10c-33 -76 -116 -137 -197 -128
c-69 4 -83 69 -65 142zM505 685l-129 -96l-17 17l99 125c8 11 20 17 28 19c23 5 40 -11 37 -33c1 -11 -7 -22 -18 -32z" />
    <glyph glyph-name="ucircumflex" unicode="&#xfb;" horiz-adv-x="611" 
d="M357 137l1 4c-54 -97 -124 -154 -185 -154c-81 0 -139 36 -111 149l80 322l-57 12l9 30l205 10l-93 -374c-16 -65 -5 -86 33 -86c43 0 111 91 153 228l44 175l-49 10l12 30l193 12l-92 -368c-20 -79 -16 -97 9 -97c31 0 63 37 90 93l20 -10c-33 -76 -116 -137 -197 -128
c-69 4 -83 69 -65 142zM386 684h32l92 -109h-51l-64 78l-99 -78h-48z" />
    <glyph glyph-name="udieresis" unicode="&#xfc;" horiz-adv-x="611" 
d="M357 137l1 4c-54 -97 -124 -154 -185 -154c-81 0 -139 36 -111 149l80 322l-57 12l9 30l205 10l-93 -374c-16 -65 -5 -86 33 -86c43 0 111 91 153 228l44 175l-49 10l12 30l193 12l-92 -368c-20 -79 -16 -97 9 -97c31 0 63 37 90 93l20 -10c-33 -76 -116 -137 -197 -128
c-69 4 -83 69 -65 142zM390 677c6 33 39 57 81 57c37 0 65 -24 59 -57c-7 -33 -40 -52 -80 -52s-67 19 -60 52zM163 679c6 33 39 57 81 57c37 0 65 -24 59 -57c-7 -33 -40 -52 -80 -52s-67 19 -60 52z" />
    <glyph glyph-name="yacute" unicode="&#xfd;" horiz-adv-x="463" 
d="M186 0h-1l-30 -91c-29 -103 -103 -155 -146 -155c-38 0 -84 11 -93 54c-5 28 23 55 57 55c36 0 46 -34 58 -70c35 0 74 50 90 117l27 90h-1c-4 161 -25 292 -48 458l-53 8l9 30l183 19c24 -147 36 -221 37 -374c57 74 105 148 138 232c-10 18 -33 72 -26 98
c7 31 35 56 51 56c53 0 58 -66 32 -116c-77 -165 -158 -264 -284 -411zM401 702l-129 -96l-17 17l99 125c8 11 20 17 28 19c23 5 40 -11 37 -33c1 -11 -7 -22 -18 -32z" />
    <glyph glyph-name="ydieresis" unicode="&#xff;" horiz-adv-x="463" 
d="M186 0h-1l-30 -91c-29 -103 -103 -155 -146 -155c-38 0 -84 11 -93 54c-5 28 23 55 57 55c36 0 46 -34 58 -70c35 0 74 50 90 117l27 90h-1c-4 161 -25 292 -48 458l-53 8l9 30l183 19c24 -147 36 -221 37 -374c57 74 105 148 138 232c-10 18 -33 72 -26 98
c7 31 35 56 51 56c53 0 58 -66 32 -116c-77 -165 -158 -264 -284 -411zM286 694c6 33 39 57 81 57c37 0 65 -24 59 -57c-7 -33 -40 -52 -80 -52s-67 19 -60 52zM59 696c6 33 39 57 81 57c37 0 65 -24 59 -57c-7 -33 -40 -52 -80 -52s-67 19 -60 52z" />
    <glyph glyph-name="space" unicode=" " horiz-adv-x="189" 
 />
  </font>
</defs>
</svg>
